<svg width="70" height="69" viewBox="0 0 70 69" fill="none" xmlns="http://www.w3.org/2000/svg">
<path d="M39.7 36.3008C39.3751 36.3008 39.058 36.1546 38.8448 35.8855L36.8803 33.3939H33.4045L31.4399 35.8855C31.1228 36.2879 30.5719 36.4147 30.1123 36.1921L24.4035 33.4224C23.9439 33.1998 23.6986 32.6863 23.8129 32.1856L24.5217 29.0846L22.3543 26.3459L19.1956 26.3524C19.1943 26.3524 19.1943 26.3524 19.193 26.3524C18.6833 26.3524 18.2429 25.9979 18.1286 25.4972L16.7187 19.2746C16.6057 18.774 16.851 18.2604 17.3107 18.0379L20.1586 16.6627L20.9316 13.2486L18.958 10.7648C18.6396 10.3637 18.6383 9.7932 18.9568 9.39215L22.909 4.39853C23.2274 3.99619 23.7782 3.87071 24.2379 4.09451L27.0807 5.48005L30.2124 3.95997L30.9096 0.85642C31.0226 0.355763 31.4643 0 31.9741 0H38.3094C38.8192 0 39.2609 0.355763 39.3739 0.85642L40.0711 3.95997L43.2028 5.48005L46.0456 4.09451C46.5053 3.87071 47.0561 3.99749 47.3745 4.39853L51.3242 9.38957C51.6426 9.7919 51.6413 10.3611 51.3229 10.7622L49.3493 13.246L50.1223 16.6601L52.9703 18.0353C53.4299 18.2578 53.6765 18.7701 53.5622 19.272L52.1524 25.4947C52.0394 25.9953 51.5977 26.3498 51.0879 26.3498C51.0866 26.3498 51.0866 26.3498 51.0853 26.3498L47.9267 26.3433L45.7593 29.082L46.468 32.183C46.5823 32.6837 46.3371 33.1973 45.8774 33.4198L40.1687 36.1896C40.021 36.2646 39.8592 36.3008 39.7 36.3008ZM32.8767 31.1933H37.4067C37.7393 31.1933 38.0539 31.346 38.2619 31.6086L40.012 33.8286L44.1491 31.8221L43.5174 29.0601C43.4429 28.7327 43.5199 28.3899 43.7279 28.1273L46.5528 24.5593C46.7595 24.298 47.0741 24.1453 47.4066 24.1453C47.4079 24.1453 47.4079 24.1453 47.4092 24.1453L50.2225 24.1505L51.2446 19.6407L48.7073 18.4156C48.4069 18.2707 48.1886 17.9952 48.1154 17.6692L47.1075 13.2202C47.033 12.8929 47.1113 12.55 47.3193 12.2887L49.0771 10.0752L46.2138 6.45808L43.6817 7.69225C43.3825 7.83844 43.0333 7.83844 42.7328 7.69355L38.651 5.71291C38.3505 5.56802 38.1335 5.29247 38.0603 4.96516L37.4376 2.19927H32.8459L32.2245 4.96387C32.1513 5.29117 31.933 5.56673 31.6338 5.71162L27.5532 7.69225C27.2528 7.83715 26.9035 7.83715 26.6043 7.69096L24.0723 6.45678L21.2102 10.0739L22.968 12.2874C23.176 12.5487 23.2544 12.8929 23.1799 13.2189L22.1719 17.6679C22.0975 17.9952 21.8792 18.2694 21.58 18.4143L19.0428 19.6394L20.0649 24.1492L22.8781 24.144C22.8794 24.144 22.8794 24.144 22.8807 24.144C23.2133 24.144 23.5266 24.2967 23.7346 24.558L26.5594 28.126C26.7674 28.3886 26.8445 28.7315 26.77 29.0588L26.1382 31.8208L30.2753 33.8273L32.0254 31.6073C32.2296 31.3473 32.5442 31.1933 32.8767 31.1933ZM35.1417 28.6875C29.4626 28.6875 24.8414 24.0315 24.8414 18.3095C24.8414 12.5876 29.4626 7.93158 35.1417 7.93158C40.8209 7.93158 45.4421 12.5876 45.4421 18.3095C45.4421 24.0315 40.8209 28.6875 35.1417 28.6875ZM35.1417 10.1321C30.6657 10.1321 27.0242 13.801 27.0242 18.3108C27.0242 22.8206 30.6657 26.4895 35.1417 26.4895C39.6178 26.4895 43.2593 22.8206 43.2593 18.3108C43.2593 13.801 39.6178 10.1321 35.1417 10.1321Z" fill="#FAFAFA"/>
<path d="M49.2847 68.467C49.1884 68.467 49.0908 68.454 48.9945 68.4269C43.3217 66.8486 38.8392 62.3142 34.8845 58.3142C34.6431 58.0697 34.403 57.8277 34.1654 57.5871C33.7391 57.1576 33.7391 56.4616 34.1654 56.0321C34.5917 55.6026 35.2825 55.6026 35.7088 56.0321C35.9476 56.2727 36.189 56.5159 36.4304 56.7617C39.4119 59.7773 42.708 63.1124 46.4932 65.0749C46.4714 64.8964 46.4598 64.7153 46.4598 64.5316C46.4598 63.2948 46.985 62.1784 47.8222 61.397C44.9742 59.9313 42.5526 57.5302 40.3557 55.3516C39.6713 54.6737 39.0254 54.0321 38.3783 53.4279L38.3539 53.4059C38.3359 53.3904 38.3192 53.3736 38.3025 53.3581C37.8647 52.9402 37.8467 52.2442 38.2614 51.8031C38.6762 51.3619 39.367 51.3438 39.8048 51.7617L39.8202 51.7759C39.8369 51.7914 39.8549 51.8082 39.8716 51.8238C40.5328 52.4421 41.1903 53.0941 41.8875 53.7837C44.6699 56.5431 47.5474 59.3957 51.0207 60.2935C51.5664 60.4345 51.9156 60.9714 51.827 61.5316C51.7397 62.084 51.2518 62.4824 50.7022 62.4578C49.562 62.4617 48.6427 63.3906 48.6427 64.5316C48.6427 65.3195 49.0767 66.0297 49.7752 66.3842C50.2759 66.639 50.5045 67.2341 50.3029 67.7619C50.1373 68.1966 49.7264 68.467 49.2847 68.467ZM50.6778 62.4578H50.6791C50.6791 62.4578 50.6791 62.4578 50.6778 62.4578Z" fill="#FAFAFA"/>
<path d="M30.8218 53.6608C30.5573 53.6608 30.2915 53.5637 30.0822 53.3697C29.3888 52.7241 28.7083 52.0501 27.9892 51.3373C24.8447 48.2195 21.5936 44.9957 17.5027 44.5856C17.4899 44.5843 17.477 44.583 17.4642 44.5817C17.1367 44.548 16.8055 44.5364 16.4614 44.5416C16.3753 44.5442 16.288 44.5338 16.2033 44.5157C14.2798 44.0823 12.8828 42.3242 12.8828 40.3345C12.8828 38.3371 14.2862 36.5776 16.22 36.1494C16.297 36.1326 16.3753 36.1236 16.4537 36.1236C16.5397 36.1223 16.6334 36.121 16.7284 36.121C17.1984 36.121 17.6709 36.143 18.1331 36.1857C18.1383 36.1857 18.1447 36.187 18.1498 36.187C25.14 36.8416 30.3711 42.134 34.9871 46.8029C35.2079 47.0254 35.4262 47.2467 35.6432 47.4666L35.7074 47.5313C36.1299 47.9569 36.1337 48.6451 35.7164 49.0772L31.6012 53.327C31.3906 53.5495 31.1068 53.6608 30.8218 53.6608ZM17.6747 42.3928C17.6799 42.3928 17.6863 42.3941 17.6914 42.3941C22.5604 42.8701 26.2571 46.5351 29.5198 49.7694C29.955 50.2014 30.3762 50.618 30.7909 51.0191L33.4039 48.3204C29.0627 43.9297 24.1423 38.9684 17.9662 38.381C17.9585 38.381 17.9521 38.3797 17.9444 38.3797C17.4988 38.3371 17.0404 38.3202 16.5898 38.3228C15.7012 38.566 15.0656 39.3966 15.0656 40.3358C15.0656 41.266 15.6909 42.0913 16.5679 42.3423C16.948 42.3371 17.3114 42.3552 17.6747 42.3928Z" fill="#FAFAFA"/>
<path d="M15.9057 69C7.168 69 0.646499 62.7929 0.0455807 53.9052C0.00706028 53.3425 0.398684 52.8418 0.95081 52.7461C1.50422 52.6517 2.03708 52.9932 2.18603 53.5378C2.45182 54.5081 3.33651 55.186 4.33675 55.186C5.43073 55.186 6.35522 54.3981 6.53498 53.3127C6.62615 52.7668 7.10637 52.3722 7.65464 52.3955C8.2042 52.4175 8.65104 52.8483 8.69854 53.4007C9.05935 57.6298 12.1911 60.5832 16.3153 60.5832C16.9958 60.5832 17.6866 60.5056 18.3723 60.3504C18.3928 60.3452 18.4134 60.34 18.4339 60.3362C18.7742 60.2572 19.117 60.1602 19.4522 60.0451C19.533 60.0179 19.6178 59.9998 19.7025 59.992C19.8117 59.9817 19.9272 59.9765 20.0467 59.9765C22.3604 59.9765 24.2428 61.873 24.2428 64.2043C24.2428 65.7593 23.3979 67.1862 22.0382 67.9262C21.9855 67.9547 21.9303 67.9792 21.8725 67.9986C21.4655 68.1397 21.0482 68.2677 20.6322 68.379C19.1042 68.7917 17.5133 69 15.9057 69ZM21.522 66.9598H21.5233H21.522ZM2.79722 57.1058C3.47133 59.4681 4.68857 61.525 6.39759 63.1628C8.88216 65.5432 12.1705 66.802 15.9057 66.802C17.3233 66.802 18.7241 66.6183 20.071 66.2561C20.4062 66.1655 20.7426 66.0633 21.0739 65.9507C21.6851 65.5859 22.0613 64.9236 22.0613 64.2056C22.0613 63.0865 21.1586 62.1771 20.0479 62.1771C20.0351 62.1771 20.0223 62.1771 20.0107 62.1771C19.6383 62.2987 19.2596 62.4048 18.8821 62.4901C18.8743 62.4914 18.8679 62.4927 18.8602 62.4953C18.0166 62.6868 17.1602 62.7838 16.3166 62.7838C11.9869 62.7838 8.50851 60.265 7.12563 56.3943C6.36293 57.0204 5.38964 57.3878 4.33675 57.3878C3.80132 57.3865 3.28129 57.2869 2.79722 57.1058Z" fill="#FAFAFA"/>
<path d="M4.3374 57.3881C2.35745 57.3881 0.608622 56.0465 0.0821768 54.1254C0.0616326 54.0491 0.0487925 53.9689 0.0449405 53.8899C0.0154082 53.4501 0 53.0038 0 52.5626C0 52.4384 0.00128401 52.3142 0.00385204 52.1888C0.00385204 52.1862 0.00385204 52.1836 0.00385204 52.181C0.101437 47.9739 1.79762 44.0049 4.7791 41.0074C7.8389 37.9311 11.9786 36.1975 16.4341 36.1251C16.9965 36.1186 17.4703 36.5365 17.5358 37.0979C17.6012 37.6594 17.2327 38.1782 16.6857 38.2998C15.7459 38.508 15.064 39.3645 15.064 40.336C15.064 41.305 15.742 42.1601 16.6768 42.371C17.216 42.4926 17.5794 42.9997 17.5242 43.5534C17.469 44.1071 17.0119 44.5314 16.4598 44.5431C12.2508 44.6272 8.82759 48.0166 8.66837 52.2599C8.66324 52.3647 8.66195 52.4643 8.66195 52.5613C8.66195 52.8408 8.67351 53.1241 8.6979 53.4022C8.70561 53.4941 8.70176 53.5859 8.68635 53.6765C8.33324 55.8279 6.50224 57.3881 4.3374 57.3881ZM2.21492 53.6377C2.51153 54.5562 3.37053 55.1888 4.3374 55.1888C5.39029 55.1888 6.28781 54.4579 6.51251 53.4346C6.49197 53.1448 6.4817 52.8524 6.4817 52.5613C6.4817 52.4229 6.48427 52.291 6.49069 52.1681C6.65761 47.7346 9.62881 44.0295 13.6568 42.7875C13.1676 42.0838 12.8838 41.2338 12.8838 40.336C12.8838 39.7746 12.9942 39.2312 13.1971 38.7318C10.5854 39.3515 8.21511 40.6633 6.32376 42.5637C3.7429 45.1576 2.27527 48.5897 2.18796 52.2263C2.18796 52.2302 2.18796 52.2353 2.18796 52.2392C2.18539 52.3466 2.18411 52.454 2.18411 52.5626C2.18282 52.9197 2.19438 53.2819 2.21492 53.6377Z" fill="#FAFAFA"/>
<path d="M53.1468 69C52.3135 69 51.4724 68.9302 50.6481 68.7943C50.6366 68.7931 50.625 68.7918 50.6147 68.7892C50.0844 68.6999 49.5464 68.5796 49.0136 68.4321C48.9378 68.4127 48.8646 68.3855 48.7953 68.3493C47.3559 67.6184 46.4609 66.1565 46.4609 64.5329C46.4609 62.1771 48.3638 60.2599 50.702 60.2599C50.7329 60.2599 50.765 60.2599 50.7958 60.2625C50.8741 60.2664 50.9524 60.278 51.0295 60.2974C51.3543 60.3815 51.6689 60.4462 51.9873 60.4915C52.0066 60.4941 52.0271 60.4967 52.0464 60.4992C52.4432 60.5549 52.8476 60.582 53.2482 60.582C55.2821 60.582 57.2133 59.8123 58.686 58.4151C60.1241 57.0503 61.0101 55.2171 61.1796 53.2533C61.2284 52.6996 61.6791 52.2688 62.2312 52.2507C62.7833 52.2326 63.261 52.6323 63.3457 53.1822C63.5114 54.2598 64.4538 55.0722 65.5388 55.0722C66.5468 55.0722 67.4289 54.3879 67.6857 53.4086C67.8295 52.8587 68.3649 52.5107 68.9209 52.6039C69.4769 52.6983 69.8711 53.2042 69.8287 53.7708C69.5257 57.8575 67.7088 61.6649 64.7119 64.4877C61.6264 67.3972 57.5176 69 53.1468 69ZM50.9447 66.6158C50.955 66.6171 50.9653 66.6184 50.9755 66.621C51.692 66.7413 52.4226 66.8021 53.1468 66.8021C56.9616 66.8021 60.5402 65.4101 63.2225 62.8822C64.9546 61.2496 66.2309 59.2392 66.9679 57.0322C66.5172 57.1874 66.037 57.2715 65.5401 57.2715C64.4795 57.2715 63.4882 56.8795 62.7153 56.2262C62.1709 57.6493 61.3106 58.9468 60.1832 60.0154C58.3047 61.7994 55.8419 62.7813 53.2482 62.7813C52.7423 62.7813 52.2326 62.7451 51.7318 62.6752C51.7267 62.6739 51.7203 62.6739 51.7151 62.6726C51.3479 62.6209 50.9871 62.551 50.6186 62.4592C49.5182 62.507 48.6425 63.4178 48.6425 64.5317C48.6425 65.2859 49.0405 65.9689 49.6877 66.3376C50.1075 66.4515 50.53 66.5446 50.9447 66.6158Z" fill="#FAFAFA"/>
<path d="M65.5413 57.2714C63.3893 57.2714 61.5185 55.6569 61.1911 53.5172C61.1783 53.4292 61.1744 53.3399 61.1821 53.252C61.2027 53.0256 61.2116 52.7927 61.2116 52.5611C61.2116 52.4447 61.2104 52.3283 61.2052 52.2131C61.2052 52.2079 61.2052 52.2041 61.2052 52.1989C61.0434 47.6891 57.9002 44.539 53.5589 44.539C53.4947 44.539 53.4292 44.5403 53.365 44.5416C52.8168 44.5597 52.3417 44.1599 52.2569 43.614C52.1709 43.0681 52.5009 42.5428 53.0273 42.3876C53.8966 42.1301 54.504 41.3112 54.504 40.3966C54.504 39.3707 53.7451 38.4871 52.7397 38.3435C52.185 38.2633 51.7806 37.7743 51.8037 37.2116C51.8255 36.6475 52.2685 36.1921 52.827 36.1572C53.2071 36.1339 53.591 36.121 53.9711 36.121C58.4086 36.121 62.434 37.7277 65.3077 40.645C68.1543 43.5351 69.7747 47.6089 69.8723 52.1161C69.8723 52.12 69.8723 52.1239 69.8723 52.1264C69.8749 52.2687 69.8762 52.4136 69.8762 52.5585C69.8762 52.9686 69.8608 53.3761 69.8312 53.7694C69.8261 53.8354 69.8158 53.9014 69.7978 53.9661C69.2907 55.9131 67.5393 57.2714 65.5413 57.2714ZM63.3688 53.2959C63.5807 54.3167 64.4949 55.0722 65.5413 55.0722C66.5185 55.0722 67.3775 54.4292 67.6625 53.4978C67.6831 53.1937 67.6933 52.8794 67.6933 52.5624C67.6933 52.4318 67.6921 52.3011 67.6895 52.1717C67.6895 52.1678 67.6895 52.1627 67.6895 52.1588C67.6022 48.2208 66.2065 44.6839 63.7578 42.1974C61.7574 40.165 59.1855 38.9011 56.231 38.4807C56.5237 39.0615 56.6868 39.7148 56.6868 40.4005C56.6868 41.209 56.4557 41.9814 56.0512 42.6411C60.2628 43.6826 63.2186 47.3553 63.3868 52.1316C63.3868 52.1329 63.3868 52.1355 63.3868 52.1368C63.3919 52.27 63.3945 52.4136 63.3945 52.5637C63.3958 52.8056 63.3868 53.0527 63.3688 53.2959Z" fill="#FAFAFA"/>
<path d="M39.3131 53.3916C39.091 53.3916 38.8688 53.3244 38.6775 53.1859C38.2384 52.869 38.0958 52.2765 38.3411 51.7913C38.4862 51.5067 38.5594 51.1975 38.5594 50.8741C38.5594 49.7577 37.658 48.8508 36.5499 48.8508C36.2353 48.8508 35.9361 48.922 35.6588 49.0604C35.1799 49.301 34.5995 49.1561 34.2862 48.7188C33.9729 48.2816 34.0217 47.68 34.3992 47.2984L34.7099 46.9853C39.3747 42.2763 44.1988 37.4081 51.1774 36.3344C51.7154 36.2503 52.2714 36.1908 52.8286 36.1585C52.9018 36.1546 52.975 36.1572 53.0469 36.1675C55.1206 36.4651 56.6858 38.284 56.6858 40.3979C56.6858 42.2815 55.4339 43.9671 53.6414 44.4988C53.5477 44.526 53.4514 44.5415 53.3551 44.5428C52.9827 44.5506 52.6039 44.5816 52.2277 44.6386C47.5719 45.3177 43.6415 49.3877 40.1734 52.9777L40.0938 53.0592C39.8832 53.2791 39.5994 53.3916 39.3131 53.3916ZM37.9097 46.8792C39.1269 47.301 40.0925 48.2725 40.5136 49.4976C43.6813 46.3359 47.455 43.1133 51.9118 42.4626C52.3214 42.4018 52.7362 42.363 53.1471 42.3487C53.9521 42.0538 54.503 41.2698 54.503 40.3979C54.503 39.4056 53.7942 38.5466 52.8376 38.3603C52.3895 38.3901 51.9427 38.4405 51.5087 38.5078C46.0169 39.3539 41.831 42.9943 37.9097 46.8792Z" fill="#FAFAFA"/>
<path d="M21.5216 68.0595C21.0991 68.0595 20.6998 67.8111 20.5213 67.401C20.2928 66.8771 20.5021 66.2638 21.0028 65.9922C21.6564 65.6364 22.0621 64.952 22.0621 64.2056C22.0621 63.0865 21.1595 62.1771 20.0488 62.1771C19.9949 62.1771 19.9461 62.1797 19.9037 62.1836C19.3516 62.2353 18.8508 61.8614 18.7365 61.3155C18.6223 60.7696 18.9317 60.2236 19.4569 60.0464C23.3449 58.7281 26.7205 55.2339 29.6982 52.1497L34.1562 47.5442C34.1588 47.5416 34.1627 47.5377 34.1652 47.5339L34.3989 47.2984C34.4824 47.2143 34.5787 47.1445 34.684 47.0914C35.2669 46.799 35.8935 46.6503 36.5496 46.6503C38.8609 46.6503 40.7419 48.5442 40.7419 50.8729C40.7419 51.5378 40.584 52.2015 40.2848 52.7914C40.236 52.8884 40.1731 52.9764 40.0987 53.054C40.019 53.1368 39.9407 53.2183 39.8611 53.2998L38.8082 54.3878C38.7992 54.3969 38.789 54.4072 38.78 54.4163L35.7202 57.578C35.7176 57.5819 35.7138 57.5845 35.7099 57.5884L35.1629 58.1395C31.2634 62.0749 27.2316 66.1448 21.876 67.9987C21.7591 68.0401 21.6384 68.0595 21.5216 68.0595ZM22.7401 60.9649C23.6582 61.7411 24.2437 62.9054 24.2437 64.2056C24.2437 64.3104 24.2398 64.4152 24.2321 64.5187C27.7233 62.5354 30.7087 59.5224 33.617 56.5871L34.1601 56.0398L37.243 52.8548C37.252 52.8457 37.261 52.8354 37.2713 52.8263L38.2972 51.7655C38.3319 51.7293 38.3665 51.6931 38.4012 51.6581C38.5052 51.411 38.5578 51.1484 38.5578 50.8742C38.5578 49.7577 37.6565 48.8508 36.5484 48.8508C36.2877 48.8508 36.0373 48.8987 35.8023 48.9944L35.7138 49.0837L31.2621 53.6827C28.7544 56.2792 25.9797 59.1512 22.7401 60.9649Z" fill="#FAFAFA"/>
<path d="M34.4924 21.5619C34.2035 21.5619 33.9248 21.4454 33.7207 21.2397L30.9857 18.4842C30.5594 18.0547 30.5594 17.3587 30.9857 16.9292C31.412 16.4997 32.1028 16.4997 32.5291 16.9292L34.4924 18.9072L38.3097 15.0611C38.736 14.6316 39.4268 14.6316 39.8531 15.0611C40.2794 15.4906 40.2794 16.1866 39.8531 16.6161L35.2641 21.2397C35.0599 21.4454 34.7826 21.5619 34.4924 21.5619Z" fill="#FAFAFA"/>
</svg>
