<svg width="57" height="64" viewBox="0 0 57 64" fill="none" xmlns="http://www.w3.org/2000/svg">
<path d="M42.4759 17.6931H14.4291C13.8755 17.6931 13.4258 17.2359 13.4258 16.6732V1.01995C13.4258 0.457177 13.8755 0 14.4291 0H42.4759C43.0295 0 43.4792 0.457177 43.4792 1.01995V16.6732C43.4792 17.2359 43.0306 17.6931 42.4759 17.6931ZM15.4325 15.6532H41.4725V2.0399H15.4325V15.6532Z" fill="white"/>
<path d="M42.5227 40.846H14.476C13.9224 40.846 13.4727 40.3888 13.4727 39.826V24.174C13.4727 23.6112 13.9224 23.1541 14.476 23.1541H42.5227C43.0764 23.1541 43.5261 23.6112 43.5261 24.174V39.826C43.5261 40.39 43.0764 40.846 42.5227 40.846ZM15.4794 38.8061H41.5194V25.194H15.4794V38.8061Z" fill="white"/>
<path d="M42.5227 64H14.476C13.9224 64 13.4727 63.5428 13.4727 62.9801V47.3281C13.4727 46.7653 13.9224 46.3081 14.476 46.3081H42.5227C43.0764 46.3081 43.5261 46.7653 43.5261 47.3281V62.9813C43.5261 63.544 43.0764 64 42.5227 64ZM15.4794 61.9601H41.5194V48.348H15.4794V61.9601Z" fill="white"/>
<path d="M14.4294 56.174H3.20247C1.43657 56.174 0 54.7137 0 52.9186V11.0827C0 9.28758 1.43657 7.82605 3.20247 7.82605H9.93911C10.4927 7.82605 10.9425 8.28323 10.9425 8.846C10.9425 9.40877 10.4927 9.86595 9.93911 9.86595H3.20247C2.5438 9.86595 2.00671 10.4119 2.00671 11.0827V52.9186C2.00671 53.5894 2.5438 54.1341 3.20247 54.1341H14.4294C14.983 54.1341 15.4328 54.5913 15.4328 55.1541C15.4328 55.7169 14.9842 56.174 14.4294 56.174Z" fill="white"/>
<path d="M6.4975 13.4345C6.24016 13.4345 5.98401 13.335 5.78806 13.1358C5.39617 12.7374 5.39617 12.0918 5.78806 11.6934L8.58919 8.84598L5.78806 5.99972C5.39617 5.60134 5.39617 4.95577 5.78806 4.55739C6.17996 4.15901 6.81503 4.15901 7.20693 4.55739L10.7175 8.12601C11.1094 8.52439 11.1094 9.16996 10.7175 9.56834L7.20693 13.137C7.01098 13.335 6.75483 13.4345 6.4975 13.4345Z" fill="white"/>
<path d="M14.4294 56.174H3.20247C1.43657 56.174 0 54.7137 0 52.9186V11.0827C0 9.28758 1.43657 7.82605 3.20247 7.82605H9.93911C10.4927 7.82605 10.9425 8.28323 10.9425 8.846C10.9425 9.40877 10.4927 9.86595 9.93911 9.86595H3.20247C2.5438 9.86595 2.00671 10.4119 2.00671 11.0827V52.9186C2.00671 53.5894 2.5438 54.1341 3.20247 54.1341H14.4294C14.983 54.1341 15.4328 54.5913 15.4328 55.1541C15.4328 55.7169 14.9842 56.174 14.4294 56.174Z" fill="white"/>
<path d="M6.4975 13.4345C6.24016 13.4345 5.98401 13.335 5.78806 13.1358C5.39617 12.7374 5.39617 12.0918 5.78806 11.6934L8.58919 8.84598L5.78806 5.99972C5.39617 5.60134 5.39617 4.95577 5.78806 4.55739C6.17996 4.15901 6.81503 4.15901 7.20693 4.55739L10.7175 8.12601C11.1094 8.52439 11.1094 9.16996 10.7175 9.56834L7.20693 13.137C7.01098 13.335 6.75483 13.4345 6.4975 13.4345Z" fill="white"/>
<path d="M53.7967 56.174H47.0601C46.5065 56.174 46.0567 55.7168 46.0567 55.154C46.0567 54.5913 46.5065 54.1341 47.0601 54.1341H53.7967C54.4566 54.1341 54.9925 53.5881 54.9925 52.9186V11.0826C54.9925 10.4119 54.4554 9.86711 53.7967 9.86711H42.5698C42.0161 9.86711 41.5664 9.40993 41.5664 8.84716C41.5664 8.28439 42.0161 7.82721 42.5698 7.82721H53.7967C55.5626 7.82721 56.9992 9.28754 56.9992 11.0826V52.9186C57.0004 54.7137 55.5626 56.174 53.7967 56.174Z" fill="white"/>
<path d="M50.5022 59.7426C50.2449 59.7426 49.9887 59.643 49.7928 59.4438L46.2822 55.8752C45.8903 55.4768 45.8903 54.8312 46.2822 54.4328L49.7928 50.8642C50.1847 50.4658 50.8197 50.4658 51.2116 50.8642C51.6035 51.2626 51.6035 51.9082 51.2116 52.3065L48.4105 55.154L51.2116 58.0015C51.6035 58.3998 51.6035 59.0454 51.2116 59.4438C51.0157 59.643 50.7584 59.7426 50.5022 59.7426Z" fill="white"/>
<path d="M21.6703 11.637C20.157 11.637 18.9258 10.3855 18.9258 8.84717C18.9258 7.30885 20.157 6.05731 21.6703 6.05731C23.1835 6.05731 24.4147 7.30885 24.4147 8.84717C24.4147 10.3855 23.1847 11.637 21.6703 11.637ZM21.6703 8.09601C21.263 8.09601 20.9325 8.43319 20.9325 8.84597C20.9325 9.25875 21.263 9.59594 21.6703 9.59594C22.0775 9.59594 22.408 9.25875 22.408 8.84597C22.408 8.43319 22.0775 8.09601 21.6703 8.09601Z" fill="white"/>
<path d="M28.5003 11.637C26.987 11.637 25.7559 10.3855 25.7559 8.84717C25.7559 7.30885 26.987 6.05731 28.5003 6.05731C30.0136 6.05731 31.2448 7.30885 31.2448 8.84717C31.2448 10.3855 30.0136 11.637 28.5003 11.637ZM28.5003 8.09601C28.0931 8.09601 27.7626 8.43319 27.7626 8.84597C27.7626 9.25875 28.0931 9.59594 28.5003 9.59594C28.9076 9.59594 29.2381 9.25875 29.2381 8.84597C29.2381 8.43319 28.9076 8.09601 28.5003 8.09601Z" fill="white"/>
<path d="M28.4535 57.9439C26.9402 57.9439 25.709 56.6923 25.709 55.154C25.709 53.6157 26.9402 52.3641 28.4535 52.3641C29.9667 52.3641 31.1979 53.6157 31.1979 55.154C31.1979 56.6923 29.9667 57.9439 28.4535 57.9439ZM28.4535 54.404C28.0462 54.404 27.7157 54.74 27.7157 55.154C27.7157 55.568 28.0462 55.904 28.4535 55.904C28.8607 55.904 29.1912 55.5668 29.1912 55.154C29.1912 54.7412 28.8607 54.404 28.4535 54.404Z" fill="white"/>
<path d="M35.3285 11.637C33.8152 11.637 32.584 10.3855 32.584 8.84717C32.584 7.30885 33.8152 6.05731 35.3285 6.05731C36.8418 6.05731 38.0729 7.30885 38.0729 8.84717C38.0729 10.3855 36.8418 11.637 35.3285 11.637ZM35.3285 8.09601C34.9212 8.09601 34.5907 8.43319 34.5907 8.84597C34.5907 9.25875 34.9212 9.59594 35.3285 9.59594C35.7357 9.59594 36.0662 9.25875 36.0662 8.84597C36.0662 8.43319 35.7357 8.09601 35.3285 8.09601Z" fill="white"/>
<path d="M25.0394 34.7898C23.5261 34.7898 22.2949 33.5383 22.2949 31.9999C22.2949 30.4616 23.5261 29.2101 25.0394 29.2101C26.5527 29.2101 27.7839 30.4616 27.7839 31.9999C27.7839 33.5383 26.5527 34.7898 25.0394 34.7898ZM25.0394 31.25C24.6321 31.25 24.3016 31.5872 24.3016 31.9999C24.3016 32.4127 24.6321 32.7499 25.0394 32.7499C25.4466 32.7499 25.7772 32.4127 25.7772 31.9999C25.7772 31.5872 25.4455 31.25 25.0394 31.25Z" fill="white"/>
<path d="M31.8675 34.7898C30.3542 34.7898 29.123 33.5383 29.123 31.9999C29.123 30.4616 30.3542 29.2101 31.8675 29.2101C33.3808 29.2101 34.612 30.4616 34.612 31.9999C34.612 33.5383 33.3808 34.7898 31.8675 34.7898ZM31.8675 31.25C31.4603 31.25 31.1298 31.5872 31.1298 31.9999C31.1298 32.4127 31.4603 32.7499 31.8675 32.7499C32.2748 32.7499 32.6053 32.4127 32.6053 31.9999C32.6053 31.5872 32.2748 31.25 31.8675 31.25Z" fill="white"/>
<path d="M28.5366 25.1939C27.9829 25.1939 27.5332 24.7367 27.5332 24.174V16.8351C27.5332 16.2724 27.9829 15.8152 28.5366 15.8152C29.0902 15.8152 29.5399 16.2724 29.5399 16.8351V24.174C29.5399 24.7367 29.0902 25.1939 28.5366 25.1939Z" fill="white"/>
<path d="M28.5366 48.1848C27.9829 48.1848 27.5332 47.7276 27.5332 47.1648V39.826C27.5332 39.2632 27.9829 38.806 28.5366 38.806C29.0902 38.806 29.5399 39.2632 29.5399 39.826V47.1648C29.5399 47.7288 29.0902 48.1848 28.5366 48.1848Z" fill="white"/>
</svg>
