<svg width="54" height="69" viewBox="0 0 54 69" fill="none" xmlns="http://www.w3.org/2000/svg">
<path d="M26.9992 39.9948C19.8374 39.9948 14.0117 34.1669 14.0117 27.0052C14.0117 19.8422 19.8387 14.0142 26.9992 14.0142C34.161 14.0142 39.988 19.8422 39.988 27.0052C39.988 34.1669 34.161 39.9948 26.9992 39.9948ZM26.9992 16.2134C21.0493 16.2134 16.2106 21.0543 16.2106 27.0052C16.2106 32.956 21.0506 37.7956 26.9992 37.7956C32.9477 37.7956 37.7891 32.9547 37.7891 27.0052C37.7891 21.0556 32.949 16.2134 26.9992 16.2134Z" fill="white"/>
<path d="M31.2923 54.0091H22.4231C21.8165 54.0091 21.3237 53.5162 21.3237 52.9094V48.9392C19.1792 48.3868 17.1446 47.5291 15.2536 46.379L12.4986 49.1345C12.2929 49.3402 12.0122 49.4567 11.7212 49.4567C11.4302 49.4567 11.1495 49.3402 10.9438 49.1345L4.67192 42.8616C4.2425 42.4321 4.2425 41.7361 4.67192 41.3066L7.48387 38.4942C6.34693 36.5731 5.51007 34.5291 4.98881 32.3972H1.09943C0.492802 32.3972 0 31.9043 0 31.2975V22.4269C0 21.8202 0.492802 21.3273 1.09943 21.3273H5.06771C5.62002 19.1824 6.47886 17.1475 7.62744 15.2561L4.8724 12.5006C4.44298 12.0712 4.44298 11.3752 4.8724 10.9457L11.1443 4.6727C11.35 4.46701 11.6306 4.35058 11.9217 4.35058C12.2127 4.35058 12.4934 4.46701 12.699 4.6727L15.511 7.48512C17.4317 6.348 19.4754 5.511 21.607 4.98965V1.09961C21.607 0.492885 22.0998 0 22.7064 0H31.5756C32.1822 0 32.675 0.492885 32.675 1.09961V5.06856C34.8195 5.62096 36.8541 6.47995 38.7451 7.62872L41.5002 4.87322C41.7058 4.66753 41.9865 4.5511 42.2775 4.5511C42.5685 4.5511 42.8492 4.66753 43.0549 4.87322L49.3268 11.1462C49.7562 11.5757 49.7562 12.2717 49.3268 12.7012L46.5148 15.5136C47.6518 17.4347 48.4886 19.4787 49.0099 21.6106H52.8993C53.5059 21.6106 53.9987 22.1035 53.9987 22.7102V31.5809C53.9987 32.1876 53.5059 32.6805 52.8993 32.6805H48.931C48.3787 34.8254 47.5198 36.8603 46.3713 38.7516L49.1263 41.5071C49.5557 41.9366 49.5557 42.6326 49.1263 43.0621L42.8544 49.3351C42.6487 49.5408 42.3681 49.6572 42.077 49.6572C41.786 49.6572 41.5053 49.5408 41.2997 49.3351L38.4877 46.5226C36.567 47.6598 34.5233 48.4968 32.3917 49.0181V52.9082C32.3917 53.5162 31.9002 54.0091 31.2923 54.0091ZM23.5226 51.8098H30.1929V48.1371C30.1929 47.6132 30.5615 47.163 31.075 47.0595C33.5416 46.5615 35.8905 45.6003 38.0557 44.2057C38.4903 43.925 39.0633 43.9871 39.4281 44.3532L42.0783 47.0039L46.7955 42.2859L44.1944 39.6843C43.8245 39.3144 43.7663 38.7348 44.056 38.2988C45.4633 36.1772 46.4502 33.8396 46.9882 31.3493C47.0982 30.8435 47.5457 30.4825 48.0631 30.4825H51.8011V23.8111H48.1291C47.6065 23.8111 47.1551 23.4424 47.0516 22.9289C46.5536 20.4618 45.5926 18.1125 44.1983 15.947C43.9176 15.5123 43.9797 14.9405 44.3444 14.5744L46.9947 11.9237L42.2788 7.20569L39.6777 9.80725C39.3078 10.1772 38.7283 10.2354 38.2924 9.94567C36.1712 8.53816 33.8339 7.55239 31.344 7.01294C30.8383 6.90298 30.4774 6.45537 30.4774 5.9379V2.19922H23.8071V5.87063C23.8071 6.39457 23.4385 6.84476 22.925 6.94825C20.4584 7.44631 18.1095 8.4075 15.9443 9.80207C15.5097 10.0828 14.9367 10.0207 14.5719 9.65459L11.9217 7.00518L7.20448 11.7232L9.8056 14.3247C10.1755 14.6947 10.2337 15.2743 9.944 15.7102C8.53673 17.8318 7.54983 20.1695 7.01176 22.6598C6.90182 23.1656 6.45429 23.5265 5.93691 23.5265H2.19886V30.1979H5.86965C6.3922 30.1979 6.84361 30.5666 6.94709 31.0802C7.44506 33.5472 8.40609 35.8965 9.80043 38.0621C10.0811 38.4968 10.019 39.0686 9.65427 39.4347L7.004 42.0854L11.7212 46.8034L14.3223 44.2018C14.6922 43.8318 15.2717 43.7736 15.7076 44.0634C17.8288 45.4709 20.1661 46.458 22.656 46.9961C23.1617 47.1061 23.5226 47.5537 23.5226 48.0712V51.8098Z" fill="white"/>
<path d="M49.5389 68.9995H4.4598C2.00096 68.9995 0 66.9982 0 64.5389C0 62.0797 2.00096 60.0784 4.4598 60.0784H49.5389C51.9977 60.0784 53.9987 62.0797 53.9987 64.5389C53.9987 66.9982 51.999 68.9995 49.5389 68.9995ZM4.4598 62.2776C3.21292 62.2776 2.19886 63.2918 2.19886 64.5389C2.19886 65.786 3.21292 66.8002 4.4598 66.8002H49.5389C50.7858 66.8002 51.7999 65.786 51.7999 64.5389C51.7999 63.2918 50.7858 62.2776 49.5389 62.2776H4.4598Z" fill="white"/>
<path d="M5.05536 69C4.93119 69 4.80313 68.978 4.67896 68.9327C4.10855 68.7245 3.81365 68.0945 4.02189 67.524L6.46909 60.8008C6.67734 60.2303 7.30724 59.9353 7.87765 60.1436C8.44806 60.3519 8.74297 60.9819 8.53472 61.5524L6.08752 68.2756C5.92584 68.7219 5.50418 69 5.05536 69Z" fill="white"/>
<path d="M10.235 69C10.1109 69 9.98282 68.978 9.85865 68.9327C9.28824 68.7245 8.99334 68.0945 9.20158 67.524L11.6488 60.8008C11.8557 60.2303 12.4869 59.9353 13.0573 60.1436C13.6277 60.3519 13.9227 60.9819 13.7144 61.5524L11.2672 68.2756C11.1055 68.7219 10.6839 69 10.235 69Z" fill="white"/>
<path d="M15.4167 69C15.2925 69 15.1645 68.978 15.0403 68.9327C14.4699 68.7245 14.175 68.0945 14.3832 67.524L16.8304 60.8008C17.0387 60.2303 17.6686 59.9353 18.239 60.1436C18.8094 60.3519 19.1043 60.9819 18.8961 61.5524L16.4489 68.2756C16.2872 68.7219 15.8655 69 15.4167 69Z" fill="white"/>
<path d="M20.5964 69C20.4722 69 20.3441 68.978 20.22 68.9327C19.6496 68.7245 19.3547 68.0945 19.5629 67.524L22.0101 60.8008C22.2183 60.2303 22.8483 59.9353 23.4187 60.1436C23.9891 60.3519 24.284 60.9819 24.0757 61.5524L21.6285 68.2756C21.4669 68.7219 21.0452 69 20.5964 69Z" fill="white"/>
<path d="M25.7761 69C25.6519 69 25.5238 68.978 25.3997 68.9327C24.8293 68.7245 24.5344 68.0945 24.7426 67.524L27.1898 60.8008C27.3967 60.2303 28.0279 59.9353 28.5984 60.1436C29.1688 60.3519 29.4637 60.9819 29.2554 61.5524L26.8082 68.2756C26.6478 68.7219 26.2262 69 25.7761 69Z" fill="white"/>
</svg>
