<svg width="68" height="64" viewBox="0 0 68 64" fill="none" xmlns="http://www.w3.org/2000/svg">
<g clip-path="url(#clip0_282_3010)">
<path d="M63.0535 59.2201H4.94698C4.34903 59.2201 3.86328 58.7359 3.86328 58.1399V20.0917C3.86328 17.4863 5.98987 15.3652 8.60477 15.3652H34.0002C34.5982 15.3652 35.0839 15.8494 35.0839 16.4454C35.0839 17.0415 34.5982 17.5257 34.0002 17.5257H8.60477C7.18576 17.5257 6.03067 18.6771 6.03067 20.0917V57.0596H61.9698V20.0917C61.9698 18.6771 60.8147 17.5257 59.3957 17.5257H54.2003C53.6024 17.5257 53.1166 17.0415 53.1166 16.4454C53.1166 15.8494 53.6024 15.3652 54.2003 15.3652H59.3957C62.0093 15.3652 64.1372 17.485 64.1372 20.0917V58.1399C64.1372 58.7359 63.6527 59.2201 63.0535 59.2201Z" fill="white"/>
<path d="M62.1213 64H5.87873C2.63784 64 0 61.3717 0 58.1398C0 57.5438 0.485751 57.0596 1.0837 57.0596H66.9163C67.5143 57.0596 68 57.5438 68 58.1398C68 61.3717 65.3634 64 62.1213 64ZM2.32931 59.2201C2.79466 60.735 4.20984 61.8394 5.88001 61.8394H62.1226C63.7927 61.8394 65.2079 60.735 65.6732 59.2201H2.32931Z" fill="white"/>
<path d="M33.3562 43.8143C33.1675 43.8143 32.9775 43.7647 32.808 43.6656L27.2913 40.4387C26.9369 40.2316 26.7303 39.8414 26.7584 39.4322C27.1727 33.459 30.4595 26.9837 31.4578 25.1409C34.0268 20.3979 37.5456 13.8998 44.6088 7.61392C45.8621 6.49807 47.9797 4.69085 50.0043 3.00945C50.9796 2.19989 51.8186 1.5136 52.4331 1.0243C52.7658 0.759957 53.031 0.554071 53.2197 0.414272C53.5486 0.17153 54.0446 -0.194489 54.668 0.121965C54.6884 0.132132 54.7088 0.14357 54.7292 0.155008L54.7445 0.163904C54.7611 0.174072 54.7777 0.184239 54.793 0.194406C55.3744 0.582031 55.2953 1.19333 55.243 1.59748C55.2124 1.83005 55.1614 2.16049 55.0926 2.57862C54.9638 3.35132 54.7713 4.41761 54.5367 5.66055C54.0497 8.24175 53.4976 10.9653 53.1305 12.5997C51.0625 21.8099 47.0834 28.0386 44.1779 32.5858C43.0495 34.3511 38.9787 40.3663 33.9478 43.6351C33.768 43.7558 33.5615 43.8143 33.3562 43.8143ZM28.9819 38.9226L33.3103 41.4555C34.9435 40.29 38.6268 37.2551 42.3496 31.4293C45.3266 26.7702 49.0303 20.9724 51.0153 12.132C51.5342 9.81893 52.2712 6.05834 52.7199 3.575C50.7616 5.17634 47.8255 7.64824 46.052 9.2267C39.2719 15.2609 35.9966 21.3091 33.3638 26.1691C30.072 32.2478 29.2075 36.9336 28.9819 38.9226ZM52.0735 12.3671H52.0748H52.0735Z" fill="white"/>
<path d="M45.6754 18.7902C45.0966 18.7902 44.5267 18.6377 44.0154 18.3377C43.2518 17.8904 42.7099 17.1711 42.4906 16.3119C42.2726 15.4566 42.4001 14.5657 42.8502 13.8019C43.3002 13.0381 44.018 12.4929 44.8735 12.2654C45.7328 12.0379 46.6278 12.1574 47.3915 12.6047C48.1552 13.0521 48.697 13.7714 48.9163 14.6305C49.1343 15.4858 49.0068 16.3767 48.5568 17.1406C48.1067 17.9044 47.3889 18.4496 46.5334 18.6771C46.2491 18.7533 45.961 18.7902 45.6754 18.7902ZM45.729 14.3141C45.6308 14.3141 45.5313 14.3268 45.4332 14.3535C45.1336 14.4335 44.8799 14.6254 44.7205 14.8961C44.5611 15.1656 44.5165 15.4795 44.593 15.7807C44.6682 16.0768 44.8531 16.3234 45.1144 16.4759C45.3745 16.6284 45.6818 16.669 45.9776 16.5903C46.2772 16.5102 46.5309 16.3183 46.6903 16.0476C46.8496 15.7781 46.8943 15.4642 46.8178 15.163C46.7425 14.8669 46.5577 14.6204 46.2963 14.4679C46.1204 14.3662 45.9266 14.3141 45.729 14.3141Z" fill="white"/>
<path d="M41.9192 25.1638C41.3404 25.1638 40.7705 25.0113 40.2593 24.7114C38.686 23.7913 38.1633 21.7565 39.094 20.1755C40.0247 18.5945 42.062 18.0582 43.6353 18.9784C45.2086 19.8985 45.7313 21.9332 44.8006 23.5142C44.3506 24.278 43.6328 24.8232 42.7773 25.0507C42.493 25.1257 42.2048 25.1638 41.9192 25.1638ZM41.9715 20.689C41.5737 20.689 41.1823 20.8974 40.963 21.2698C40.6379 21.8226 40.8139 22.5318 41.3557 22.8482C41.6158 23.0008 41.9231 23.0414 42.2189 22.9626C42.5185 22.8826 42.7722 22.6907 42.9315 22.42C43.2579 21.8671 43.0807 21.1579 42.5389 20.8415C42.3604 20.7373 42.1653 20.689 41.9715 20.689Z" fill="white"/>
<path d="M38.1653 31.5374C37.5865 31.5374 37.0166 31.3849 36.5054 31.0849C34.9321 30.1648 34.4094 28.1301 35.3401 26.5491C36.2708 24.9681 38.3081 24.4318 39.8814 25.3519C41.4547 26.272 41.9774 28.3067 41.0454 29.8877C40.5954 30.6515 39.8776 31.1968 39.0221 31.4243C38.7391 31.4992 38.4509 31.5374 38.1653 31.5374ZM38.2189 27.0613C37.8211 27.0613 37.4297 27.2697 37.2104 27.6421C36.8853 28.1949 37.0613 28.9041 37.6031 29.2205C37.8632 29.373 38.1704 29.4137 38.4662 29.3349C38.7658 29.2548 39.0196 29.0629 39.1789 28.7922C39.5053 28.2394 39.3281 27.5302 38.7862 27.2138C38.6078 27.1108 38.4127 27.0613 38.2189 27.0613Z" fill="white"/>
<path d="M51.9363 13.8629C51.7451 13.8629 51.5564 13.8134 51.3881 13.7142L44.4767 9.66896C44.1949 9.50374 44.0037 9.2216 43.954 8.90006C43.9043 8.57853 44.0037 8.2519 44.223 8.01043C44.3467 7.87445 44.4691 7.7499 44.5838 7.63933C45.7147 6.55907 47.7329 4.81412 49.9806 2.97004C50.9036 2.21259 51.7757 1.51359 52.4348 1.00269C52.7689 0.743424 53.0366 0.541351 53.2317 0.401552C53.5606 0.165165 54.0578 -0.190688 54.6724 0.121954C54.7093 0.141018 54.7463 0.162623 54.782 0.185499C55.3557 0.56804 55.2856 1.17426 55.2384 1.57459C55.2104 1.81225 55.1645 2.14396 55.1007 2.56081C54.9745 3.38308 54.7871 4.48241 54.5742 5.65546C54.0553 8.5099 53.5096 11.1178 53.1144 12.6289C53.0736 12.7827 53.0239 12.9492 52.9652 13.1245C52.8607 13.4334 52.6235 13.6786 52.3176 13.7918C52.1939 13.8401 52.0651 13.8629 51.9363 13.8629ZM46.8073 8.52769L51.2517 11.1292C51.7757 8.89879 52.3775 5.69867 52.7498 3.51145C51.0146 4.90181 48.5055 6.98482 46.8073 8.52769Z" fill="white"/>
<path d="M18.0014 41.3094C17.9772 41.3094 17.9529 41.3081 17.9287 41.3068C17.3805 41.27 16.9457 40.8302 16.919 40.2825C16.9037 39.9698 16.8947 39.8122 18.3342 37.5475C19.0621 36.4024 20.2313 34.6562 21.6681 32.8401C25.4062 28.1199 28.8995 25.4574 32.0512 24.9262C32.4655 24.8563 32.885 25.0317 33.1234 25.3773C33.3478 25.7014 33.3759 26.1183 33.2037 26.4678C33.1872 26.511 33.168 26.5542 33.1464 26.5949C29.5918 33.2785 29.0156 38.2236 28.9238 39.5797C28.8893 40.0804 28.5158 40.4909 28.0186 40.5722C27.8197 40.6053 27.0203 40.6612 24.1695 40.8531C21.8377 41.0107 18.644 41.2255 18.1557 41.2966C18.1047 41.3055 18.0524 41.3094 18.0014 41.3094ZM30.0687 27.9255C28.0887 29.0172 25.8856 31.0456 23.5754 33.9191C22.0506 35.8165 20.7999 37.6835 19.989 38.976C21.0459 38.8997 22.4267 38.8057 24.0242 38.6977C25.0288 38.6303 26.1164 38.5566 26.8482 38.5045C27.2128 35.392 28.3654 31.6187 30.0687 27.9255ZM33.2484 26.3165C33.2484 26.3165 33.2484 26.3178 33.2484 26.3165C33.2484 26.3178 33.2484 26.3165 33.2484 26.3165Z" fill="white"/>
<path d="M37.5185 52.736C37.1616 52.736 36.8135 52.5593 36.6082 52.2429C36.5674 52.1793 36.5317 52.112 36.505 52.0408C36.329 51.5807 34.961 48.6932 33.9627 46.5861C32.7439 44.0138 32.4048 43.2906 32.3372 43.1013C32.1676 42.6298 32.3448 42.1036 32.7669 41.8304C33.9105 41.0894 37.9622 38.1803 42.0879 31.8309C42.1147 31.7903 42.1427 31.7521 42.1746 31.7153C42.3977 31.4001 42.7764 31.2247 43.164 31.2616C43.5834 31.3022 43.943 31.5767 44.0832 31.9733C45.1529 34.9764 44.5205 39.314 42.2052 44.8678C41.314 47.0042 40.354 48.8724 39.7051 50.0633C38.4225 52.4182 38.2797 52.4881 37.9979 52.6267C37.8437 52.7004 37.6805 52.736 37.5185 52.736ZM34.7188 43.114C35.0286 43.7761 35.4939 44.7573 35.9223 45.6634C36.607 47.1084 37.1973 48.3564 37.6448 49.3147C38.383 47.979 39.4093 45.9799 40.3298 43.7291C41.722 40.3193 42.4271 37.4127 42.4194 35.1569C40.0136 38.4383 37.2699 41.2801 34.7188 43.114ZM42.2817 31.606C42.2804 31.606 42.2804 31.606 42.2817 31.606C42.2804 31.606 42.2804 31.606 42.2817 31.606Z" fill="white"/>
<path d="M25.5498 50.0708C25.3637 50.0708 25.175 50.0225 25.0016 49.9221C24.4853 49.6196 24.3131 48.9575 24.6166 48.4441L27.1524 44.1408C27.4559 43.6261 28.1201 43.4545 28.6352 43.757C29.1515 44.0594 29.3236 44.7216 29.0202 45.235L26.4844 49.5383C26.2842 49.8802 25.9221 50.0708 25.5498 50.0708Z" fill="white"/>
<path d="M21.8115 47.2978C21.4673 47.2978 21.1282 47.1338 20.9178 46.8301C20.5787 46.3382 20.7023 45.6659 21.1957 45.3279L24.6916 42.9259C25.185 42.5878 25.8595 42.7111 26.1986 43.2029C26.5377 43.6948 26.4141 44.3671 25.9207 44.7051L22.4248 47.1071C22.2374 47.2355 22.0232 47.2978 21.8115 47.2978Z" fill="white"/>
<path d="M29.8035 51.9772C29.769 51.9772 29.7346 51.9759 29.7002 51.9721C29.1048 51.9162 28.6675 51.3888 28.7236 50.794L29.1252 46.581C29.1813 45.9874 29.7104 45.5503 30.3071 45.6074C30.9025 45.6634 31.3398 46.1908 31.2837 46.7856L30.8821 50.9986C30.8272 51.5578 30.3555 51.9772 29.8035 51.9772Z" fill="white"/>
</g>
<defs>
<clipPath id="clip0_282_3010">
<rect width="68" height="64" fill="white"/>
</clipPath>
</defs>
</svg>
