<svg width="68" height="65" viewBox="0 0 68 65" fill="none" xmlns="http://www.w3.org/2000/svg">
<path d="M25.6085 61.3574H22.7444C21.5384 61.3574 20.3771 60.857 19.5578 59.9869C18.7385 59.1154 18.3211 57.9374 18.4132 56.7525C18.5054 55.5717 17.76 54.8336 17.0314 54.5367C16.3028 54.2398 15.2462 54.2425 14.4632 55.1415C13.6787 56.0432 12.537 56.5862 11.3324 56.6315C10.125 56.6769 8.947 56.2219 8.09418 55.382L6.06889 53.3875C5.21606 52.5476 4.75405 51.3861 4.80012 50.1985C4.84618 49.0122 5.39751 47.8878 6.31315 47.1153C7.22599 46.3441 7.22879 45.3036 6.9273 44.586C6.62581 43.8685 5.87487 43.1331 4.67729 43.2252C3.47551 43.3159 2.27793 42.9049 1.393 42.0981C0.508067 41.2898 0 40.1461 0 38.9585V36.1378C0 34.9502 0.508067 33.8066 1.3916 32.9997C2.27653 32.1928 3.47272 31.7832 4.67589 31.8725C5.87348 31.9646 6.62441 31.2292 6.9259 30.5117C7.22739 29.7941 7.2246 28.7522 6.31175 27.9824C5.39612 27.2099 4.84478 26.0855 4.79872 24.8992C4.75266 23.713 5.21466 22.5501 6.06749 21.7102L8.09278 19.7157C8.94561 18.8758 10.1264 18.4208 11.331 18.4662C12.5356 18.5115 13.6773 19.0545 14.4618 19.9562C15.2448 20.8552 16.3028 20.858 17.03 20.561C17.7586 20.2641 18.504 19.526 18.4118 18.3452C18.3197 17.1617 18.7371 15.9823 19.5564 15.1108C20.3757 14.2393 21.537 13.7404 22.743 13.7404H25.6071C26.8131 13.7404 27.9744 14.2407 28.7937 15.1108C29.613 15.9823 30.0304 17.1603 29.9383 18.3452C29.8461 19.526 30.5915 20.2641 31.3201 20.561C32.0487 20.858 33.1067 20.8552 33.8883 19.9562C34.6728 19.0545 35.8145 18.5115 37.0191 18.4662C38.2251 18.4208 39.4045 18.8758 40.2573 19.7157C40.6663 20.1184 40.6663 20.7714 40.2573 21.1741C39.8484 21.5769 39.1854 21.5769 38.7764 21.1741C38.3283 20.7329 37.7337 20.5033 37.1 20.5267C36.4664 20.5501 35.8913 20.825 35.4781 21.2992C34.2331 22.7301 32.286 23.1879 30.5189 22.4676C28.7518 21.7459 27.7036 20.0662 27.8502 18.1885C27.899 17.5658 27.6882 16.972 27.2583 16.5129C26.827 16.0552 26.2408 15.8022 25.6071 15.8022H22.743C22.1093 15.8022 21.5231 16.0538 21.0918 16.5129C20.6618 16.9706 20.4511 17.5658 20.4985 18.1885C20.6451 20.0676 19.5983 21.7473 17.8298 22.4676C16.0627 23.1893 14.1156 22.7301 12.8706 21.3006C12.4574 20.8263 11.8823 20.5528 11.2487 20.5281C10.615 20.5047 10.0204 20.7342 9.57231 21.1755L7.54703 23.17C7.09898 23.6113 6.86588 24.1982 6.88961 24.8209C6.91334 25.445 7.1925 26.0113 7.67404 26.4182C9.12706 27.6443 9.59186 29.5618 8.86046 31.3021C8.12767 33.0423 6.42062 34.0746 4.51537 33.9303C3.88308 33.8822 3.27871 34.0897 2.81391 34.5131C2.34911 34.9378 2.09229 35.5138 2.09229 36.1392V38.9599C2.09229 39.5839 2.34772 40.1613 2.81391 40.586C3.27871 41.0108 3.88308 41.2169 4.51537 41.1688C6.42481 41.0259 8.12907 42.0568 8.86046 43.797C9.59325 45.5373 9.12706 47.4548 7.67404 48.6809C7.1925 49.0878 6.91473 49.6541 6.88961 50.2782C6.86588 50.9023 7.09898 51.4878 7.54703 51.9291L9.57231 53.9236C10.0204 54.3648 10.6164 54.5944 11.2487 54.571C11.8823 54.5477 12.4574 54.2728 12.8706 53.7985C14.1156 52.3676 16.0627 51.9098 17.8298 52.6301C19.5969 53.3518 20.6451 55.0315 20.4985 56.9092C20.4497 57.5319 20.6605 58.1271 21.0918 58.5848C21.5217 59.0426 22.1079 59.2955 22.7416 59.2955H25.6057C26.2394 59.2955 26.8257 59.0439 27.2569 58.5848C27.6882 58.1271 27.8976 57.5319 27.8488 56.9092C27.8474 56.8831 27.846 56.857 27.846 56.8309V54.1875C27.846 53.6184 28.315 53.1566 28.8928 53.1566C29.4707 53.1566 29.9397 53.6184 29.9397 54.1875V56.7937C30.0192 57.9635 29.6019 59.125 28.7923 59.9855C27.9758 60.857 26.8145 61.3574 25.6085 61.3574ZM22.3242 46.2246C22.2447 46.2246 22.1623 46.2149 22.0814 46.1957C18.0001 45.2404 15.1499 41.6829 15.1499 37.5468C15.1499 32.645 19.1991 28.6574 24.1764 28.6574C24.7543 28.6574 25.2233 29.1192 25.2233 29.6883C25.2233 30.2574 24.7543 30.7192 24.1764 30.7192C20.3534 30.7192 17.2436 33.7818 17.2436 37.5468C17.2436 40.7248 19.4322 43.4561 22.5657 44.1902C23.1282 44.3221 23.4758 44.8775 23.3418 45.4314C23.2273 45.9057 22.7974 46.2246 22.3242 46.2246Z" fill="#474747"/>
<path d="M59.7667 31.0519C59.7235 31.0519 59.6816 31.0505 59.6383 31.0491C58.6989 31.0134 57.8084 30.59 57.1971 29.8876C56.8202 29.4546 56.8719 28.8044 57.3101 28.4333C57.7484 28.0622 58.41 28.113 58.7869 28.5446C59.0242 28.8168 59.355 28.9749 59.7193 28.9886C60.0836 29.001 60.4255 28.8704 60.6838 28.6161L62.1214 27.2003C62.3796 26.946 62.5136 26.6092 62.4997 26.2505C62.4857 25.8917 62.3252 25.5659 62.0488 25.3322C60.9168 24.3755 60.5525 22.8813 61.1248 21.5233C61.6957 20.1652 63.0259 19.361 64.5138 19.4737C64.8767 19.5012 65.2243 19.3816 65.4922 19.1383C65.7602 18.895 65.9068 18.5624 65.9068 18.2036V16.2009C65.9068 15.8421 65.7602 15.5094 65.4922 15.2661C65.2257 15.0228 64.8781 14.9033 64.5138 14.9307C63.0259 15.0435 61.6957 14.2393 61.1248 12.8812C60.5539 11.5231 60.9168 10.029 62.0488 9.07226C62.3252 8.83858 62.4857 8.5128 62.4997 8.15404C62.5136 7.79527 62.3796 7.4585 62.1214 7.2042L60.6838 5.78838C60.4255 5.53408 60.0836 5.40074 59.7193 5.41587C59.355 5.42961 59.0242 5.58769 58.7869 5.85986C57.8154 6.97602 56.2982 7.33341 54.9191 6.76983C53.5401 6.20763 52.7236 4.89765 52.838 3.43234C52.8659 3.07495 52.7445 2.73267 52.4975 2.46875C52.2504 2.20483 51.9126 2.0605 51.5483 2.0605H49.5147C49.1504 2.0605 48.8126 2.20483 48.5655 2.46875C48.3185 2.73267 48.197 3.07357 48.2249 3.43234C48.3394 4.89765 47.5229 6.20763 46.1438 6.76983C44.7662 7.33204 43.2476 6.97464 42.2761 5.85986C42.0388 5.58769 41.708 5.42961 41.3437 5.41587C40.9794 5.40074 40.6374 5.53408 40.3792 5.78838L38.9416 7.2042C38.6833 7.4585 38.5493 7.79527 38.5633 8.15404C38.5773 8.5128 38.7378 8.83858 39.0141 9.07226C40.1461 10.029 40.5104 11.5231 39.9382 12.8812C39.3673 14.2393 38.0385 15.0435 36.5492 14.9307C36.1863 14.9033 35.8387 15.0228 35.5707 15.2661C35.3027 15.5094 35.1562 15.8421 35.1562 16.2009C35.1562 16.7699 34.6872 17.2318 34.1093 17.2318C33.5315 17.2318 33.0625 16.7699 33.0625 16.2009C33.0625 15.2744 33.4575 14.3823 34.1484 13.7541C34.8379 13.1245 35.7717 12.8043 36.7097 12.8757C37.5765 12.9417 37.9198 12.2929 38.0036 12.0936C38.0873 11.8929 38.3107 11.1974 37.6505 10.6393C36.9372 10.0372 36.5059 9.16023 36.471 8.23514C36.4347 7.31004 36.7962 6.40282 37.4606 5.74851L38.8983 4.33269C39.5627 3.67839 40.4853 3.32237 41.4233 3.35811C42.3626 3.39385 43.2531 3.81722 43.8645 4.51964C44.4312 5.16981 45.1389 4.94988 45.3413 4.86741C45.545 4.78493 46.2025 4.44816 46.1355 3.59317C46.0629 2.66944 46.3881 1.75122 47.0274 1.0708C47.668 0.389008 48.5739 0 49.5133 0H51.5469C52.4877 0 53.3936 0.389008 54.0314 1.06943C54.6707 1.74847 54.9959 2.66807 54.9233 3.59179C54.8563 4.44678 55.5152 4.78356 55.7175 4.86603C55.9213 4.94851 56.6276 5.16844 57.1943 4.51826C57.807 3.81447 58.6962 3.3911 59.6355 3.35674C60.5763 3.32237 61.4961 3.67702 62.1605 4.33132L63.5982 5.74714C64.2626 6.40144 64.6241 7.30867 64.5878 8.23376C64.5515 9.15886 64.1216 10.0358 63.4083 10.6379C62.7481 11.196 62.9715 11.8929 63.0552 12.0922C63.1389 12.2929 63.4809 12.939 64.3491 12.8744C65.2857 12.8029 66.2195 13.1232 66.9104 13.7527C67.5999 14.3823 67.9963 15.2744 67.9963 16.1995V18.2023C67.9963 19.1287 67.6013 20.0208 66.9104 20.649C66.2208 21.2786 65.2871 21.5989 64.3491 21.5274C63.4823 21.4614 63.1389 22.1102 63.0552 22.3095C62.9715 22.5102 62.7481 23.2057 63.4083 23.7638C64.1216 24.3673 64.5529 25.2429 64.5878 26.168C64.6241 27.0931 64.2626 28.0003 63.5982 28.6546L62.1605 30.0704C61.5282 30.6986 60.6614 31.0519 59.7667 31.0519ZM50.5308 23.8133C46.8292 23.8133 43.8184 20.8483 43.8184 17.2029C43.8184 13.5575 46.8292 10.5926 50.5308 10.5926C54.2324 10.5926 57.2431 13.5575 57.2431 17.2029C57.2431 20.8483 54.2324 23.8133 50.5308 23.8133ZM50.5308 12.6544C47.9835 12.6544 45.9121 14.6943 45.9121 17.2029C45.9121 19.7115 47.9835 21.7514 50.5308 21.7514C53.0781 21.7514 55.1495 19.7115 55.1495 17.2029C55.1495 14.6943 53.0781 12.6544 50.5308 12.6544Z" fill="#474747"/>
<path d="M40.846 54.9435C32.1921 54.9435 25.1504 48.0101 25.1504 39.4863C25.1504 30.9625 32.1907 24.0291 40.846 24.0291C49.5013 24.0291 56.5417 30.9625 56.5417 39.4863C56.5417 48.0101 49.4999 54.9435 40.846 54.9435ZM40.846 26.091C33.3465 26.091 27.2441 32.1007 27.2441 39.4863C27.2441 46.872 33.3465 52.8816 40.846 52.8816C48.3456 52.8816 54.448 46.872 54.448 39.4863C54.448 32.1007 48.3456 26.091 40.846 26.091Z" fill="#474747"/>
<path d="M49.4348 35.6416C49.0733 35.6416 48.7215 35.4574 48.5275 35.1261C46.9461 32.4292 44.0024 30.755 40.8437 30.755C40.2659 30.755 39.7969 30.2931 39.7969 29.724C39.7969 29.1549 40.2659 28.6931 40.8437 28.6931C44.7463 28.6931 48.3865 30.7632 50.3407 34.0952C50.6296 34.5887 50.4579 35.2182 49.9582 35.5042C49.7935 35.5976 49.6134 35.6416 49.4348 35.6416Z" fill="#474747"/>
<path d="M50.7585 40.5173C50.1807 40.5173 49.7117 40.0554 49.7117 39.4863C49.7117 39.188 49.6963 38.887 49.6656 38.5928C49.607 38.0265 50.0257 37.5207 50.6022 37.4629C51.1773 37.4066 51.6909 37.8176 51.7495 38.3839C51.7872 38.7482 51.8054 39.1193 51.8054 39.4863C51.8054 40.0554 51.3364 40.5173 50.7585 40.5173Z" fill="#474747"/>
<path d="M65.7049 65C65.4369 65 65.169 64.8997 64.9652 64.6976L50.5704 50.5215C50.1614 50.1187 50.1614 49.4658 50.5704 49.0631C50.9794 48.6603 51.6424 48.6603 52.0513 49.0631L66.4461 63.2391C66.8551 63.6419 66.8551 64.2948 66.4461 64.6976C66.2409 64.8997 65.9729 65 65.7049 65Z" fill="#474747"/>
</svg>
