<svg width="67" height="61" viewBox="0 0 67 61" fill="none" xmlns="http://www.w3.org/2000/svg">
<g clip-path="url(#clip0_282_3074)">
<path d="M34.3402 53.6827H16.7916C16.2317 53.6827 15.7773 53.2315 15.7773 52.6755V1.00715C15.7773 0.451205 16.2317 0 16.7916 0H50.0563C50.6162 0 51.0706 0.451205 51.0706 1.00715V28.6327C51.0706 29.1887 50.6162 29.6399 50.0563 29.6399C49.4964 29.6399 49.042 29.1887 49.042 28.6327V2.01431H17.8059V51.6684H34.3402C34.9001 51.6684 35.3545 52.1196 35.3545 52.6755C35.3545 53.2315 34.9001 53.6827 34.3402 53.6827Z" fill="#474747"/>
<path d="M14.0705 57.4656C13.8974 57.4656 13.7243 57.4212 13.5701 57.3353C13.3361 57.2037 13.1644 56.9848 13.0927 56.727L0.0367339 9.87683C-0.112029 9.34102 0.20443 8.78642 0.744033 8.63736L12.3042 5.46146C12.8438 5.31375 13.4024 5.62798 13.5525 6.16379C13.7026 6.69959 13.3848 7.2542 12.8452 7.40326L2.26276 10.3106L14.7778 55.2203L27.1724 51.8147C27.712 51.667 28.2705 51.9813 28.4206 52.5171C28.5694 53.0529 28.253 53.6075 27.7134 53.7565L14.3409 57.4306C14.2517 57.4535 14.1611 57.4656 14.0705 57.4656Z" fill="#474747"/>
<path d="M58.2141 30.5893C58.1248 30.5893 58.0342 30.5772 57.9436 30.553C57.404 30.4053 57.0875 29.8494 57.2363 29.3136L62.5322 10.3106L54.1893 8.01829C53.6497 7.87058 53.3333 7.31463 53.482 6.77882C53.6308 6.24302 54.1907 5.92878 54.7303 6.0765L64.0509 8.63736C64.5906 8.78642 64.907 9.34102 64.7582 9.87683L59.1918 29.8507C59.0674 30.2979 58.659 30.5893 58.2141 30.5893Z" fill="#474747"/>
<path d="M52.3309 61C44.2422 61 37.6602 54.4656 37.6602 46.4325C37.6602 38.3995 44.2422 31.8664 52.3309 31.8664C60.4195 31.8664 67.0016 38.4008 67.0016 46.4339C67.0016 54.467 60.4195 61 52.3309 61ZM52.3309 33.8807C45.3607 33.8807 39.6887 39.5114 39.6887 46.4339C39.6887 53.3564 45.3593 58.9871 52.3309 58.9871C59.3011 58.9871 64.973 53.3564 64.973 46.4339C64.973 39.5114 59.3011 33.8807 52.3309 33.8807Z" fill="#474747"/>
<path d="M49.6277 52.5708C49.3681 52.5708 49.1084 52.4728 48.911 52.2754L45.8695 49.2553C45.4732 48.8618 45.4732 48.2239 45.8695 47.8305C46.2657 47.437 46.9081 47.437 47.3043 47.8305L49.6291 50.1389L59.4366 40.4004C59.8329 40.0069 60.4752 40.0069 60.8715 40.4004C61.2677 40.7938 61.2677 41.4317 60.8715 41.8252L50.3472 52.2754C50.1471 52.4714 49.8874 52.5708 49.6277 52.5708Z" fill="#474747"/>
<path d="M27.4417 11.1552H22.8639C22.304 11.1552 21.8496 10.704 21.8496 10.1481C21.8496 9.59214 22.304 9.14093 22.8639 9.14093H27.4417C28.0016 9.14093 28.456 9.59214 28.456 10.1481C28.456 10.704 28.0016 11.1552 27.4417 11.1552Z" fill="#474747"/>
<path d="M43.2376 16.6745H22.8639C22.304 16.6745 21.8496 16.2232 21.8496 15.6673C21.8496 15.1113 22.304 14.6601 22.8639 14.6601H43.2376C43.7975 14.6601 44.2519 15.1113 44.2519 15.6673C44.2519 16.2232 43.7975 16.6745 43.2376 16.6745Z" fill="#474747"/>
<path d="M43.2376 22.1923H22.8639C22.304 22.1923 21.8496 21.7411 21.8496 21.1851C21.8496 20.6292 22.304 20.178 22.8639 20.178H43.2376C43.7975 20.178 44.2519 20.6292 44.2519 21.1851C44.2519 21.7411 43.7975 22.1923 43.2376 22.1923Z" fill="#474747"/>
<path d="M43.2376 27.7102H22.8639C22.304 27.7102 21.8496 27.259 21.8496 26.703C21.8496 26.1471 22.304 25.6959 22.8639 25.6959H43.2376C43.7975 25.6959 44.2519 26.1471 44.2519 26.703C44.2519 27.259 43.7975 27.7102 43.2376 27.7102Z" fill="#474747"/>
<path d="M31.6341 44.2651H22.8639C22.304 44.2651 21.8496 43.8139 21.8496 43.258C21.8496 42.702 22.304 42.2508 22.8639 42.2508H31.6341C32.194 42.2508 32.6484 42.702 32.6484 43.258C32.6484 43.8139 32.194 44.2651 31.6341 44.2651Z" fill="#474747"/>
<path d="M27.4417 39.0131H22.8639C22.304 39.0131 21.8496 38.5619 21.8496 38.006C21.8496 37.45 22.304 36.9988 22.8639 36.9988H27.4417C28.0016 36.9988 28.456 37.45 28.456 38.006C28.456 38.5619 28.0016 39.0131 27.4417 39.0131Z" fill="#474747"/>
</g>
<defs>
<clipPath id="clip0_282_3074">
<rect width="67" height="61" fill="white"/>
</clipPath>
</defs>
</svg>
