<svg width="49" height="48" viewBox="0 0 49 48" fill="none" xmlns="http://www.w3.org/2000/svg">
<path d="M43.8367 37.4982C41.1787 37.4982 36.0582 37.5588 33.341 37.5944C33.8285 36.94 34.1094 36.1563 34.1481 35.3429C34.2019 33.9417 33.4306 32.3836 31.126 32.2071C28.8536 32.0288 25.3544 31.0109 22.5421 30.1891C20.2715 29.5259 18.478 29 17.6727 29C16.1661 29 10.5308 30.7078 8.52566 31.33V29.492C8.52518 29.3617 8.47288 29.2368 8.38015 29.1446C8.28742 29.0525 8.16178 29.0005 8.03064 29H1.49502C1.36388 29.0005 1.23824 29.0525 1.14551 29.1446C1.05277 29.2368 1.00047 29.3617 1 29.492V45.2048C1.00047 45.3352 1.05277 45.46 1.14551 45.5522C1.23824 45.6444 1.36388 45.6964 1.49502 45.6968H8.03064C8.16178 45.6964 8.28742 45.6444 8.38015 45.5522C8.47288 45.46 8.52518 45.3352 8.52566 45.2048V44.1922C11.1568 44.7734 21.857 47 31.2748 47C31.8129 47 32.3509 46.9911 32.889 46.9768C39.8838 46.7736 46.3405 43.8018 46.9521 43.4114C47.8632 42.8285 48.2345 41.5253 47.8489 40.2435C47.4543 38.9154 46.1952 37.4982 43.8367 37.4982ZM7.53383 44.7128H1.98824V29.9841H7.53383V44.7128ZM46.4086 42.5825C45.8186 42.9568 39.6327 45.7913 32.8513 45.9928C22.9223 46.2923 10.807 43.6966 8.52386 43.185V32.3604C10.9344 31.6081 16.3975 29.9841 17.6709 29.9841C18.3345 29.9841 20.2428 30.542 22.2623 31.1321C25.1176 31.9664 28.6724 33.0075 31.0506 33.1876C32.95 33.3338 33.1885 34.5763 33.1598 35.3054C33.115 36.4606 32.3366 37.5927 31.5797 37.623H31.5528C30.3763 37.623 27.234 37.2325 24.7069 36.9206C22.6264 36.6621 20.9835 36.4588 20.4473 36.4588C20.3799 36.4548 20.3124 36.4645 20.2489 36.4874C20.1854 36.5102 20.1273 36.5457 20.0782 36.5918C20.029 36.6378 19.9898 36.6933 19.9631 36.7549C19.9363 36.8165 19.9225 36.8829 19.9225 36.95C19.9225 37.0171 19.9363 37.0835 19.9631 37.1451C19.9898 37.2067 20.029 37.2622 20.0782 37.3082C20.1273 37.3542 20.1854 37.3897 20.2489 37.4126C20.3124 37.4354 20.3799 37.4452 20.4473 37.4411C20.9225 37.4411 22.7017 37.6622 24.585 37.8957C27.3075 38.2309 30.3458 38.6088 31.6048 38.6088C32.2487 38.5999 40.2694 38.4893 43.8367 38.4893C46.1181 38.4893 46.7566 40.0492 46.8965 40.527C47.1494 41.372 46.9431 42.2455 46.4086 42.5825Z" fill="#303B27" stroke="#303B27"/>
<path d="M5 40C4.60444 40 4.21777 40.1173 3.88887 40.3371C3.55997 40.5568 3.30362 40.8692 3.15225 41.2346C3.00087 41.6001 2.96126 42.0022 3.03843 42.3902C3.1156 42.7781 3.30609 43.1345 3.58579 43.4142C3.8655 43.6939 4.22186 43.8844 4.60982 43.9616C4.99778 44.0387 5.39991 43.9991 5.76536 43.8478C6.13081 43.6964 6.44319 43.44 6.66295 43.1111C6.88271 42.7822 7 42.3956 7 42C6.99946 41.4697 6.78857 40.9613 6.41362 40.5864C6.03866 40.2114 5.53027 40.0005 5 40ZM5 42.8846C4.82496 42.885 4.65373 42.8335 4.50799 42.7365C4.36225 42.6396 4.24856 42.5015 4.18129 42.3399C4.11403 42.1783 4.09621 42.0004 4.13012 41.8287C4.16402 41.6569 4.2481 41.4991 4.37174 41.3752C4.49537 41.2513 4.653 41.1668 4.82466 41.1325C4.99631 41.0982 5.17428 41.1156 5.33604 41.1825C5.4978 41.2494 5.63607 41.3628 5.73336 41.5083C5.83065 41.6538 5.88259 41.825 5.88259 42C5.88259 42.2343 5.78967 42.459 5.62422 42.6248C5.45876 42.7906 5.23427 42.8841 5 42.8846Z" fill="#303B27"/>
<path d="M35.2969 30.7894C35.3428 30.8438 35.3998 30.8884 35.4643 30.9206C35.5373 30.9545 35.6173 30.9722 35.6982 30.9723C35.6982 30.9723 35.7135 30.9723 35.723 30.9723C35.7746 30.9861 35.8275 30.9953 35.8809 31C37.6917 31 43.033 28.2802 45.5325 23.3893C47.0105 20.4995 47.1113 17.4582 46.9363 15.4146C46.7974 13.796 46.299 11.37 45.6276 11.0448C44.7088 10.6106 38.2338 13.3507 35.5613 18.5816C32.9515 23.6794 34.1518 29.738 35.2969 30.7894ZM36.501 19.0287C38.8635 14.4094 44.0126 12.2439 45.1311 12.0074C45.6162 13.0144 46.9553 18.3044 44.5928 22.9274C42.4243 27.1771 38.1901 29.3592 36.5733 29.8951L41.0167 21.2016C41.0711 21.0815 41.0758 20.9457 41.0297 20.8224C40.9837 20.699 40.8904 20.5977 40.7694 20.5394C40.6484 20.4811 40.509 20.4703 40.38 20.5094C40.2511 20.5484 40.1425 20.6342 40.077 20.7489L35.6564 29.3962C35.0648 27.7314 34.3648 23.2027 36.501 19.0324V19.0287Z" fill="#303B27" stroke="#303B27"/>
<path d="M27.5009 15C28.4802 15 31 11.672 31 8C31 4.38977 28.2843 1 27.5009 1C26.7174 1 24 4.38977 24 8C24 11.672 26.5198 15 27.5009 15ZM27.5009 2.06879C28.1467 2.67196 30.0277 5.09171 30.0277 8C30.0277 10.4691 28.7925 12.5362 27.9861 13.485V8C27.9901 7.93373 27.9805 7.86734 27.9579 7.80492C27.9353 7.7425 27.9001 7.68537 27.8546 7.63703C27.809 7.58869 27.7541 7.55017 27.6931 7.52385C27.6321 7.49752 27.5664 7.48394 27.5 7.48394C27.4336 7.48394 27.3679 7.49752 27.3069 7.52385C27.2459 7.55017 27.1909 7.58869 27.1454 7.63703C27.0999 7.68537 27.0647 7.7425 27.0421 7.80492C27.0195 7.86734 27.0099 7.93373 27.0139 8V13.485C26.2145 12.5362 24.9723 10.4691 24.9723 8C24.9723 5.09347 26.8533 2.67196 27.5009 2.06879Z" fill="#303B27" stroke="#303B27"/>
<path d="M19.6061 24C19.6409 23.9949 19.6755 23.9877 19.7095 23.9785C19.7095 23.9785 19.7268 23.9785 19.7354 23.9785C19.8122 23.9784 19.8878 23.9594 19.9561 23.923C20.0136 23.8912 20.0641 23.8473 20.1044 23.7942C20.9529 22.8581 21.7548 17.9933 19.7268 13.9609C18.0023 10.5369 14.5705 8.66297 13.0012 8.15108C12.3994 7.95599 12.1631 7.9721 11.9872 8.07412C11.2733 8.46072 10.0696 13.7676 12.2166 18.0363C14.1549 21.9077 18.1972 24 19.6061 24ZM12.4546 9.02273C13.4048 9.24288 17.1107 10.9056 18.8835 14.4244C20.4493 17.5369 20.1217 20.9609 19.7285 22.4142L16.3899 15.7775C16.3627 15.7172 16.3239 15.6632 16.2761 15.6187C16.2282 15.5743 16.1721 15.5404 16.1113 15.519C16.0505 15.4977 15.9861 15.4893 15.9221 15.4945C15.858 15.4996 15.7957 15.5182 15.7388 15.549C15.6818 15.5798 15.6315 15.6223 15.5907 15.6738C15.55 15.7253 15.5198 15.7849 15.5018 15.8489C15.4839 15.9129 15.4786 15.98 15.4863 16.0462C15.494 16.1123 15.5145 16.1762 15.5466 16.2339L18.8818 22.8563C17.5125 22.3641 14.6223 20.6996 13.053 17.5781C11.2819 14.0718 12.0873 9.95523 12.4546 9.02273Z" fill="#303B27" stroke="#303B27"/>
<path d="M37.1668 8.848C37.2147 8.89617 37.2717 8.9344 37.3344 8.96049C37.3972 8.98657 37.4645 9 37.5324 9C37.6004 9 37.6677 8.98657 37.7305 8.96049C37.7932 8.9344 37.8502 8.89617 37.8981 8.848L39.0083 7.73836L40.1185 8.848C40.1662 8.89612 40.223 8.9343 40.2856 8.96036C40.3482 8.98643 40.4154 8.99984 40.4832 8.99984C40.551 8.99984 40.6182 8.98643 40.6808 8.96036C40.7434 8.9343 40.8002 8.89612 40.8479 8.848C40.8961 8.8001 40.9344 8.74315 40.9605 8.68042C40.9866 8.6177 41 8.55043 41 8.4825C41 8.41456 40.9866 8.3473 40.9605 8.28457C40.9344 8.22184 40.8961 8.16489 40.8479 8.11699L39.7396 7.00735L40.8479 5.89771C40.896 5.84984 40.9341 5.79298 40.9601 5.73038C40.9861 5.66778 40.9996 5.60066 40.9997 5.53287C40.9998 5.46508 40.9865 5.39793 40.9606 5.33526C40.9347 5.2726 40.8968 5.21564 40.8489 5.16764C40.801 5.11964 40.7441 5.08154 40.6814 5.05552C40.6188 5.02949 40.5517 5.01606 40.4838 5.01597C40.416 5.01588 40.3488 5.02915 40.2862 5.05501C40.2235 5.08087 40.1665 5.11883 40.1185 5.1667L39.0083 6.27634L37.8981 5.1667C37.8509 5.11545 37.7937 5.07427 37.7301 5.04564C37.6666 5.01701 37.5978 5.00152 37.5281 5.00011C37.4584 4.99869 37.3891 5.01137 37.3244 5.03739C37.2597 5.06341 37.2009 5.10223 37.1516 5.15152C37.1023 5.20081 37.0634 5.25956 37.0374 5.32423C37.0114 5.3889 36.9987 5.45816 37.0001 5.52785C37.0015 5.59755 37.017 5.66624 37.0457 5.72979C37.0743 5.79335 37.1155 5.85047 37.1668 5.89771L38.2751 7.00735L37.1668 8.11699C37.1186 8.16489 37.0803 8.22184 37.0542 8.28457C37.0281 8.3473 37.0147 8.41456 37.0147 8.4825C37.0147 8.55043 37.0281 8.6177 37.0542 8.68042C37.0803 8.74315 37.1186 8.8001 37.1668 8.848Z" fill="#303B27" stroke="#303B27"/>
<path d="M16.1425 5.84762C16.2396 5.94519 16.3713 6 16.5086 6C16.6458 6 16.7775 5.94519 16.8747 5.84762L17.9861 4.72944L19.0975 5.84762C19.147 5.89658 19.2057 5.93515 19.2702 5.96109C19.3346 5.98704 19.4036 5.99983 19.473 5.99872C19.5762 6.0005 19.6775 5.97123 19.7641 5.91466C19.8506 5.8581 19.9184 5.77682 19.9588 5.68124C19.9991 5.58566 20.0102 5.48014 19.9905 5.37821C19.9709 5.27627 19.9214 5.18256 19.8485 5.10909L18.7389 3.99281L19.8485 2.87464C19.9391 2.77568 19.9882 2.64527 19.9855 2.51071C19.9828 2.37615 19.9285 2.24786 19.8339 2.15269C19.7393 2.05752 19.6118 2.00285 19.478 2.00011C19.3443 1.99737 19.2146 2.04678 19.1163 2.138L18.0049 3.25617L16.8934 2.138C16.7951 2.04678 16.6654 1.99737 16.5317 2.00011C16.3979 2.00285 16.2705 2.05752 16.1759 2.15269C16.0813 2.24786 16.0269 2.37615 16.0242 2.51071C16.0215 2.64527 16.0706 2.77568 16.1613 2.87464L17.2727 3.99281L16.1613 5.10909C16.0616 5.20463 16.0037 5.33602 16.0002 5.47445C15.9967 5.61289 16.0478 5.74708 16.1425 5.84762Z" fill="#303B27" stroke="#303B27"/>
</svg>
