<svg width="47" height="46" viewBox="0 0 47 46" fill="none" xmlns="http://www.w3.org/2000/svg">
<path d="M23.6084 44.9089C36.0751 44.9089 46.2169 35.0301 46.2169 22.8869C46.2169 10.7436 36.0751 0.864807 23.6084 0.864807C11.1418 0.864807 1 10.7436 1 22.8869C1 35.0301 11.1418 44.9089 23.6084 44.9089ZM4.99642 33.615C5.04242 33.6345 5.09125 33.647 5.14117 33.652C5.2244 33.6516 5.3062 33.6308 5.37899 33.5915L16.0637 27.5786C18.2971 29.9449 20.6555 32.1962 23.1293 34.3234V43.6852C23.1316 43.7872 23.1693 43.8854 23.2362 43.9638C19.6595 43.9097 16.1533 42.9865 13.0358 41.278C13.0975 41.2664 13.1562 41.2425 13.2081 41.2079C13.26 41.1732 13.304 41.1285 13.3374 41.0766L17.5957 33.892C17.6313 33.8393 17.6555 33.7801 17.6667 33.718C17.678 33.6559 17.6761 33.5922 17.6612 33.5308C17.6463 33.4694 17.6187 33.4116 17.5801 33.361C17.5414 33.3104 17.4926 33.268 17.4366 33.2364C17.3805 33.2048 17.3184 33.1847 17.2541 33.1773C17.1898 33.1699 17.1246 33.1754 17.0626 33.1934C17.0005 33.2114 16.9429 33.2415 16.8932 33.282C16.8435 33.3225 16.8029 33.3724 16.7737 33.4287L12.5136 40.6133C12.4564 40.7128 12.4392 40.8294 12.4653 40.9406C9.39334 39.1353 6.82657 36.6189 4.99297 33.615H4.99642ZM8.28971 22.2993H2.32007C2.25504 22.3 2.19086 22.3138 2.13155 22.3398C2.07224 22.3658 2.01907 22.4035 1.9754 22.4504C2.04426 18.956 3.00995 15.5339 4.78444 12.4961C4.81837 12.6073 4.89405 12.702 4.99642 12.7613L10.9523 16.1186C10.6989 17.8358 11.0488 19.8771 12.0156 22.1164C12.6101 23.4895 13.9112 25.1883 15.4191 26.882L4.9068 32.7959C4.84771 32.8297 4.79701 32.8759 4.75829 32.931C4.71957 32.9861 4.69378 33.0489 4.68277 33.1148C2.92516 30.0396 1.99109 26.5827 1.96679 23.0631C2.01011 23.1156 2.06495 23.1579 2.12729 23.1869C2.18963 23.216 2.25787 23.231 2.32697 23.231H8.29316C8.41931 23.231 8.54028 23.1822 8.62948 23.0953C8.71868 23.0084 8.76879 22.8905 8.76879 22.7677C8.76879 22.6448 8.71868 22.527 8.62948 22.4401C8.54028 22.3532 8.41931 22.3044 8.29316 22.3044L8.28971 22.2993ZM34.3121 13.8457C35.7597 15.6083 35.7648 18.415 34.3224 21.7487C34.2261 21.9706 34.118 22.1875 33.9984 22.3984C33.9486 22.4345 33.9068 22.48 33.8754 22.5322C33.8441 22.5844 33.8238 22.6422 33.8158 22.7022C31.7202 26.1971 26.0073 31.4546 23.6102 33.5076C20.9821 31.2683 14.3679 25.1732 12.891 21.7571C11.4503 18.4234 11.4538 15.6184 12.9014 13.8541C13.8096 12.7496 15.2675 12.1301 16.865 12.1301C17.2343 12.1306 17.6029 12.1632 17.9662 12.2275C20.4048 12.6522 22.3452 14.3258 23.1552 16.7044C23.2845 17.0821 23.929 17.0821 24.0582 16.7044C24.8665 14.3275 26.8052 12.6522 29.2438 12.2275C31.2618 11.8666 33.2023 12.4911 34.3155 13.8457H34.3121ZM34.9084 40.8483C34.9221 40.7502 34.904 40.6505 34.8566 40.5629L32.7628 37.0327C32.6985 36.9276 32.5945 36.8512 32.4731 36.8198C32.3517 36.7885 32.2224 36.8046 32.1131 36.8649C32.0042 36.9266 31.9248 37.0279 31.8925 37.1466C31.8602 37.2652 31.8776 37.3915 31.9408 37.4977L34.0381 41.0363C34.0961 41.1266 34.1853 41.1939 34.2897 41.226C31.1451 42.973 27.5986 43.9182 23.979 43.9739C24.0466 43.8959 24.0843 43.7974 24.0858 43.6953V34.3251C25.2025 33.3683 32.0752 27.389 34.5981 23.2259H45.0192C45.0997 23.2246 45.1783 23.202 45.2466 23.1605C45.2093 26.5853 44.3105 29.949 42.6289 32.957C42.5937 32.8749 42.5336 32.8052 42.4566 32.7572L33.2901 27.6038C33.1814 27.5489 33.055 27.5371 32.9375 27.5707C32.8199 27.6043 32.7202 27.6808 32.6591 27.7842C32.598 27.8876 32.5803 28.01 32.6095 28.1259C32.6388 28.2418 32.7128 28.3422 32.8162 28.4062L41.9809 33.5596C42.053 33.5994 42.1342 33.6208 42.217 33.6217C40.4173 36.5703 37.9106 39.0499 34.9118 40.8483H34.9084ZM42.0809 11.9354C42.0101 11.9382 41.941 11.9572 41.8792 11.9908L37.9483 14.2033C37.8577 14.2543 37.7868 14.333 37.7468 14.4272C37.7067 14.5214 37.6997 14.6259 37.7268 14.7244C37.7539 14.8229 37.8136 14.9099 37.8966 14.972C37.9797 15.0341 38.0814 15.0677 38.1861 15.0678C38.269 15.067 38.3503 15.0456 38.4222 15.0057L42.3583 12.7932C42.4258 12.7517 42.481 12.6939 42.5186 12.6253C44.2248 15.6021 45.1589 18.9397 45.2397 22.348C45.1734 22.3133 45.0996 22.2943 45.0243 22.2926H35.1048C35.1341 22.2305 35.1755 22.1634 35.203 22.1013C36.7851 18.4418 36.7334 15.3011 35.0566 13.2615C34.1001 12.0966 32.6439 11.3899 31.0291 11.2321L34.6929 5.05469C34.7311 4.98558 34.7506 4.9082 34.7498 4.82975C37.7448 6.59044 40.2605 9.02769 42.0843 11.9354H42.0809ZM12.6273 4.73407C12.6167 4.82626 12.6353 4.91943 12.6808 5.00097L13.7148 6.73668C13.7568 6.80724 13.8171 6.86579 13.8897 6.90645C13.9623 6.94711 14.0446 6.96845 14.1284 6.96833C14.2112 6.96735 14.2924 6.94599 14.3645 6.90623C14.4734 6.8445 14.5527 6.74319 14.585 6.62453C14.6174 6.50588 14.6 6.37958 14.5368 6.27338L13.5028 4.53767C13.4499 4.45239 13.3692 4.3868 13.2736 4.35134C16.334 2.73042 19.753 1.85824 23.2362 1.80988C23.1693 1.88835 23.1316 1.98656 23.1293 2.08854V9.70619C23.1293 9.82907 23.1795 9.94691 23.2687 10.0338C23.3579 10.1207 23.4788 10.1695 23.605 10.1695C23.7311 10.1695 23.8521 10.1207 23.9413 10.0338C24.0305 9.94691 24.0806 9.82907 24.0806 9.70619V2.08854C24.0792 1.98641 24.0414 1.88793 23.9738 1.80988C27.5047 1.86148 30.9683 2.75911 34.0587 4.42352C33.9794 4.4605 33.9124 4.51872 33.8657 4.59138L30.0434 11.0441C30.0134 11.0959 29.9941 11.1529 29.9865 11.2119C29.6813 11.2266 29.3774 11.2602 29.0766 11.3126C27.903 11.5158 26.7956 11.9868 25.8448 12.687C24.8941 13.3873 24.1271 14.2969 23.6067 15.3414C23.0856 14.2967 22.318 13.3871 21.3667 12.6868C20.4154 11.9866 19.3074 11.5157 18.1334 11.3126C15.7759 10.8997 13.4804 11.6484 12.1551 13.2733C11.7016 13.836 11.3645 14.479 11.1625 15.1668L5.4755 11.964C5.37721 11.9115 5.26298 11.8949 5.15323 11.917C7.00644 8.96401 9.5737 6.49791 12.6308 4.73407H12.6273Z" fill="#303B27" stroke="#303B27"/>
</svg>
