<svg width="49" height="48" viewBox="0 0 49 48" fill="none" xmlns="http://www.w3.org/2000/svg">
<path d="M41.1946 34.4564C43.4717 31.2192 44.6884 27.3897 44.6854 23.4698C44.6791 21.2618 44.2905 19.0705 43.5359 16.9876H47.1876C47.3171 16.9876 47.4412 16.9377 47.5327 16.8488C47.6243 16.76 47.6757 16.6395 47.6757 16.5138V1.41401C47.6757 1.28835 47.6243 1.16784 47.5327 1.07899C47.4412 0.990135 47.3171 0.940223 47.1876 0.940223H31.6383C31.509 0.940676 31.3851 0.990736 31.2937 1.07949C31.2023 1.16825 31.1507 1.28849 31.1502 1.41401V4.95894C26.5827 3.40956 21.5953 3.49418 17.0863 5.19755C16.4787 4.03484 15.5961 3.02839 14.5106 2.26065C13.4251 1.49292 12.1677 0.985725 10.8414 0.780627C9.51506 0.575528 8.15757 0.678353 6.88008 1.08069C5.60259 1.48302 4.44146 2.17342 3.49179 3.09532C2.54212 4.01722 1.83093 5.1444 1.41648 6.38453C1.00203 7.62467 0.896101 8.94247 1.10738 10.23C1.31865 11.5175 1.84112 12.7382 2.63199 13.7919C3.42285 14.8457 4.45961 15.7025 5.65735 16.2924C3.78413 20.8896 3.78034 26.0061 5.64674 30.6059C5.6152 30.6288 5.58721 30.656 5.56362 30.6866L1.06488 38.24C1.02237 38.3118 1 38.3932 1 38.476C1 38.5588 1.02237 38.6402 1.06488 38.712L5.56362 46.2654C5.60618 46.3376 5.66772 46.3976 5.74198 46.4392C5.81623 46.4809 5.90052 46.5026 5.98626 46.5023H14.9572C15.0429 46.5023 15.127 46.4804 15.2012 46.4388C15.2754 46.3972 15.337 46.3374 15.3799 46.2654L17.8998 42.0252C20.0116 42.728 22.228 43.0893 24.4605 43.0947C26.8572 43.0917 29.234 42.6707 31.4774 41.8518L29.136 45.8002C29.0937 45.8721 29.0715 45.9537 29.0717 46.0366C29.0719 46.1195 29.0945 46.2009 29.1373 46.2727C29.1801 46.3444 29.2415 46.404 29.3155 46.4455C29.3894 46.487 29.4733 46.509 29.5587 46.5091H47.513C47.5984 46.509 47.6823 46.487 47.7562 46.4455C47.8302 46.404 47.8916 46.3444 47.9344 46.2727C47.9771 46.2009 47.9998 46.1195 48 46.0366C48.0002 45.9537 47.978 45.8721 47.9356 45.8002L41.1946 34.4564ZM32.1264 1.8861H46.7013V16.0349H32.1264V1.8861ZM1.97383 8.9622C1.97383 7.28438 2.56718 5.6574 3.65466 4.35332C4.74214 3.04924 6.25784 2.14711 7.94832 1.79775C9.6388 1.44839 11.4016 1.673 12.9419 2.43401C14.4823 3.19502 15.7068 4.4463 16.4108 5.97864C16.8489 6.91622 17.0739 7.9344 17.0704 8.96392C17.0667 10.9049 16.2699 12.7651 14.855 14.1364C13.44 15.5078 11.5224 16.2782 9.52301 16.2786C8.46539 16.2814 7.41956 16.063 6.45665 15.6383C5.12453 15.0654 3.99209 14.1298 3.19646 12.9449C2.40083 11.76 1.97614 10.3766 1.97383 8.9622V8.9622ZM14.6761 45.5461H6.26744L2.04986 38.47L6.26744 31.3973H14.6761L18.8795 38.47L18.4604 39.1755L14.6761 45.5461ZM18.3896 41.1892L19.8609 38.7069C19.9034 38.6351 19.9258 38.5537 19.9258 38.4709C19.9258 38.388 19.9034 38.3066 19.8609 38.2348L15.3763 30.6815C15.3332 30.6097 15.2716 30.5501 15.1974 30.5085C15.1233 30.467 15.0393 30.4449 14.9537 30.4446H6.60696C4.78826 26.0335 4.75793 21.1174 6.52208 16.6855C6.55745 16.6975 6.59635 16.7027 6.63172 16.7147C7.04675 16.8615 7.47307 16.9763 7.90672 17.058C7.97922 17.0717 8.05173 17.0803 8.12423 17.0923C9.46055 17.32 10.8337 17.2322 12.1277 16.8362C13.4216 16.4402 14.5984 15.7477 15.5587 14.8173C16.5189 13.8868 17.2344 12.7456 17.6446 11.4902C18.0549 10.2348 18.1478 8.90197 17.9157 7.60431C17.9033 7.53221 17.8945 7.46183 17.8821 7.39145C17.798 6.96878 17.6798 6.55321 17.5284 6.14858C17.5143 6.11253 17.5108 6.07477 17.4966 6.04043C21.8852 4.39958 26.7389 4.3648 31.152 5.94258V16.5087C31.1525 16.6342 31.204 16.7544 31.2955 16.8432C31.3869 16.932 31.5108 16.982 31.6401 16.9825H42.5226C43.309 19.0583 43.7113 21.2528 43.711 23.4646C43.7187 27.0423 42.6579 30.5455 40.657 33.55L38.9594 30.6866C38.9133 30.619 38.8506 30.5635 38.777 30.5251C38.7034 30.4867 38.6212 30.4666 38.5376 30.4666C38.4541 30.4666 38.3718 30.4867 38.2982 30.5251C38.2246 30.5635 38.162 30.619 38.1159 30.6866L32.2608 40.5403C27.8794 42.4144 22.9381 42.6456 18.3914 41.1892H18.3896ZM30.4004 45.5461L33.0141 41.148L38.5208 31.878L40.1972 34.6813L46.6606 45.5409L30.4004 45.5461Z" fill="#303B27" stroke="#303B27"/>
</svg>
