<svg width="48" height="47" viewBox="0 0 48 47" fill="none" xmlns="http://www.w3.org/2000/svg">
<path d="M32.4149 15.6608V13.7879C32.4139 13.0476 32.1269 12.3379 31.6168 11.8144C31.1067 11.291 30.4151 10.9965 29.6937 10.9955H29.3661C28.6607 10.9962 27.9834 11.2796 27.4786 11.7852C27.3175 11.2043 26.9768 10.6929 26.5079 10.3278C26.0391 9.96281 25.4673 9.76395 24.8788 9.7612H24.5598C23.971 9.76377 23.3989 9.96278 22.93 10.3282C22.461 10.6936 22.1205 11.2056 21.96 11.787C21.4553 11.2826 20.7788 10.9999 20.0742 10.9991H19.7414C19.1201 11.0004 18.5178 11.2197 18.0345 11.6205C17.5513 12.0213 17.2161 12.5796 17.0844 13.2028C16.5873 12.7302 15.9352 12.4668 15.2576 12.4646H14.9265C14.2051 12.4651 13.5133 12.7592 13.0029 13.2823C12.4924 13.8054 12.205 14.5149 12.2036 15.2552V32.0628C12.202 33.517 12.6431 34.9354 13.4654 36.1198L14.0252 36.929C14.3674 37.4527 14.6287 38.0274 14.8 38.6329H14.0166C13.89 38.6329 13.7686 38.6844 13.6789 38.7761C13.5893 38.8677 13.5387 38.9921 13.5382 39.122V45.4111C13.5387 45.5411 13.5892 45.6657 13.6788 45.7577C13.7684 45.8496 13.8898 45.9015 14.0166 45.902H32.9816C33.1084 45.9015 33.2298 45.8496 33.3194 45.7577C33.409 45.6657 33.4595 45.5411 33.46 45.4111V39.1291C33.4595 38.9993 33.4089 38.8749 33.3193 38.7832C33.2296 38.6915 33.1082 38.64 32.9816 38.64H31.9954V37.7667C31.9976 35.9869 32.6009 34.2628 33.7026 32.8881C34.954 31.3336 35.6092 29.5746 35.6092 27.8031V19.9098C35.6068 18.9395 35.2925 17.9971 34.7149 17.2289C34.1373 16.4606 33.3288 15.9094 32.4149 15.6608ZM27.6017 13.7879C27.6021 13.3077 27.7881 12.8472 28.1188 12.5075C28.4496 12.1678 28.8981 11.9765 29.3661 11.9755H29.6937C30.1618 11.976 30.6105 12.1672 30.9414 12.507C31.2722 12.8468 31.4581 13.3075 31.4581 13.7879V15.5114C31.4078 15.5114 31.361 15.4953 31.3108 15.4953H27.6017V13.7879ZM22.7937 19.3531V12.5536C22.7941 12.0732 22.9804 11.6127 23.3116 11.2732C23.6427 10.9337 24.0917 10.743 24.5598 10.743H24.8788C25.3458 10.7449 25.7932 10.9363 26.1231 11.2756C26.4531 11.6148 26.6388 12.0743 26.6397 12.5536V15.4953H23.2998C23.2334 15.4953 23.1678 15.5095 23.1071 15.5369C23.0464 15.5643 22.9919 15.6044 22.9471 15.6545C22.9022 15.7047 22.8681 15.7639 22.8467 15.8284C22.8254 15.8928 22.8174 15.9611 22.8231 16.0289C22.9705 17.7115 23.9636 20.8009 26.6362 21.0765V23.1984C26.6353 23.6783 26.4491 24.1383 26.1184 24.4776C25.7877 24.817 25.3395 25.008 24.8718 25.009H24.5598C24.092 25.0085 23.6435 24.8176 23.3127 24.4782C22.9819 24.1387 22.7959 23.6784 22.7954 23.1984L22.7937 19.3531ZM17.9736 15.2463V13.7826C17.9729 13.5441 18.0181 13.3079 18.1065 13.0874C18.195 12.8669 18.3249 12.6664 18.489 12.4976C18.6531 12.3287 18.848 12.1947 19.0626 12.1033C19.2772 12.0119 19.5073 11.9649 19.7397 11.9649H20.0725C20.5405 11.9649 20.9892 12.1556 21.3201 12.4952C21.651 12.8347 21.8369 13.2953 21.8369 13.7755V23.1913C21.8365 23.6713 21.6504 24.1316 21.3196 24.471C20.9888 24.8105 20.5403 25.0014 20.0725 25.0019H19.7397C19.2729 25.0014 18.8253 24.8115 18.4944 24.4737C18.1635 24.1358 17.9763 23.6774 17.9736 23.1984V15.2463ZM13.1569 15.2463C13.1578 14.7661 13.3442 14.3059 13.6753 13.9665C14.0064 13.6271 14.4551 13.4362 14.923 13.4357H15.2541C15.7218 13.4367 16.17 13.6277 16.5007 13.9671C16.8314 14.3064 17.0176 14.7664 17.0185 15.2463V23.1984C17.0176 23.6783 16.8314 24.1383 16.5007 24.4776C16.17 24.817 15.7218 25.008 15.2541 25.009H14.923C14.8065 25.0091 14.6903 24.9966 14.5764 24.9716C14.1841 24.8898 13.8304 24.674 13.5729 24.3594C13.3154 24.0448 13.1694 23.65 13.1586 23.2393L13.1569 15.2463ZM32.5015 39.6129V44.9202H14.4932V39.62L32.5015 39.6129ZM34.6542 27.796C34.6542 29.338 34.0701 30.8801 32.9625 32.2585C31.7189 33.808 31.0377 35.7523 31.0352 37.7596V38.6436H15.8244C15.6155 37.8335 15.2699 37.0672 14.8035 36.3794L14.2419 35.5684C13.5355 34.5494 13.1568 33.3294 13.1586 32.0788V25.3202C13.2089 25.3647 13.2678 25.3985 13.3215 25.4394C13.3753 25.4803 13.4238 25.5212 13.4793 25.5568C13.5683 25.6124 13.6603 25.6629 13.7549 25.708C13.812 25.7364 13.8658 25.7684 13.9282 25.7916C14.0351 25.8337 14.1445 25.8688 14.2558 25.8965C14.3095 25.9107 14.3598 25.9303 14.4135 25.941C14.5847 25.9761 14.7589 25.994 14.9335 25.9943H15.2645C15.4731 25.9922 15.6807 25.9654 15.8833 25.9143C15.9457 25.9 16.0046 25.8751 16.0653 25.8556C16.1989 25.8144 16.3293 25.7627 16.4552 25.7008C16.5194 25.6688 16.58 25.6333 16.6407 25.5959C16.7566 25.5248 16.8672 25.4452 16.9717 25.3576C17.022 25.3149 17.074 25.2758 17.1226 25.2295C17.2499 25.1087 17.366 24.9759 17.4692 24.8329C17.4831 24.8151 17.5004 24.8009 17.5143 24.7813C17.5264 24.8009 17.5455 24.8151 17.5576 24.8329C17.6608 24.9759 17.7769 25.1087 17.9042 25.2295C17.9528 25.2758 18.0047 25.3149 18.055 25.3576C18.1598 25.4448 18.2704 25.5244 18.386 25.5959C18.4467 25.6333 18.5091 25.6688 18.5715 25.7008C18.6974 25.7627 18.8278 25.8144 18.9615 25.8556C19.0221 25.8751 19.0811 25.9 19.1348 25.9143C19.3374 25.9653 19.545 25.9921 19.7536 25.9943H20.0864C20.3354 25.6194 20.6699 25.3126 21.0607 25.1006C21.4516 24.8886 21.887 24.7778 22.3291 24.7778C22.7713 24.7778 23.2067 24.8886 23.5976 25.1006C23.9885 25.3126 24.323 25.6194 24.572 25.9943H24.8909C25.1398 25.6187 25.4744 25.3112 25.8656 25.0987C26.2569 24.8862 26.6928 24.7751 27.1354 24.7751C27.5781 24.7751 28.014 24.8862 28.4052 25.0987C28.7964 25.3112 29.1311 25.6187 29.38 25.9943H29.7075C29.8629 25.9906 30.0178 25.9734 30.1703 25.9427V27.5524C29.1768 27.6705 28.26 28.1588 27.5942 28.9247C26.9283 29.6906 26.5597 30.6807 26.5583 31.7071C26.5583 31.8373 26.6086 31.9622 26.6984 32.0542C26.7881 32.1463 26.9098 32.198 27.0366 32.198C27.1635 32.198 27.2852 32.1463 27.3749 32.0542C27.4646 31.9622 27.515 31.8373 27.515 31.7071C27.515 30.858 27.8437 30.0437 28.4288 29.4433C29.0138 28.843 29.8074 28.5057 30.6348 28.5057C30.7614 28.5057 30.8828 28.4542 30.9725 28.3625C31.0621 28.2708 31.1127 28.1464 31.1132 28.0166V20.5999C31.1124 20.4695 31.0613 20.3448 30.9711 20.2531C30.9271 20.2073 30.8748 20.1711 30.817 20.1463C30.7593 20.1216 30.6974 20.1089 30.6348 20.109L27.0661 20.1232H27.0332C24.78 20.1232 24.0624 17.6083 23.8544 16.4771H31.3073C32.1942 16.4781 33.0445 16.84 33.6717 17.4836C34.2988 18.1271 34.6515 18.9997 34.6524 19.9098L34.6542 27.796ZM27.5965 21.0961L30.1547 21.0854V24.9485C30.004 24.9921 29.8485 25.0154 29.6919 25.0179H29.3643C28.8965 25.0174 28.448 24.8265 28.1172 24.487C27.7864 24.1476 27.6004 23.6873 27.5999 23.2073L27.5965 21.0961Z" fill="#303B27" stroke="#303B27"/>
<path d="M16.8211 43.7659C17.1088 43.7659 17.3899 43.6784 17.629 43.5144C17.8682 43.3504 18.0545 43.1174 18.1646 42.8447C18.2747 42.572 18.3035 42.272 18.2474 41.9825C18.1913 41.6931 18.0528 41.4272 17.8494 41.2185C17.646 41.0098 17.3869 40.8677 17.1048 40.8101C16.8227 40.7525 16.5304 40.7821 16.2647 40.895C15.9989 41.008 15.7718 41.1992 15.612 41.4446C15.4522 41.69 15.3669 41.9785 15.3669 42.2737C15.3679 42.6691 15.5213 43.0481 15.7939 43.3278C16.0664 43.6074 16.4358 43.7649 16.8211 43.7659ZM16.8211 41.7614C16.9199 41.7614 17.0163 41.7915 17.0984 41.8478C17.1805 41.904 17.2445 41.984 17.2823 42.0776C17.3201 42.1712 17.33 42.2742 17.3107 42.3736C17.2914 42.473 17.2439 42.5642 17.1741 42.6359C17.1043 42.7075 17.0153 42.7563 16.9185 42.776C16.8217 42.7958 16.7213 42.7857 16.6301 42.7469C16.5389 42.7081 16.4609 42.6425 16.4061 42.5582C16.3512 42.474 16.322 42.375 16.322 42.2737C16.3217 42.2063 16.3345 42.1396 16.3595 42.0774C16.3845 42.0151 16.4212 41.9585 16.4676 41.9109C16.514 41.8633 16.5692 41.8256 16.6298 41.7999C16.6905 41.7743 16.7555 41.7612 16.8211 41.7614Z" fill="#303B27" stroke="#303B27"/>
<path d="M23.9342 2.80332C24.0611 2.80332 24.1827 2.7516 24.2725 2.65954C24.3622 2.56749 24.4126 2.44263 24.4126 2.31243V1.18126C24.4126 1.05106 24.3622 0.926205 24.2725 0.834146C24.1827 0.742086 24.0611 0.690369 23.9342 0.690369C23.8073 0.690369 23.6857 0.742086 23.596 0.834146C23.5062 0.926205 23.4558 1.05106 23.4558 1.18126V2.31243C23.4558 2.44263 23.5062 2.56749 23.596 2.65954C23.6857 2.7516 23.8073 2.80332 23.9342 2.80332Z" fill="#303B27" stroke="#303B27"/>
<path d="M23.9342 6.49927C24.0609 6.4988 24.1823 6.44693 24.2719 6.35498C24.3616 6.26302 24.4121 6.13843 24.4126 6.00838V4.87898C24.4126 4.74879 24.3622 4.62393 24.2725 4.53187C24.1827 4.43981 24.0611 4.38809 23.9342 4.38809C23.8073 4.38809 23.6857 4.43981 23.596 4.53187C23.5062 4.62393 23.4558 4.74879 23.4558 4.87898V6.00838C23.4563 6.13843 23.5069 6.26302 23.5965 6.35498C23.6861 6.44693 23.8075 6.4988 23.9342 6.49927Z" fill="#303B27" stroke="#303B27"/>
<path d="M37.1158 4.33111C37.0058 4.26729 36.8759 4.25016 36.7538 4.2834C36.6316 4.31664 36.527 4.3976 36.4623 4.50897L35.9129 5.48719C35.8493 5.59971 35.8319 5.73353 35.8644 5.85925C35.8969 5.98497 35.9767 6.09231 36.0862 6.15771C36.1593 6.19992 36.2416 6.22255 36.3254 6.22352C36.4093 6.22315 36.4917 6.20032 36.5643 6.15727C36.637 6.11422 36.6974 6.05245 36.7397 5.97807L37.2891 4.99985C37.3205 4.94427 37.341 4.88288 37.3493 4.81918C37.3576 4.75548 37.3536 4.69073 37.3375 4.62862C37.3214 4.56652 37.2935 4.50828 37.2555 4.45723C37.2175 4.40618 37.17 4.36332 37.1158 4.33111Z" fill="#303B27" stroke="#303B27"/>
<path d="M34.2855 9.35927C34.3397 9.39205 34.3997 9.41345 34.462 9.42225C34.5243 9.43104 34.5877 9.42706 34.6484 9.41051C34.7092 9.39396 34.7662 9.36519 34.816 9.32586C34.8659 9.28654 34.9077 9.23744 34.9389 9.18142L35.4901 8.2032C35.5259 8.14736 35.5502 8.08461 35.5615 8.0188C35.5728 7.95299 35.571 7.8855 35.556 7.82046C35.541 7.75542 35.5132 7.69421 35.4743 7.64057C35.4355 7.58693 35.3864 7.542 35.33 7.50853C35.2736 7.47506 35.2112 7.45376 35.1465 7.44592C35.0819 7.43809 35.0163 7.44388 34.9539 7.46296C34.8915 7.48204 34.8335 7.514 34.7835 7.55687C34.7336 7.59975 34.6927 7.65264 34.6633 7.71231L34.1122 8.69053C34.0805 8.74605 34.0598 8.80745 34.0514 8.8712C34.043 8.93495 34.047 8.99978 34.0631 9.06195C34.0792 9.12412 34.1071 9.1824 34.1453 9.23343C34.1835 9.28446 34.2311 9.32723 34.2855 9.35927Z" fill="#303B27" stroke="#303B27"/>
<path d="M46.7593 14.2468C46.6946 14.1354 46.59 14.0544 46.4679 14.0212C46.3458 13.988 46.2159 14.0051 46.1059 14.0689L45.1526 14.6327C45.0974 14.6645 45.0489 14.7072 45.0099 14.7584C44.971 14.8096 44.9422 14.8682 44.9255 14.9309C44.9087 14.9935 44.9043 15.0589 44.9124 15.1234C44.9204 15.1878 44.9409 15.2499 44.9725 15.3062C45.0042 15.3625 45.0464 15.4117 45.0968 15.4511C45.1471 15.4905 45.2046 15.5192 45.2658 15.5357C45.3271 15.5521 45.3909 15.5559 45.4536 15.5468C45.5163 15.5378 45.5766 15.516 45.631 15.4829L46.5843 14.9191C46.6389 14.8868 46.6868 14.8438 46.7251 14.7926C46.7635 14.7413 46.7917 14.6827 46.808 14.6202C46.8242 14.5578 46.8283 14.4926 46.8199 14.4285C46.8116 14.3644 46.791 14.3027 46.7593 14.2468Z" fill="#303B27" stroke="#303B27"/>
<path d="M42.9861 15.9151L42.0328 16.4825C41.9234 16.5476 41.8437 16.6546 41.8112 16.78C41.7787 16.9054 41.7961 17.039 41.8595 17.1512C41.9229 17.2635 42.0272 17.3453 42.1495 17.3787C42.2717 17.412 42.4018 17.3942 42.5112 17.3291L43.4645 16.7635C43.5665 16.6946 43.639 16.5883 43.6671 16.4663C43.6952 16.3444 43.6768 16.216 43.6156 16.1075C43.5545 15.9991 43.4552 15.9187 43.3381 15.8829C43.2211 15.8471 43.0952 15.8587 42.9861 15.9151Z" fill="#303B27" stroke="#303B27"/>
<path d="M2.6883 14.5828L1.73502 14.019C1.6805 13.9834 1.61952 13.9596 1.55577 13.9489C1.49202 13.9381 1.42681 13.9408 1.36408 13.9566C1.30136 13.9724 1.24238 14.0011 1.19076 14.041C1.13914 14.0808 1.09595 14.131 1.06373 14.1885C1.03152 14.2459 1.01097 14.3095 1.00335 14.3753C0.995722 14.4412 1.00115 14.5079 1.01934 14.5715C1.03753 14.6351 1.0681 14.6943 1.10918 14.7454C1.15026 14.7966 1.20102 14.8387 1.25838 14.8692L2.21166 15.433C2.28465 15.4754 2.36694 15.498 2.45082 15.4988C2.53468 15.4982 2.61698 15.4753 2.68961 15.4323C2.76223 15.3893 2.82271 15.3276 2.86509 15.2533C2.89642 15.1974 2.91668 15.1357 2.92476 15.0717C2.93283 15.0077 2.92856 14.9428 2.91215 14.8805C2.89573 14.8182 2.86749 14.7599 2.82908 14.7088C2.79067 14.6577 2.74284 14.6149 2.6883 14.5828Z" fill="#303B27" stroke="#303B27"/>
<path d="M5.80817 16.4326L4.85489 15.867C4.8006 15.8349 4.74069 15.8141 4.67856 15.8057C4.61643 15.7974 4.55327 15.8017 4.49275 15.8183C4.43224 15.835 4.37555 15.8638 4.32586 15.9029C4.27617 15.9421 4.23449 15.991 4.20319 16.0467C4.17189 16.1024 4.15158 16.1638 4.14344 16.2276C4.1353 16.2914 4.1395 16.3561 4.15576 16.4182C4.17201 16.4803 4.20001 16.5385 4.23819 16.5895C4.27636 16.6405 4.32396 16.6833 4.37825 16.7154L5.33153 17.281C5.40412 17.3244 5.48667 17.3471 5.57069 17.3468C5.67601 17.3472 5.77849 17.3118 5.86212 17.2461C5.94575 17.1804 6.00582 17.0881 6.03294 16.9837C6.06007 16.8792 6.05271 16.7685 6.01204 16.6688C5.97137 16.5691 5.8997 16.4861 5.80817 16.4326Z" fill="#303B27" stroke="#303B27"/>
<path d="M11.3998 4.48229C11.3364 4.36932 11.2318 4.28683 11.1091 4.25298C10.9864 4.21912 10.8556 4.23667 10.7455 4.30177C10.6354 4.36686 10.555 4.47417 10.522 4.60009C10.4891 4.726 10.5062 4.86021 10.5696 4.97318L11.1208 5.95318C11.1518 6.00982 11.1934 6.05959 11.2433 6.0996C11.2931 6.13961 11.3502 6.16905 11.4113 6.18624C11.4723 6.20343 11.5361 6.20801 11.5989 6.19972C11.6617 6.19144 11.7222 6.17044 11.7771 6.13796C11.8319 6.10548 11.8799 6.06215 11.9183 6.01049C11.9567 5.95884 11.9847 5.89988 12.0007 5.83703C12.0167 5.77418 12.0204 5.7087 12.0116 5.64437C12.0028 5.58004 11.9816 5.51816 11.9493 5.46229L11.3998 4.48229Z" fill="#303B27" stroke="#303B27"/>
<path d="M12.9214 9.15464C12.9851 9.26707 13.0897 9.34894 13.2122 9.38229C13.3347 9.41564 13.4651 9.39773 13.5748 9.33249C13.6844 9.26709 13.7641 9.15975 13.7966 9.03403C13.8291 8.90831 13.8117 8.77449 13.7481 8.66197L13.1969 7.68197C13.1655 7.62603 13.1237 7.57699 13.0738 7.53764C13.0239 7.4983 12.967 7.46942 12.9062 7.45265C12.8455 7.43589 12.7821 7.43157 12.7197 7.43994C12.6573 7.44831 12.5972 7.46921 12.5426 7.50144C12.4881 7.53368 12.4403 7.57661 12.402 7.6278C12.3636 7.67898 12.3355 7.73742 12.3192 7.79976C12.3028 7.86211 12.2986 7.92715 12.3068 7.99116C12.3149 8.05518 12.3353 8.11692 12.3667 8.17286L12.9214 9.15464Z" fill="#303B27" stroke="#303B27"/>
</svg>
