<svg width="26" height="27" viewBox="0 0 26 27" fill="none" xmlns="http://www.w3.org/2000/svg">
<path d="M1.33907 1.04477C2.94093 0.93007 4.57237 1.03603 6.18814 1.35971C6.76226 1.47455 7.19048 1.96679 7.21802 2.53729C7.31123 2.51693 7.50054 2.45097 7.84063 2.24271C8.17573 2.03754 8.57822 1.99472 8.94492 2.12528C10.5734 2.70482 12.174 3.50448 13.702 4.50214C14.3513 4.92606 14.682 5.71073 14.5249 6.45472C14.5015 6.56561 14.498 6.63177 14.4994 6.6681C14.5644 6.67376 14.7259 6.6679 15.0723 6.56234C15.7043 6.36971 16.4039 6.52948 16.8978 6.97933C18.3259 8.27996 19.5814 9.71101 20.6293 11.2327C20.9535 11.7035 20.9347 12.3389 20.5834 12.7779C20.3835 13.0278 20.2902 13.2558 20.3273 13.4036C20.3688 13.5686 20.585 13.6917 20.7591 13.7659C20.8803 13.8176 20.9841 13.8341 21.0766 13.8162C21.6634 13.703 22.2624 14.0243 22.5011 14.5803C23.4285 16.7405 23.7287 18.7275 23.3692 20.3263C23.2989 20.6393 23.1921 20.9396 23.0521 21.2224C23.5971 22.2543 24.0686 23.3191 24.543 24.3844C24.7978 24.9566 24.5359 25.6445 23.9652 25.9013C23.3943 26.1582 22.7022 25.8952 22.4456 25.3247C22.3546 25.1225 21.3724 22.8276 21.3152 22.8477C21.2449 22.8723 21.1741 22.8949 21.1027 22.9133C20.428 23.087 19.7501 23.1736 19.0704 23.1736C17.5578 23.1736 16.0375 22.7442 14.5297 21.8887C14.0658 21.6255 13.7698 21.1394 13.7574 20.6201C13.7539 20.476 13.7083 20.4375 13.6933 20.4248C13.6108 20.3549 13.4119 20.3346 13.1614 20.3705C12.7218 20.4334 12.2775 20.2972 11.9425 19.9967C10.9008 19.0627 9.85381 17.9105 8.83047 16.5723C8.42661 16.0442 8.42964 15.3241 8.83789 14.7806C8.98145 14.5894 9.02197 14.3808 8.94106 14.249C8.84111 14.0863 8.56089 14.028 8.1916 14.0932C7.58633 14.2 6.98775 13.9343 6.66641 13.4161C5.80772 12.0315 4.96119 10.5029 4.1503 8.87278C3.94444 8.45897 3.99512 7.96951 4.28258 7.59544C4.40152 7.44066 4.39434 7.37489 4.39415 7.3744C4.38419 7.34793 4.26734 7.23343 3.87789 7.15662C3.4961 7.08138 3.17276 6.82445 3.013 6.46932C1.74161 3.64335 1.02672 1.55277 1.01837 1.52826C0.941612 1.30258 1.10299 1.06166 1.33907 1.04477ZM3.68116 6.16834C3.74376 6.30746 3.87032 6.40809 4.01973 6.43753C4.59639 6.55121 4.95303 6.77938 5.07984 7.11561C5.15416 7.31283 5.17701 7.63348 4.86358 8.04134C4.7481 8.19158 4.72618 8.38504 4.8063 8.54608C5.60703 10.1558 6.44234 11.6643 7.28906 13.0296C7.45161 13.2917 7.75615 13.4259 8.06441 13.3714C9.03984 13.1993 9.43896 13.6594 9.56543 13.8653C9.80845 14.261 9.7541 14.7801 9.42373 15.22C9.21484 15.4982 9.2103 15.8626 9.41245 16.1269C10.4081 17.4289 11.4239 18.5473 12.4316 19.4509C12.6049 19.6063 12.8331 19.6771 13.0577 19.6449C13.5393 19.5759 13.9124 19.65 14.1666 19.8652C14.3088 19.9855 14.4804 20.2111 14.4898 20.6021C14.4961 20.8655 14.6499 21.1142 14.8913 21.2512C16.9058 22.3943 18.9342 22.7148 20.9202 22.2036C20.9395 22.1986 20.9588 22.1933 20.978 22.1877C20.9576 22.1489 20.9373 22.1103 20.9166 22.0713C20.8489 21.944 20.7805 21.817 20.7112 21.6906C20.7105 21.6894 20.7098 21.6882 20.7092 21.687C20.1934 20.7319 19.6219 19.8081 19.0355 18.8957C18.9262 18.7256 18.9755 18.4989 19.1456 18.3896C19.3121 18.2826 19.5435 18.3312 19.6518 18.4997C20.4233 19.7006 21.159 20.9261 21.8084 22.1978C21.8104 22.2017 21.8125 22.2056 21.8146 22.2099C22.2846 23.1309 22.6896 24.0813 23.1137 25.0239C23.2079 25.2335 23.4552 25.3273 23.6647 25.233C23.8724 25.1398 23.968 24.8915 23.8744 24.6836C23.3814 23.5761 22.8631 22.491 22.3211 21.4071C22.3191 21.4037 22.3167 21.4006 22.3149 21.3972C20.9504 18.8444 19.2991 16.4356 17.4714 14.1936C15.6439 11.9518 13.5989 9.90247 11.4006 8.02469C11.2497 7.89559 11.231 7.65945 11.3604 7.50828C11.4891 7.35799 11.7262 7.33934 11.8768 7.4681C13.4376 8.80315 14.931 10.221 16.3177 11.7367C18.2037 13.7998 19.9032 16.0333 21.4018 18.3924C21.8174 19.0466 22.2172 19.7111 22.5969 20.3869C22.6186 20.3141 22.6378 20.2403 22.6546 20.1655C22.9801 18.7181 22.6942 16.8867 21.8281 14.8691C21.7242 14.6272 21.4665 14.4868 21.2154 14.5352C20.9782 14.581 20.7281 14.5488 20.4719 14.4395C19.9968 14.237 19.7092 13.9485 19.617 13.5822C19.5194 13.1939 19.652 12.7693 20.0115 12.3201C20.1625 12.1313 20.1685 11.8549 20.0261 11.648C19.0099 10.1723 17.7914 8.78372 16.4046 7.52069C16.1008 7.24393 15.6721 7.14515 15.2858 7.26282C14.8233 7.40374 14.3073 7.50828 13.987 7.21488C13.708 6.95941 13.7514 6.57215 13.8082 6.30316C13.9033 5.85262 13.6997 5.37528 13.3016 5.11532C11.8219 4.1493 10.2735 3.37543 8.69932 2.81522C8.54214 2.75927 8.36856 2.77826 8.2231 2.86727C7.56675 3.26898 7.13306 3.37098 6.81704 3.19813C6.69712 3.13256 6.49468 2.96571 6.48682 2.58563C6.48174 2.34164 6.29566 2.12807 6.04429 2.07772C4.65523 1.79945 3.25469 1.68876 1.87408 1.7476C2.14981 2.50551 2.77012 4.14344 3.68116 6.16834Z" fill="#303B27" stroke="#303B27"/>
</svg>
