<svg width="35" height="37" viewBox="0 0 35 37" fill="none" xmlns="http://www.w3.org/2000/svg">
<path d="M0.642712 0.0660068C3.00459 -0.10311 5.41009 0.0531197 7.79248 0.530376C8.639 0.699709 9.2704 1.42549 9.311 2.26668C9.44844 2.23666 9.72757 2.1394 10.229 1.83234C10.7231 1.52981 11.3166 1.46667 11.8573 1.65919C14.2584 2.5137 16.6184 3.69276 18.8714 5.16377C19.8288 5.78883 20.3163 6.9458 20.0847 8.04279C20.0502 8.20629 20.0451 8.30384 20.0471 8.3574C20.143 8.36576 20.3811 8.35712 20.8918 8.20146C21.8238 7.91744 22.8552 8.15301 23.5835 8.8163C25.6892 10.734 27.5404 12.8441 29.0854 15.0878C29.5635 15.7819 29.5357 16.7188 29.0177 17.3661C28.723 17.7345 28.5854 18.0708 28.6402 18.2887C28.7014 18.5319 29.0202 18.7135 29.2769 18.8229C29.4555 18.8991 29.6085 18.9233 29.745 18.897C30.6101 18.7301 31.4934 19.2039 31.8454 20.0237C33.2128 23.2089 33.6554 26.1386 33.1254 28.496C33.0217 28.9574 32.8642 29.4002 32.6577 29.8172C33.4614 31.3386 34.1565 32.9086 34.856 34.4794C35.2318 35.3232 34.8456 36.3374 34.0041 36.7161C33.1623 37.0949 32.1419 36.7071 31.7635 35.8659C31.6294 35.5678 30.1812 32.1839 30.0967 32.2136C29.9931 32.2499 29.8887 32.2833 29.7834 32.3104C28.7887 32.5664 27.7891 32.6942 26.787 32.6942C24.5567 32.6942 22.3151 32.0611 20.0918 30.7996C19.4078 30.4115 18.9714 29.6948 18.953 28.9291C18.9479 28.7167 18.8807 28.6598 18.8586 28.6411C18.7369 28.5381 18.4437 28.5082 18.0743 28.5611C17.4261 28.6539 16.7711 28.453 16.277 28.0099C14.7412 26.6327 13.1974 24.9339 11.6885 22.9608C11.093 22.1821 11.0975 21.1204 11.6994 20.319C11.9111 20.0371 11.9709 19.7295 11.8516 19.5352C11.7042 19.2953 11.291 19.2093 10.7465 19.3055C9.85407 19.4629 8.97148 19.0711 8.49768 18.3071C7.23157 16.2656 5.98339 14.0117 4.78776 11.6081C4.48423 10.998 4.55896 10.2763 4.9828 9.72474C5.15818 9.49651 5.1476 9.39954 5.14731 9.39882C5.13262 9.35979 4.96034 9.19097 4.3861 9.07772C3.82317 8.96677 3.34642 8.58793 3.11085 8.06431C1.23624 3.89752 0.182159 0.815045 0.169849 0.778903C0.0566711 0.446141 0.294617 0.0909172 0.642712 0.0660068ZM4.09604 7.62053C4.18833 7.82565 4.37494 7.97403 4.59525 8.01744C5.44551 8.18505 5.97137 8.52148 6.15834 9.01724C6.26791 9.30803 6.30161 9.78082 5.83947 10.3822C5.6692 10.6037 5.63688 10.889 5.75502 11.1264C6.93567 13.4999 8.16729 15.7242 9.41576 17.7372C9.65543 18.1236 10.1045 18.3215 10.559 18.2412C11.9972 17.9874 12.5857 18.6659 12.7722 18.9694C13.1305 19.5529 13.0504 20.3183 12.5632 20.9669C12.2552 21.377 12.2486 21.9144 12.5466 22.3041C14.0147 24.2238 15.5125 25.8728 16.9982 27.2052C17.2537 27.4343 17.5903 27.5387 17.9214 27.4912C18.6316 27.3895 19.1816 27.4988 19.5564 27.816C19.7661 27.9934 20.0191 28.3261 20.033 28.9026C20.0423 29.291 20.2691 29.6577 20.625 29.8596C23.5953 31.5451 26.5861 32.0176 29.5144 31.2639C29.5429 31.2566 29.5713 31.2488 29.5996 31.2404C29.5695 31.1833 29.5396 31.1263 29.509 31.0689C29.4092 30.8812 29.3085 30.6939 29.2062 30.5075C29.2052 30.5058 29.2042 30.504 29.2033 30.5023C28.4428 29.094 27.6001 27.7319 26.7355 26.3866C26.5743 26.1357 26.6469 25.8016 26.8978 25.6404C27.1433 25.4826 27.4845 25.5542 27.6441 25.8027C28.7817 27.5733 29.8664 29.3804 30.824 31.2553C30.827 31.2611 30.83 31.2669 30.8332 31.2732C31.5261 32.6312 32.1233 34.0325 32.7486 35.4223C32.8876 35.7313 33.2521 35.8696 33.5611 35.7307C33.8673 35.5933 34.0083 35.2272 33.8703 34.9205C33.1433 33.2876 32.3791 31.6877 31.5799 30.0895C31.577 30.0845 31.5735 30.08 31.5708 30.0749C29.5589 26.3108 27.1241 22.7592 24.4292 19.4534C21.7346 16.1481 18.7194 13.1264 15.478 10.3576C15.2556 10.1673 15.228 9.81912 15.4188 9.59623C15.6085 9.37462 15.9582 9.34712 16.1802 9.53697C18.4816 11.5055 20.6836 13.596 22.7281 15.8309C25.5091 18.8728 28.0148 22.166 30.2245 25.6445C30.8373 26.6091 31.4268 27.5888 31.9865 28.5852C32.0186 28.4779 32.0469 28.3691 32.0717 28.2589C32.5516 26.1247 32.1301 23.4243 30.853 20.4495C30.6998 20.0928 30.3198 19.8858 29.9496 19.9572C29.5999 20.0247 29.2311 19.9772 28.8533 19.8161C28.1529 19.5175 27.7288 19.0921 27.5929 18.5519C27.4489 17.9795 27.6445 17.3533 28.1745 16.6911C28.3972 16.4127 28.4061 16.0052 28.196 15.7001C26.6977 13.5242 24.9011 11.4768 22.8563 9.61451C22.4083 9.20644 21.7762 9.0608 21.2067 9.23431C20.5248 9.44208 19.7639 9.59623 19.2916 9.16361C18.8803 8.78693 18.9442 8.21593 19.028 7.81931C19.1682 7.15501 18.8681 6.45119 18.281 6.06789C16.0992 4.64353 13.8162 3.50248 11.4951 2.67648C11.2634 2.59397 11.0074 2.62198 10.793 2.75323C9.8252 3.34553 9.18574 3.49593 8.71978 3.24107C8.54296 3.14438 8.24447 2.89837 8.23288 2.33796C8.22539 1.9782 7.95102 1.66329 7.58039 1.58907C5.53227 1.17876 3.46723 1.01555 1.43156 1.10231C1.83812 2.21982 2.75275 4.63489 4.09604 7.62053Z" fill="#7E8E69"/>
</svg>
