<svg width="59" height="62" viewBox="0 0 59 62" fill="none" xmlns="http://www.w3.org/2000/svg">
<path d="M0.843006 0.111021C4.8156 -0.173427 8.86158 0.0893456 12.8687 0.892075C14.2925 1.17689 15.3545 2.39763 15.4228 3.81249C15.654 3.76199 16.1234 3.5984 16.9669 3.08193C17.7979 2.5731 18.7961 2.4669 19.7055 2.7907C23.7442 4.22796 27.7136 6.21111 31.5031 8.6853C33.1134 9.73663 33.9334 11.6826 33.5438 13.5277C33.4857 13.8027 33.4772 13.9668 33.4805 14.0569C33.6418 14.0709 34.0424 14.0564 34.9013 13.7946C36.4689 13.3169 38.2038 13.7131 39.4286 14.8287C42.9704 18.0543 46.0841 21.6033 48.6827 25.3772C49.4868 26.5447 49.44 28.1205 48.5689 29.2092C48.0731 29.8288 47.8417 30.3945 47.9339 30.761C48.0368 31.1701 48.573 31.4755 49.0047 31.6595C49.3051 31.7877 49.5626 31.8285 49.7921 31.7841C51.2472 31.5034 52.7329 32.3004 53.3248 33.6793C55.6248 39.0366 56.3693 43.9642 55.4778 47.9293C55.3034 48.7054 55.0386 49.4502 54.6913 50.1516C56.043 52.7106 57.2122 55.3513 58.3887 57.9933C59.0207 59.4125 58.3712 61.1183 56.9558 61.7553C55.5399 62.3924 53.8236 61.7402 53.1872 60.3253C52.9616 59.8238 50.5258 54.1323 50.3837 54.1822C50.2095 54.2434 50.0339 54.2994 49.8567 54.3451C48.1836 54.7757 46.5023 54.9906 44.8168 54.9906C41.0656 54.9906 37.2952 53.9257 33.5557 51.8039C32.4052 51.1511 31.6713 49.9456 31.6404 48.6578C31.6318 48.3006 31.5187 48.2049 31.4815 48.1734C31.2769 48.0001 30.7836 47.9499 30.1624 48.0388C29.0721 48.1949 27.9704 47.857 27.1395 47.1118C24.5562 44.7954 21.9595 41.9381 19.4217 38.6193C18.4201 37.3096 18.4276 35.5239 19.4401 34.176C19.7961 33.7018 19.8966 33.1843 19.6959 32.8576C19.4481 32.454 18.7531 32.3094 17.8373 32.4712C16.3362 32.7361 14.8517 32.0769 14.0548 30.7919C11.9253 27.3582 9.82585 23.5672 7.81485 19.5245C7.30432 18.4982 7.43002 17.2844 8.14289 16.3567C8.43788 15.9728 8.42008 15.8097 8.41959 15.8085C8.39489 15.7429 8.10511 15.4589 7.13927 15.2684C6.19244 15.0818 5.39056 14.4446 4.99434 13.5639C1.8413 6.5555 0.0683708 1.37088 0.0476646 1.31009C-0.142693 0.750396 0.257519 0.15292 0.843006 0.111021ZM6.65138 12.8175C6.80663 13.1625 7.1205 13.4121 7.49105 13.4851C8.92116 13.767 9.80563 14.3329 10.1201 15.1667C10.3044 15.6558 10.3611 16.451 9.58379 17.4625C9.2974 17.8351 9.24303 18.3149 9.44174 18.7143C11.4276 22.7065 13.4991 26.4475 15.599 29.8333C16.0021 30.4834 16.7574 30.8161 17.5218 30.6811C19.9409 30.2542 20.9307 31.3954 21.2444 31.906C21.8471 32.8873 21.7123 34.1746 20.893 35.2657C20.3749 35.9554 20.3637 36.8593 20.865 37.5148C23.3342 40.7437 25.8534 43.5173 28.3524 45.7582C28.7822 46.1437 29.3483 46.3191 29.9052 46.2393C31.0997 46.0683 32.0248 46.252 32.6553 46.7856C33.008 47.0841 33.4335 47.6435 33.4568 48.6132C33.4725 49.2665 33.854 49.8833 34.4525 50.2229C39.4485 53.0579 44.479 53.8526 49.4043 52.5849C49.4522 52.5725 49.5 52.5594 49.5476 52.5454C49.497 52.4494 49.4467 52.3535 49.3952 52.2568C49.2273 51.9411 49.0579 51.6262 48.8858 51.3127C48.8842 51.3098 48.8825 51.3067 48.881 51.3038C47.6018 48.9351 46.1844 46.6441 44.7302 44.3814C44.4591 43.9594 44.5813 43.3974 45.0033 43.1263C45.4161 42.8609 45.99 42.9814 46.2586 43.3993C48.1718 46.3774 49.9963 49.4168 51.607 52.5705C51.612 52.5802 51.6171 52.59 51.6224 52.6005C52.7878 54.8847 53.7924 57.2415 54.8441 59.5792C55.0778 60.099 55.691 60.3316 56.2106 60.0979C56.7256 59.8667 56.9629 59.251 56.7307 58.7352C55.5079 55.9887 54.2225 53.2977 52.8784 50.6096C52.8735 50.6012 52.8676 50.5936 52.863 50.585C49.4792 44.254 45.3838 38.2802 40.8511 32.7201C36.3189 27.1605 31.2474 22.0781 25.7956 17.4212C25.4214 17.1011 25.375 16.5154 25.6959 16.1405C26.015 15.7678 26.6031 15.7216 26.9766 16.0409C30.8475 19.3518 34.5511 22.868 37.9899 26.6271C42.6674 31.7435 46.8819 37.2825 50.5987 43.1332C51.6293 44.7557 52.6208 46.4035 53.5623 48.0795C53.6162 47.8989 53.6639 47.7159 53.7056 47.5305C54.5127 43.941 53.8038 39.399 51.6557 34.3954C51.3981 33.7954 50.759 33.4472 50.1363 33.5674C49.5481 33.681 48.9277 33.601 48.2923 33.33C47.1142 32.8277 46.401 32.1123 46.1723 31.2037C45.9301 30.2409 46.2592 29.1878 47.1505 28.0738C47.5252 27.6056 47.5401 26.9202 47.1867 26.4071C44.6667 22.7473 41.6449 19.3036 38.2056 16.1713C37.452 15.4849 36.3888 15.24 35.431 15.5318C34.284 15.8813 33.0043 16.1405 32.2098 15.4129C31.5181 14.7793 31.6255 13.8189 31.7664 13.1518C32.0023 12.0345 31.4975 10.8507 30.51 10.206C26.8403 7.81027 23.0003 5.89106 19.0964 4.50175C18.7066 4.36298 18.2761 4.41009 17.9154 4.63084C16.2876 5.62708 15.2121 5.88004 14.4284 5.45137C14.131 5.28874 13.6289 4.87496 13.6094 3.93237C13.5968 3.32727 13.1353 2.7976 12.5119 2.67276C9.06708 1.98264 5.59375 1.70812 2.16983 1.85404C2.85365 3.73366 4.39202 7.79574 6.65138 12.8175Z" fill="#FAFAFA"/>
</svg>
