<svg width="27" height="20" viewBox="0 0 27 20" fill="none" xmlns="http://www.w3.org/2000/svg">
<path d="M9.51038 16.7238C9.29593 16.7238 9.12207 16.8976 9.12207 17.1121V19.157C9.12207 19.3715 9.29593 19.5454 9.51038 19.5454C9.72483 19.5454 9.89868 19.3715 9.89868 19.157V17.1121C9.89868 16.8976 9.72483 16.7238 9.51038 16.7238Z" fill="#FEFEFE"/>
<path d="M17.027 16.7238C16.8125 16.7238 16.6387 16.8976 16.6387 17.1121V19.157C16.6387 19.3715 16.8125 19.5454 17.027 19.5454C17.2414 19.5454 17.4153 19.3715 17.4153 19.157V17.1121C17.4153 16.8976 17.2414 16.7238 17.027 16.7238Z" fill="#FEFEFE"/>
<path d="M24.5724 15.3681L23.2722 14.8465V14.5144C23.5274 14.3726 23.7566 14.188 23.9494 13.9701C24.7719 14.0672 25.5588 13.7389 26.0682 13.0784C26.595 12.3954 26.7046 11.5152 26.3614 10.7238L25.7776 9.37758C25.7337 9.27642 25.7035 9.16971 25.6877 9.06057C25.5619 8.1861 25.1249 7.38588 24.4572 6.80735C23.7894 6.22878 22.9352 5.91021 22.0517 5.91021C21.1682 5.91021 20.3139 6.22878 19.6462 6.80735C18.9785 7.38588 18.5414 8.18605 18.4156 9.06057C18.3999 9.16976 18.3697 9.27647 18.3258 9.37758L17.742 10.7238C17.3988 11.5151 17.5084 12.3954 18.0353 13.0784C18.4859 13.6627 19.1536 13.9883 19.8709 13.9882C19.9634 13.9882 20.0569 13.9828 20.1508 13.9717C20.3258 14.1702 20.531 14.3411 20.7596 14.4771V14.8465L19.4595 15.3681C19.3747 15.4021 19.292 15.4406 19.2113 15.4832C18.9597 15.0205 18.6006 14.6158 18.1537 14.3085L16.4602 13.1438C16.47 12.9299 16.3844 12.7145 16.2102 12.5667L15.5221 11.9828C15.4568 11.9274 15.3835 11.8855 15.3061 11.8571V11.071C16.0334 10.5434 16.5492 9.74182 16.7004 8.81868H16.7418C17.4822 8.81868 18.0845 8.21634 18.0845 7.47602C18.0845 7.15994 17.9745 6.86917 17.791 6.63955L18.0686 4.66638C18.2686 3.24394 17.2756 1.91484 15.8547 1.7035L15.7995 1.69532C15.3452 0.953807 14.6415 0.418823 13.7972 0.179419L13.6956 0.150581C12.5762 -0.166795 11.3789 0.0226467 10.4106 0.670446C10.2323 0.789683 10.1845 1.03085 10.3037 1.20905C10.423 1.38726 10.6641 1.43515 10.8424 1.31586C11.6211 0.794912 12.5838 0.64254 13.4837 0.897735L13.5854 0.926574C14.2918 1.12689 14.8717 1.59374 15.2183 2.24112C15.4567 2.68654 15.562 3.17637 15.5316 3.66636L15.2684 3.44011C15.0278 3.23332 14.674 3.22784 14.4273 3.42717L14.082 3.70608H12.111C10.832 3.70608 9.79144 4.74664 9.79144 6.02562V6.13346C9.68846 6.13382 9.58833 6.14614 9.49203 6.16856C9.05304 4.93271 9.17683 3.54029 9.83664 2.40131C9.94412 2.2157 9.88085 1.97816 9.69529 1.87063C9.50974 1.76319 9.2722 1.82641 9.16466 2.01197C8.36672 3.38948 8.23733 5.08306 8.81099 6.56526C8.58945 6.80477 8.45375 7.12478 8.45375 7.47602C8.45375 8.21634 9.05609 8.81868 9.79646 8.81868H9.83788C9.98906 9.74182 10.5048 10.5434 11.2322 11.071V11.8571C11.1548 11.8855 11.0814 11.9274 11.0163 11.9827L10.3281 12.5667C10.1539 12.7145 10.0683 12.93 10.0781 13.1438L8.38463 14.3085C8.04049 14.5451 7.74827 14.8394 7.51715 15.1735C7.36737 15.0908 7.21127 15.02 7.04963 14.9628L5.89983 14.5555V14.2495C6.4855 13.8876 6.90653 13.2845 7.02379 12.5797H7.19755C7.87885 12.5797 8.43309 12.0255 8.43309 11.3442C8.43309 11.0383 8.32115 10.7584 8.13637 10.5424L8.2057 9.72168C8.30205 8.53988 7.78638 7.41886 6.82622 6.72317C5.86607 6.02738 4.64021 5.88639 3.54715 6.34594L2.77318 6.67134C1.57476 6.93591 0.773759 8.08426 0.944873 9.30407L1.11801 10.5384C0.931205 10.7549 0.817871 11.0365 0.817871 11.3442C0.817871 12.0255 1.37211 12.5797 2.05341 12.5797H2.22717C2.33682 13.2388 2.71224 13.8087 3.23941 14.1759V14.5555L2.0896 14.9627C1.92858 15.0198 1.76995 15.0912 1.61815 15.1752C1.43046 15.279 1.36243 15.5152 1.46619 15.7029C1.53702 15.831 1.66961 15.9034 1.80635 15.9034C1.86987 15.9034 1.93433 15.8877 1.99387 15.8548C2.10845 15.7914 2.22789 15.7376 2.34878 15.6948L3.34233 15.3429C3.54353 15.8224 4.01778 16.1601 4.56954 16.1601C5.1213 16.1601 5.59555 15.8224 5.79674 15.3429L6.79029 15.6948C6.91528 15.739 7.03591 15.7941 7.15152 15.8587C6.99729 16.2497 6.9146 16.671 6.9146 17.1034V19.407C6.9146 19.6215 7.08846 19.7953 7.30291 19.7953C7.51736 19.7953 7.69122 19.6215 7.69122 19.407V17.1034C7.69122 16.2421 8.11494 15.4365 8.82461 14.9484L10.4418 13.8362L11.1047 14.7224C11.2472 14.913 11.4706 15.0203 11.701 15.0203C11.7728 15.0203 11.8453 15.0099 11.9162 14.9883L12.8808 14.6948V19.5696C12.8808 19.7841 13.0546 19.9579 13.2691 19.9579C13.4835 19.9579 13.6574 19.7841 13.6574 19.5696V14.6948L14.6221 14.9884C14.693 15.0099 14.7653 15.0203 14.8371 15.0203C15.0675 15.0203 15.291 14.9129 15.4334 14.7224L16.0963 13.8362L17.7135 14.9484C18.4232 15.4365 18.8469 16.2421 18.8469 17.1034V19.407C18.8469 19.6215 19.0207 19.7953 19.2352 19.7953C19.4496 19.7953 19.6235 19.6215 19.6235 19.407V17.1034C19.6235 16.7976 19.582 16.4972 19.5033 16.2091C19.582 16.1632 19.6639 16.1229 19.7485 16.089L20.876 15.6366C21.0757 16.0665 21.5114 16.3655 22.0159 16.3655C22.5203 16.3655 22.956 16.0666 23.1557 15.6366L24.2833 16.089C24.9963 16.375 25.4569 17.0562 25.4569 17.8244V18.4816C25.4569 18.6961 25.6307 18.8699 25.8452 18.8699C26.0596 18.8699 26.2335 18.6961 26.2335 18.4816V17.8244C26.2334 16.7371 25.5814 15.773 24.5724 15.3681V15.3681ZM9.23021 7.47597C9.23021 7.16553 9.48147 6.91287 9.79128 6.91013V8.0417C9.48152 8.03901 9.23021 7.78641 9.23021 7.47597ZM7.19745 11.8031H7.05724V10.8852H7.19745C7.45052 10.8852 7.65637 11.0911 7.65637 11.3441C7.65637 11.5971 7.45052 11.8031 7.19745 11.8031V11.8031ZM1.59438 11.3442C1.59438 11.0911 1.80024 10.8853 2.05331 10.8853H2.19351V11.8031H2.05331C1.80029 11.8031 1.59438 11.5972 1.59438 11.3442V11.3442ZM2.66513 8.91167C2.40755 9.26736 2.25181 9.67694 2.20723 10.1086H2.05331C1.98207 10.1086 1.91238 10.115 1.8444 10.1266L1.71388 9.19606C1.5978 8.36871 2.14826 7.59034 2.96702 7.42399C2.99208 7.41891 3.01662 7.41135 3.04023 7.40141L3.84812 7.06172C4.68903 6.70816 5.63195 6.81673 6.37051 7.35186C7.10907 7.88711 7.50576 8.74936 7.43172 9.65727L7.39227 10.124C7.3288 10.1139 7.26377 10.1085 7.19745 10.1085H7.05382C7.02038 9.7793 6.74157 9.52147 6.40364 9.52147H5.44478C4.76141 9.52147 4.08519 9.29402 3.54073 8.88112L3.43087 8.79782C3.31551 8.71032 3.16713 8.67232 3.02408 8.69365C2.88087 8.71498 2.75004 8.79445 2.66513 8.91167V8.91167ZM3.29413 9.36718C3.29403 9.36733 3.29398 9.36744 3.29392 9.36754C3.29398 9.36744 3.29408 9.36733 3.29413 9.36718ZM2.97018 10.367C2.97018 10.0862 3.03785 9.81482 3.16744 9.57044C3.82875 10.0405 4.63276 10.2982 5.44483 10.2982H6.28063V12.1793C6.28063 13.0921 5.53808 13.8346 4.6254 13.8346C3.71273 13.8346 2.97018 13.0921 2.97018 12.1793V10.367ZM4.56949 15.3835C4.26423 15.3835 4.01592 15.1351 4.01592 14.8299V14.5338C4.21074 14.5843 4.41499 14.6112 4.6254 14.6112C4.79595 14.6112 4.96235 14.5934 5.12311 14.5598V14.8299C5.12311 15.1351 4.87475 15.3835 4.56949 15.3835ZM16.7467 8.0417V6.91013C17.0565 6.91282 17.3078 7.16553 17.3078 7.47597C17.3078 7.78641 17.0565 8.03901 16.7467 8.0417ZM17.2994 4.55807L17.072 6.17447C16.9678 6.14801 16.8588 6.13377 16.7466 6.13336V6.10193C16.7466 5.47588 16.553 4.87369 16.2023 4.3705C16.3552 3.78161 16.3498 3.17534 16.1916 2.59909C16.9416 2.91921 17.4179 3.71534 17.2994 4.55807V4.55807ZM10.568 8.25481V6.02551C10.568 5.1747 11.2601 4.48259 12.1109 4.48259H14.2191C14.3079 4.48259 14.394 4.45214 14.4631 4.39638L14.8376 4.09386L15.1854 4.39286C15.6841 4.82145 15.97 5.44445 15.97 6.10193V8.25476C15.97 9.74415 14.7584 10.9558 13.269 10.9558C11.7796 10.9558 10.568 9.74415 10.568 8.25481V8.25481ZM13.269 11.7325C13.7135 11.7325 14.1383 11.6478 14.5294 11.4952V11.9927L13.269 12.6107L12.0087 11.9927V11.4952C12.3997 11.6477 12.8245 11.7325 13.269 11.7325ZM11.7125 14.2384L10.876 13.12L11.4868 12.6017L12.8807 13.2851V13.8829L11.7125 14.2384ZM14.8255 14.2384L13.6573 13.8829V13.2852L15.0512 12.6018L15.662 13.1201L14.8255 14.2384ZM18.6501 12.6041C18.2986 12.1483 18.2254 11.561 18.4545 11.0329L19.0383 9.68663C19.1096 9.52219 19.1588 9.3488 19.1843 9.17121C19.3881 7.75493 20.6208 6.68688 22.0517 6.68688C23.4826 6.68688 24.7153 7.75493 24.9191 9.17121C24.9446 9.34875 24.9937 9.52214 25.0651 9.68663L25.6489 11.0329C25.8779 11.5609 25.8048 12.1483 25.4532 12.6041C25.1929 12.9416 24.824 13.1493 24.4191 13.1992C24.5027 12.982 24.5573 12.7504 24.5773 12.509C24.595 12.2953 24.4361 12.1076 24.2224 12.0899C24.0089 12.0726 23.8211 12.2312 23.8033 12.4448C23.7285 13.3482 22.9591 14.0558 22.0517 14.0558C21.0821 14.0558 20.2934 13.267 20.2934 12.2974V10.4347C20.2934 10.0216 20.415 9.61538 20.6389 9.27057C21.1413 9.65411 21.7607 9.87348 22.3934 9.8902L23.81 9.92758V10.822C23.81 11.0365 23.9839 11.2103 24.1983 11.2103C24.4128 11.2103 24.5866 11.0365 24.5866 10.822V9.82243C24.5866 9.45721 24.3006 9.1636 23.9356 9.15402L22.4139 9.11395C21.9211 9.1009 21.4393 8.92244 21.057 8.61153L20.9567 8.52988C20.8383 8.43364 20.6897 8.38952 20.5379 8.40583C20.3863 8.42204 20.2503 8.49659 20.155 8.61562C19.7434 9.12995 19.5166 9.77599 19.5166 10.4348V12.2976C19.5166 12.6148 19.5757 12.9184 19.6826 13.1985C19.2785 13.1483 18.9101 12.9412 18.6501 12.6041V12.6041ZM22.0158 15.5888C21.7513 15.5888 21.5361 15.3737 21.5361 15.1091V14.7796C21.7026 14.8141 21.875 14.8324 22.0516 14.8324C22.2027 14.8324 22.3509 14.8182 22.4955 14.7921V15.1092C22.4956 15.3737 22.2803 15.5888 22.0158 15.5888V15.5888Z" fill="#FEFEFE"/>
<path d="M0.832272 16.3728C0.639257 16.2791 0.407049 16.36 0.313545 16.553C0.105516 16.9828 0 17.4425 0 17.9192V19.1571C0 19.3716 0.173858 19.5454 0.388307 19.5454C0.602756 19.5454 0.776614 19.3716 0.776614 19.1571V17.9192C0.776614 17.5607 0.855984 17.2149 1.0126 16.8915C1.10605 16.6985 1.02534 16.4662 0.832272 16.3728V16.3728Z" fill="#FEFEFE"/>
</svg>
