<svg width="47" height="40" viewBox="0 0 47 40" fill="none" xmlns="http://www.w3.org/2000/svg">
<path d="M0 0V32.7273C0 36.7455 3.23577 40 7.23077 40H39.7692C43.7642 40 47 36.7455 47 32.7273V12.7273H36.1538V0H0ZM3.61538 3.63636H32.5385V32.7273C32.5385 34.0545 32.9362 35.2909 33.5562 36.3636H7.23077C5.07962 36.3636 3.61538 34.8909 3.61538 32.7273V3.63636ZM7.23077 7.27273V16.3636H28.9231V7.27273H7.23077ZM10.8462 10.9091H25.3077V12.7273H10.8462V10.9091ZM36.1538 16.3636H43.3846V32.7273C43.3846 34.8909 41.9204 36.3636 39.7692 36.3636C37.6181 36.3636 36.1538 34.8909 36.1538 32.7273V16.3636ZM7.23077 18.1818V21.8182H16.2692V18.1818H7.23077ZM19.8846 18.1818V21.8182H28.9231V18.1818H19.8846ZM7.23077 23.6364V27.2727H16.2692V23.6364H7.23077ZM19.8846 23.6364V27.2727H28.9231V23.6364H19.8846ZM7.23077 29.0909V32.7273H16.2692V29.0909H7.23077ZM19.8846 29.0909V32.7273H28.9231V29.0909H19.8846Z" fill="black"/>
</svg>
