<svg width="22" height="22" viewBox="0 0 22 22" fill="none" xmlns="http://www.w3.org/2000/svg">
<path d="M7.1319 7.00948C7.34055 7.22913 7.6159 7.37248 7.91077 7.42571C7.98139 7.59958 8.08571 7.75926 8.22232 7.89587L9.59519 9.2691C9.79639 9.46994 10.0639 9.58065 10.3478 9.58065H11.6522C11.9361 9.58065 12.2036 9.46994 12.4052 9.26874L13.7777 7.89587C13.9143 7.75926 14.0186 7.59958 14.0892 7.42571C14.3845 7.37213 14.6598 7.22913 14.8681 7.00948C15.1388 6.72419 15.2765 6.35055 15.2563 5.95668C15.2393 5.63448 15.1062 5.346 14.9032 5.11677V2.83871C14.9032 2.13081 14.3823 1.54248 13.7035 1.43603C13.1798 0.545387 12.2334 0 11.1874 0C8.932 0 7.09677 1.83487 7.09677 4.09058V5.11677C6.89345 5.346 6.76039 5.63448 6.74371 5.95668C6.72313 6.35019 6.86116 6.72419 7.1319 7.00948ZM13.4839 6.89239C13.4839 7.08187 13.4101 7.26 13.2759 7.39413L11.9038 8.76665C11.836 8.83406 11.7466 8.87097 11.6522 8.87097H10.3478C10.2531 8.87097 10.1636 8.83407 10.0966 8.767L8.72406 7.39413C8.58994 7.26 8.51613 7.08187 8.51613 6.89239V5.32258H10.4305C11.1771 5.32258 11.8796 5.02203 12.3906 4.49971L12.4733 4.62426C12.7093 4.97803 13.0747 5.21365 13.4839 5.29206V6.89239ZM14.5473 5.99358C14.5576 6.19087 14.4888 6.37823 14.3532 6.52052C14.306 6.57055 14.251 6.60958 14.1935 6.64329V5.43684C14.3955 5.55748 14.5353 5.76187 14.5473 5.99358ZM7.80645 4.09094C7.80645 2.22626 9.32303 0.709677 11.1874 0.709677C12.0312 0.709677 12.7891 1.17842 13.1659 1.93281L13.2642 2.12903H13.4835C13.8753 2.12903 14.1935 2.44732 14.1935 2.83871V4.67571C14.0608 4.63881 13.9235 4.6129 13.7784 4.6129C13.4906 4.6129 13.2238 4.4699 13.0637 4.23039L12.4194 3.26345L12.1241 3.70665C11.7459 4.27403 11.1125 4.6129 10.4305 4.6129H8.22161C8.07648 4.6129 7.93916 4.63881 7.80645 4.67606V4.09094ZM7.45268 5.99358C7.46474 5.76187 7.60455 5.55748 7.80645 5.43684V6.64329C7.74897 6.60958 7.69397 6.57055 7.64677 6.52052C7.51123 6.37823 7.44239 6.19087 7.45268 5.99358Z" fill="#FEFEFE"/>
<path d="M16.9797 14.9032L16.5887 12.463C16.4351 11.5017 15.7843 10.7122 14.9071 10.4085L13.129 9.69561V9.58064H12.4194V9.7648L11 10.9003L9.58064 9.7648V9.58064H8.87097V9.69561L7.10884 10.4028C6.21535 10.7126 5.56458 11.5021 5.41129 12.463L5.02026 14.9032H0V17.7419H22V14.9032H16.9797ZM13.3973 10.5678L14.6587 11.0734C15.3045 11.297 15.7758 11.8725 15.8879 12.5751L16.2612 14.9032H15.0345L14.8468 12.953L14.1407 13.0208L14.3216 14.9032H12.3651L12.083 13.2092L12.4595 12.6443L13.0499 12.9988L13.3973 10.5678ZM12.6968 10.4521L12.4985 11.8403L11.6203 11.3133L12.6968 10.4521ZM11 11.8094L11.0291 11.7863L11.8502 12.2788L11.3364 13.0492L11.6458 14.9032H10.3542L10.6633 13.0488L10.1495 12.2785L10.9709 11.786L11 11.8094ZM10.3797 11.3133L9.50152 11.8403L9.30316 10.4521L10.3797 11.3133ZM6.1121 12.5748C6.22423 11.8725 6.69581 11.2966 7.35723 11.0671L8.60306 10.5674L8.95045 12.9984L9.5409 12.644L9.91739 13.2089L9.63494 14.9032H7.67835L7.85968 13.0212L7.15355 12.9534L6.96548 14.9032H5.73881L6.1121 12.5748ZM21.2903 17.0323H0.709677V15.6129H4.90635H17.0936H21.2903V17.0323Z" fill="#FEFEFE"/>
<path d="M18.0967 4.25808V6.03227H15.9676V6.74195H18.0967V7.45163H15.9676V8.1613H18.0967V8.87098H15.9676V9.58066H18.0967V14.1936H18.8063V4.25808C18.8063 3.27979 18.0104 2.48389 17.0321 2.48389H15.6128V3.19356H17.0321C17.6191 3.19356 18.0967 3.67118 18.0967 4.25808Z" fill="#FEFEFE"/>
<path d="M3.90328 9.58066H6.03231V8.87098H3.90328V8.1613H6.03231V7.45163H3.90328V6.74195H6.03231V6.03227H3.90328V4.25808C3.90328 3.67118 4.38089 3.19356 4.9678 3.19356H6.74199V2.48389H4.9678C3.98951 2.48389 3.1936 3.27979 3.1936 4.25808V14.1936H3.90328V9.58066Z" fill="#FEFEFE"/>
<path d="M2.48385 18.4516H1.77417V22H2.48385V18.4516Z" fill="#FEFEFE"/>
<path d="M20.2258 18.4516H19.5161V22H20.2258V18.4516Z" fill="#FEFEFE"/>
<path d="M5.32251 21.2903H16.6774V18.4516H5.32251V21.2903ZM6.03219 19.1613H15.9677V20.5806H6.03219V19.1613Z" fill="#FEFEFE"/>
</svg>
