<svg width="32" height="71" viewBox="0 0 32 71" fill="none" xmlns="http://www.w3.org/2000/svg">
<path d="M9.07519 45.2124H10.0951L11.1803 50.1371H10.3195L10.1286 49.0963H9.04001L8.84911 50.1371H7.98999L9.07519 45.2124ZM9.18405 48.2811H9.98622L9.58932 46.071H9.57759L9.18405 48.2811Z" fill="#00833E"/>
<path d="M13.2166 46.8745C13.2166 46.1579 13.0944 45.8455 12.7142 45.8455C12.2972 45.8455 12.1984 46.3466 12.1984 47.7432C12.1984 49.2333 12.3659 49.5022 12.726 49.5022C13.0241 49.5022 13.2418 49.3151 13.2418 48.2544H14.0691C14.0691 49.3151 13.8513 50.2322 12.7678 50.2322C11.5286 50.2322 11.3728 49.1715 11.3728 47.6747C11.3728 46.1779 11.5286 45.1155 12.7678 45.1155C13.9401 45.1155 14.0356 46.1579 14.0356 46.8745H13.2166Z" fill="#00833E"/>
<path d="M16.8358 45.2124V46.0276H15.3737V47.1853H16.7503V47.9988H15.3737V49.3252H16.8944V50.1371H14.5498V45.2124H16.8358Z" fill="#00833E"/>
<path d="M17.3464 50.1371V45.2124H18.1721V50.1371H17.3464Z" fill="#00833E"/>
<path d="M21.1848 45.2124V46.0276H20.2956V50.1371H19.4582V46.0276H18.5623V45.2124H21.1848Z" fill="#00833E"/>
<path d="M23.8308 45.2124V46.0276H22.3672V47.1853H23.7454V47.9988H22.3672V49.3252H23.8878V50.1371H21.5432V45.2124H23.8308Z" fill="#00833E"/>
<path d="M4.63721 51.5034H5.99036C7.13753 51.5034 7.34518 52.4456 7.34518 53.8956C7.34518 55.6413 7.03369 56.4247 5.93845 56.4247H4.63721V51.5034ZM5.46283 55.6947H5.82959C6.40401 55.6947 6.51788 55.2604 6.51788 53.9223C6.51788 52.8064 6.4442 52.2334 5.81284 52.2334H5.46283V55.6947Z" fill="#00833E"/>
<path d="M10.1804 51.5034V52.3153H8.71677V53.4729H10.0934V54.2882H8.71677V55.6129H10.2374V56.4281H7.89282V51.5034H10.1804Z" fill="#00833E"/>
<path d="M12.0276 51.5034H13.4728C14.3102 51.5034 14.5982 52.2401 14.5982 52.9785C14.5982 54.0008 14.0757 54.4602 13.2953 54.4602H12.8532V56.4281H12.0276V51.5034ZM12.8532 53.7285H13.2216C13.5566 53.7285 13.7726 53.4963 13.7726 52.9918C13.7726 52.4873 13.6051 52.2334 13.1982 52.2334H12.8532V53.7285Z" fill="#00833E"/>
<path d="M15.4975 51.5034H16.5208L17.606 56.4281H16.7435L16.5543 55.389H15.464L15.2714 56.4281H14.4106L15.4975 51.5034ZM15.6081 54.5705H16.4119L16.015 52.357H16.0033L15.6081 54.5705Z" fill="#00833E"/>
<path d="M17.8906 56.4281V51.5034H18.7179V55.6129H20.1799V56.4281H17.8906Z" fill="#00833E"/>
<path d="M20.5652 51.5034H21.8028L22.3873 54.9781H22.3973L22.9885 51.5034H24.2127V56.4281H23.454V52.494H23.444L22.7071 56.4281H22.0624L21.3355 52.4974H21.3221V56.4281H20.5652V51.5034Z" fill="#00833E"/>
<path d="M25.5925 51.5034H26.6124L27.6976 56.4281H26.8368L26.6476 55.389H25.5557L25.3681 56.4281H24.5073L25.5925 51.5034ZM25.6997 54.5705H26.5036L26.1067 52.357H26.0966L25.6997 54.5705Z" fill="#00833E"/>
<path d="M6.10935 65.0847C6.10935 64.5668 6.02226 64.3413 5.75264 64.3413C5.44952 64.3413 5.37918 64.7038 5.37918 65.7145C5.37918 66.7886 5.50311 66.9841 5.75934 66.9841C5.97538 66.9841 6.13447 66.8504 6.13447 66.082H6.73066C6.73066 66.8504 6.57324 67.5119 5.78948 67.5119C4.89352 67.5119 4.78467 66.7452 4.78467 65.6627C4.78467 64.5802 4.8952 63.8118 5.78948 63.8118C6.64358 63.8118 6.70721 64.5668 6.70721 65.0847H6.10935Z" fill="#00833E"/>
<path d="M8.12078 63.8118C9.01842 63.8118 9.1256 64.5819 9.1256 65.6627C9.1256 66.7435 9.01339 67.5119 8.12078 67.5119C7.22817 67.5119 7.11597 66.7452 7.11597 65.6627C7.11597 64.5802 7.2332 63.8118 8.12078 63.8118ZM8.12078 66.9857C8.47414 66.9857 8.53108 66.6216 8.53108 65.6644C8.53108 64.7072 8.47414 64.343 8.12078 64.343C7.76742 64.343 7.71048 64.7122 7.71048 65.6644C7.71048 66.6166 7.7691 66.9841 8.12078 66.9841V66.9857Z" fill="#00833E"/>
<path d="M9.57764 67.4419V63.8821H10.1755V66.8539H11.2339V67.4419H9.57764Z" fill="#00833E"/>
<path d="M12.5519 63.8118C13.4479 63.8118 13.5567 64.5819 13.5567 65.6627C13.5567 66.7435 13.4445 67.5119 12.5519 67.5119C11.6593 67.5119 11.5471 66.7452 11.5471 65.6627C11.5471 64.5802 11.656 63.8118 12.5519 63.8118ZM12.5519 66.9857C12.9053 66.9857 12.9622 66.6216 12.9622 65.6644C12.9622 64.7072 12.9053 64.343 12.5519 64.343C12.1986 64.343 12.14 64.7122 12.14 65.6644C12.14 66.6166 12.1986 66.9841 12.5519 66.9841V66.9857Z" fill="#00833E"/>
<path d="M14.0271 63.8821H14.9164L15.3384 66.3878H15.3468L15.7738 63.8821H16.658V67.4419H16.1087V64.6021L15.5812 67.4419H15.1039L14.5764 64.6021V67.4419H14.0288L14.0271 63.8821Z" fill="#00833E"/>
<path d="M17.189 63.8821H18.1938C18.6811 63.8821 19.0311 64.1026 19.0311 64.7858C19.0311 65.17 18.877 65.4641 18.5823 65.5626V65.5726C18.9172 65.6278 19.1232 65.9268 19.1232 66.4079C19.1232 66.9675 18.8938 67.4503 18.1971 67.4503H17.1923L17.189 63.8821ZM17.7852 65.3421H17.9526C18.2876 65.3421 18.4282 65.2101 18.4282 64.876C18.4282 64.5419 18.2909 64.4116 17.9962 64.4116H17.7835L17.7852 65.3421ZM17.7852 66.9141H18.0196C18.3043 66.9141 18.5002 66.7888 18.5002 66.3762C18.5002 65.9635 18.3043 65.8433 18.0431 65.8433H17.7835L17.7852 66.9141Z" fill="#00833E"/>
<path d="M19.6257 67.4419V63.8821H20.2236V67.4419H19.6257Z" fill="#00833E"/>
<path d="M21.3457 63.8821H22.0826L22.868 67.4419H22.245L22.1094 66.6902H21.3223L21.1833 67.4419H20.5603L21.3457 63.8821ZM21.4228 66.1022H22.0056L21.7175 64.5018L21.4228 66.1022Z" fill="#00833E"/>
<path d="M23.8661 63.882L24.5895 66.3209H24.5979V63.882H25.1522V67.4419H24.4656L23.7354 64.9478H23.7254V67.4385H23.1794V63.8787L23.8661 63.882Z" fill="#00833E"/>
<path d="M26.6091 63.8118C27.505 63.8118 27.6139 64.5819 27.6139 65.6627C27.6139 66.7435 27.5017 67.5119 26.6091 67.5119C25.7165 67.5119 25.6042 66.7452 25.6042 65.6627C25.6042 64.5802 25.7131 63.8118 26.6091 63.8118ZM26.6091 66.9857C26.9624 66.9857 27.0194 66.6216 27.0194 65.6644C27.0194 64.7072 26.9624 64.343 26.6091 64.343C26.2557 64.343 26.1988 64.7122 26.1988 65.6644C26.1988 66.6166 26.2557 66.9841 26.6091 66.9841V66.9857Z" fill="#00833E"/>
<path d="M25.3314 17.1277C22.6653 16.5263 20.9772 16.9724 17.117 19.4664C17.117 19.4664 16.4991 19.8657 16.0486 19.8623C15.5981 19.859 14.9818 19.4514 14.9818 19.4514C11.1568 16.9022 9.4754 16.4344 6.80092 16.9991C2.36634 17.9379 0.0200963 23.8482 0 26.8785C2.46012 21.1002 4.57525 19.8005 6.68871 19.2326C8.20598 18.8233 10.4869 19.0237 13.4009 21.2806C13.8062 21.5947 14.96 22.7707 16.0285 22.7841C17.0969 22.7974 18.2659 21.6297 18.6745 21.3224C21.6169 19.1023 23.9029 18.9335 25.4151 19.3612C27.5185 19.9576 29.6169 21.2823 32 27.0923C32.0201 24.0637 29.7526 18.1233 25.3314 17.1277Z" fill="#00833E"/>
<path d="M23.5108 24.7653C21.7574 22.4901 19.5837 21.7584 17.9542 23.0631C15.9714 24.6501 16.7568 28.2066 16.7568 28.2066C16.7568 28.2066 18.1451 34.9721 18.3863 37.1087C18.7045 39.9319 16.251 39.6646 15.9178 39.6629C15.5845 39.6613 13.1277 39.8901 13.4828 37.0753C13.7524 34.9438 15.2278 28.1949 15.2278 28.1949C15.2278 28.1949 16.0651 24.6501 14.0974 23.038C12.4863 21.715 10.3025 22.4149 8.51899 24.6668C6.80578 26.8384 5.59331 30.9329 5.55981 35.8074C5.97549 32.9408 6.99483 30.1944 8.55081 27.7489C10.609 24.5265 12.0425 24.5749 12.8179 25.2431C13.4493 25.7877 13.3605 27.3179 13.0474 28.9817C12.7342 30.6455 11.2956 35.9594 11.1416 37.0102C10.7262 39.8734 11.0511 42.603 15.8977 42.6331C20.7442 42.6632 21.106 39.9402 20.7275 37.0737C20.5885 36.0212 19.2203 30.689 18.9289 29.0201C18.6375 27.3513 18.5671 25.8211 19.2052 25.2865C19.989 24.6183 21.4242 24.5883 23.4405 27.8374C24.9656 30.3054 25.9485 33.0679 26.3243 35.9427C26.3578 31.0682 25.1989 26.9504 23.5125 24.7653" fill="#00833E"/>
<path d="M20.2821 7.48226C18.316 7.14815 17.2861 8.40104 16.8139 8.58313C16.5191 8.17051 16.36 6.56181 14.5463 5.74326C12.7594 4.93473 11.2522 6.27114 11.2522 6.27114C13.0609 5.81509 14.1561 6.3296 14.893 7.30017C15.7136 8.37931 15.5277 10.4173 16.1959 10.6195C16.8641 10.8216 17.8455 9.02413 19.1266 8.58479C20.2805 8.18888 21.4712 8.36929 22.7255 9.75414C22.7255 9.75414 22.2231 7.80467 20.2855 7.48393" fill="#00833E"/>
<path d="M22.8828 3.10556C21.7591 2.4123 20.8129 2.9218 20.4763 2.91512C20.3993 2.58102 20.7057 1.56034 19.7964 0.603138C18.887 -0.354064 17.6377 0.101985 17.6377 0.101985C18.8636 0.269036 19.4062 0.867077 19.6172 1.64553C19.85 2.5142 19.222 3.71864 19.582 4.00931C19.9421 4.29998 20.9954 3.443 21.8931 3.49312C22.702 3.53822 23.4003 3.94916 23.8123 5.1085C23.8123 5.1085 23.9798 3.78378 22.8828 3.10389" fill="#00833E"/>
<path d="M22.0323 11.4914C19.7196 11.7036 17.7987 14.4031 17.2695 15.0563C16.8525 15.5708 16.4472 15.9333 16.0738 15.93C15.7003 15.9266 15.3 15.5591 14.8897 15.0413C14.3656 14.373 12.4849 11.6568 10.1738 11.4129C9.42864 11.3314 8.67489 11.4392 7.9827 11.7263C7.29051 12.0134 6.68236 12.4705 6.21484 13.055C11.4064 10.8232 12.1148 14.6119 14.0859 17.0459C14.9048 18.0582 15.6249 18.3472 16.0537 18.3505C16.4824 18.3539 17.2075 18.0716 18.0398 17.0726C20.0495 14.6637 20.7964 10.8917 25.9628 13.1853C25.5043 12.595 24.9034 12.13 24.2161 11.8338C23.5288 11.5376 22.7775 11.4198 22.0323 11.4914Z" fill="#00833E"/>
<path d="M28.1399 70.94H3.85688C2.23745 70.94 0.921143 69.5718 0.921143 67.888V31.6145C0.921143 29.9307 2.23745 28.5625 3.85688 28.5625H5.1129V29.4211H3.85688C3.28418 29.4321 2.7392 29.6692 2.34145 30.0803C1.9437 30.4915 1.72562 31.0432 1.73504 31.6145V67.888C1.72563 68.4591 1.94376 69.0106 2.34155 69.4215C2.73935 69.8324 3.28433 70.0691 3.85688 70.0797H28.1399C28.7126 70.0691 29.2577 69.8325 29.6558 69.4216C30.0539 69.0108 30.2724 68.4593 30.2634 67.888V31.6145C30.2724 31.0431 30.0539 30.4914 29.6559 30.0802C29.2579 29.6691 28.7128 29.4321 28.1399 29.4211H27.0078V28.5625H28.1399C29.7593 28.5625 31.0756 29.9307 31.0756 31.6145V67.888C31.0756 69.5718 29.7593 70.94 28.1399 70.94Z" fill="#00833E"/>
<path d="M28.1414 70.9999H3.85836C2.20711 70.9999 0.864014 69.6034 0.864014 67.8878V31.6143C0.864014 29.897 2.20376 28.5005 3.85836 28.5005H5.173V29.4827H3.85836C3.30135 29.4929 2.77112 29.723 2.384 30.1226C1.99688 30.5222 1.78451 31.0587 1.79347 31.6143V67.8878C1.7845 68.4436 1.99682 68.9802 2.3839 69.3801C2.77097 69.78 3.3012 70.0105 3.85836 70.021H28.1414C28.6982 70.01 29.2281 69.7794 29.6148 69.3795C30.0015 68.9797 30.2136 68.4433 30.2046 67.8878V31.6143C30.2136 31.059 30.0014 30.5227 29.6147 30.1232C29.2279 29.7236 28.6981 29.4933 28.1414 29.4827H26.949V28.5005H28.1414C29.791 28.5005 31.1341 29.897 31.1341 31.6143V67.8878C31.1341 69.6034 29.7943 70.9999 28.1414 70.9999ZM3.85836 28.6224C2.27075 28.6224 0.981239 29.9588 0.981239 31.6143V67.8878C0.981239 69.5366 2.27075 70.8797 3.85836 70.8797H28.1414C29.7273 70.8797 31.0185 69.5432 31.0185 67.8878V31.6143C31.0185 29.9655 29.7273 28.6224 28.1414 28.6224H27.0662V29.3658H28.1414C28.7295 29.3781 29.2888 29.6223 29.6968 30.045C30.1048 30.4676 30.3284 31.0343 30.3185 31.621V67.8878C30.3284 68.4743 30.1048 69.0408 29.6967 69.4632C29.2886 69.8856 28.7293 70.1294 28.1414 70.1413H3.85836C3.2704 70.1294 2.71112 69.8856 2.30305 69.4632C1.89498 69.0408 1.67139 68.4743 1.68126 67.8878V31.6143C1.67138 31.0276 1.89493 30.4609 2.30295 30.0383C2.71098 29.6156 3.27025 29.3714 3.85836 29.3591H5.05577V28.6224H3.85836Z" fill="#00833E"/>
<path d="M12.0308 62.4871V59.9947H11.4463V59.5252H11.4999C11.8901 59.5252 12.1312 59.3465 12.1882 58.9573H12.6286V62.4871H12.0308Z" fill="#00833E"/>
<path d="M14.342 58.9573C15.0504 58.9573 15.2631 59.4217 15.2631 60.6729C15.2631 61.6535 15.2178 62.5572 14.342 62.5572C13.6319 62.5572 13.4209 62.0928 13.4209 60.8416C13.4293 59.8627 13.4661 58.9573 14.342 58.9573ZM14.0188 60.997C14.0188 61.884 14.0841 62.0878 14.342 62.0878C14.5999 62.0878 14.6652 61.8088 14.6652 60.9018V60.5159C14.6652 59.6305 14.5999 59.4267 14.342 59.4267C14.0841 59.4267 14.0188 59.7057 14.0188 60.6127V60.997Z" fill="#00833E"/>
<path d="M16.4153 58.9573C17.1253 58.9573 17.3363 59.4217 17.3363 60.6729C17.3363 61.6535 17.2911 62.5572 16.4153 62.5572C15.7069 62.5572 15.4958 62.0928 15.4958 60.8416C15.4958 59.8627 15.5394 58.9573 16.4153 58.9573ZM16.092 60.997C16.092 61.884 16.159 62.0878 16.4153 62.0878C16.6715 62.0878 16.7385 61.8088 16.7385 60.9018V60.5159C16.7385 59.6305 16.6732 59.4267 16.4153 59.4267C16.1574 59.4267 16.092 59.7057 16.092 60.6127V60.997Z" fill="#00833E"/>
<path d="M18.2258 58.9573C18.7399 58.9573 18.8471 59.2663 18.8471 59.9095C18.8471 60.5526 18.7399 60.8616 18.2258 60.8616C17.7116 60.8616 17.6028 60.5526 17.6028 59.9095C17.6028 59.2663 17.71 58.9573 18.2258 58.9573ZM18.2258 60.4824C18.3932 60.4824 18.4066 60.2836 18.4066 59.8894C18.4066 59.5336 18.3899 59.3365 18.2258 59.3365C18.0617 59.3365 18.0416 59.5336 18.0416 59.8894C18.0416 60.2836 18.0583 60.4824 18.2258 60.4824ZM19.7548 58.8721H20.1282L18.4435 62.6407H18.075L19.7548 58.8721ZM19.9842 60.6528C20.4983 60.6528 20.6055 60.9619 20.6055 61.605C20.6055 62.2482 20.4983 62.5572 19.9842 62.5572C19.4701 62.5572 19.3612 62.2498 19.3612 61.605C19.3612 60.9602 19.4701 60.6528 19.9842 60.6528ZM19.9842 62.178C20.1517 62.178 20.1667 61.9775 20.1667 61.5833C20.1667 61.2308 20.15 61.0304 19.9842 61.0304C19.8184 61.0304 19.8017 61.2308 19.8017 61.5833C19.8017 61.9775 19.8184 62.178 19.9842 62.178Z" fill="#00833E"/>
<path d="M9.6161 60.501H4.73438V61.1157H9.6161V60.501Z" fill="#00833E"/>
<path d="M27.6207 60.501H22.7373V61.1157H27.6207V60.501Z" fill="#00833E"/>
</svg>
