<svg width="152" height="52" viewBox="0 0 152 52" fill="none" xmlns="http://www.w3.org/2000/svg">
<path d="M45.0239 36.2715L43.3963 36.2786L43.3818 33.4346L44.9805 33.4275L45.0022 32.2107C45.0095 30.8877 45.3495 29.968 46.0078 29.4516C46.6805 28.9351 47.6571 28.6734 48.9592 28.6734L50.7315 28.6663L50.746 31.5103L49.8852 31.5174C49.6537 31.5174 49.4439 31.5598 49.2775 31.6235C49.1111 31.6871 49.0316 31.8074 49.0316 31.9984L49.0388 33.4063L50.7677 33.3992L50.7822 36.2503L49.0677 36.2573L49.1256 47.2513L45.1035 47.2725L45.0239 36.2715Z" fill="#516228"/>
<path d="M56.36 40.9053L56.3744 43.3319C56.3817 43.7139 56.4829 44.0394 56.6782 44.3224C56.8663 44.6053 57.1846 44.761 57.6259 44.7893C57.9948 44.8034 58.2769 44.7398 58.4578 44.6053C58.6459 44.4568 58.7761 44.2728 58.8557 44.0464C58.9425 43.8201 58.9859 43.5512 58.9931 43.2682C58.9931 42.9711 59.0076 42.681 59.022 42.3839L63.0224 42.3627C63.1382 44.1384 62.7258 45.4614 61.7999 46.3174C60.8667 47.1805 59.5357 47.612 57.7923 47.6403C57.0689 47.6474 56.3744 47.5767 55.7306 47.4281C55.0723 47.2866 54.5008 47.0461 54.0017 46.7136C53.5025 46.374 53.1047 45.9283 52.8081 45.3765C52.5115 44.8247 52.3523 44.1596 52.3523 43.3673L52.3234 37.7218C52.3162 36.8304 52.4464 36.0805 52.7068 35.4791C52.9817 34.8778 53.3506 34.3825 53.8281 34.0147C54.3055 33.6397 54.877 33.3709 55.5425 33.2011C56.208 33.0313 56.9314 32.9464 57.7055 32.9393C58.4072 32.9393 59.0944 33.003 59.7382 33.1233C60.3893 33.2577 60.9607 33.477 61.4671 33.7883C61.9663 34.0996 62.3641 34.517 62.6752 35.0263C62.979 35.5428 63.1382 36.1724 63.1382 36.9223L63.1599 40.8841L56.36 40.9053ZM59.1378 38.2877L59.1233 36.9223C59.1233 36.8091 59.1016 36.6676 59.0582 36.5049C59.0148 36.3422 58.9352 36.1866 58.8267 36.038C58.7182 35.8894 58.5808 35.7621 58.3999 35.6701C58.2263 35.564 58.0093 35.5216 57.7489 35.5216C57.1774 35.5286 56.794 35.7126 56.6131 36.1017C56.4323 36.4766 56.3455 36.9082 56.3455 37.3893L56.3527 38.3089L59.1378 38.2877Z" fill="#516228"/>
<path d="M71.8188 47.1098L71.8116 45.4968H71.761C71.3848 46.1759 70.9363 46.6924 70.3648 47.039C69.8006 47.3928 69.2291 47.5696 68.6287 47.5696C67.8836 47.5625 67.2904 47.3928 66.8346 47.0744C66.3789 46.756 66.0172 46.3457 65.7568 45.8505C65.5036 45.3623 65.3227 44.8176 65.2287 44.2233C65.1274 43.6361 65.084 43.0419 65.0768 42.4405L65.0479 37.6369C65.0479 37.0921 65.0985 36.5403 65.207 35.9814C65.3083 35.4225 65.4964 34.9061 65.7495 34.4462C66.01 33.9793 66.3572 33.5973 66.8057 33.3072C67.2542 33.0172 67.7968 32.8757 68.4623 32.8686C69.0048 32.8686 69.5257 32.9889 70.0176 33.2294C70.524 33.4699 70.9869 33.9015 71.4137 34.5028L71.4644 34.5099L71.4282 28.539L75.4575 28.5177L75.5733 47.0815L71.8188 47.1098ZM69.1061 42.1222C69.1061 42.3203 69.1133 42.5537 69.1206 42.8155C69.135 43.0843 69.1784 43.3249 69.2508 43.5442C69.3231 43.7706 69.4533 43.9616 69.6125 44.1101C69.7716 44.2729 70.0031 44.3436 70.278 44.3436C70.8205 44.3436 71.1678 44.1101 71.3052 43.6503C71.4499 43.1904 71.515 42.6174 71.5078 41.9382L71.4861 38.6698C71.4861 38.3656 71.4716 38.0614 71.4427 37.7501C71.4137 37.4388 71.3559 37.1558 71.269 36.9153C71.1822 36.6677 71.0665 36.4625 70.9074 36.3069C70.7627 36.1512 70.5529 36.0805 70.3069 36.0805C69.9886 36.0734 69.7427 36.1654 69.5763 36.3352C69.4027 36.512 69.2797 36.7172 69.2074 36.9719C69.135 37.2195 69.0844 37.4883 69.0844 37.7784C69.0772 38.0614 69.0772 38.316 69.0772 38.5283L69.1061 42.1222Z" fill="#516228"/>
<path d="M81.6786 40.7639L81.7003 43.1905C81.7003 43.5725 81.8015 43.8979 82.0041 44.1809C82.1922 44.4568 82.5177 44.6125 82.9517 44.6408C83.3207 44.6549 83.6028 44.5912 83.7837 44.4497C83.9717 44.3083 84.0947 44.1243 84.1815 43.8908C84.2683 43.6574 84.3117 43.3956 84.319 43.1056C84.319 42.8155 84.3262 42.5255 84.3551 42.2283L88.3483 42.2071C88.464 43.9828 88.0517 45.3058 87.1185 46.1547C86.1926 47.0178 84.8543 47.4564 83.1181 47.4847C82.3875 47.4918 81.693 47.414 81.0565 47.2725C80.3909 47.131 79.8267 46.8905 79.3203 46.558C78.8212 46.2184 78.4161 45.7727 78.1267 45.2279C77.8229 44.6761 77.6782 44.004 77.671 43.2117L77.6348 37.5662C77.6276 36.6748 77.765 35.9319 78.0254 35.3235C78.2858 34.7151 78.662 34.227 79.1395 33.852C79.6169 33.4771 80.1884 33.2153 80.8611 33.0384C81.5194 32.8686 82.2428 32.7837 83.0241 32.7767C83.7258 32.7767 84.413 32.8333 85.0568 32.9606C85.7079 33.095 86.2866 33.3073 86.7857 33.6256C87.2849 33.9369 87.69 34.3472 88.001 34.8637C88.3049 35.3801 88.464 36.0168 88.464 36.7597L88.4857 40.7214L81.6786 40.7639ZM84.4564 38.1463L84.4419 36.7809C84.4419 36.6677 84.413 36.5262 84.3768 36.3635C84.3334 36.2008 84.2539 36.0451 84.1453 35.8966C84.0296 35.748 83.8922 35.6207 83.7113 35.5216C83.5377 35.4226 83.3134 35.373 83.0675 35.3801C82.4888 35.3801 82.1054 35.5711 81.9245 35.9602C81.7509 36.3423 81.6641 36.7738 81.6641 37.2478L81.6713 38.1675L84.4564 38.1463Z" fill="#516228"/>
<path d="M94.121 33.1162L94.1282 34.807H94.1789C94.555 34.1067 95.0325 33.5902 95.575 33.2506C96.1176 32.9181 96.7469 32.7271 97.4559 32.6917C98.1142 32.6917 98.6639 32.8262 99.1124 33.1162C99.5609 33.4063 99.9226 33.7812 100.183 34.234C100.451 34.6939 100.632 35.2103 100.747 35.7692C100.863 36.3281 100.921 36.8799 100.921 37.4317L100.957 42.2354C100.957 42.8296 100.914 43.4239 100.827 44.0111C100.74 44.6124 100.566 45.1572 100.321 45.6524C100.067 46.1547 99.7129 46.558 99.2571 46.8834C98.7869 47.2088 98.1937 47.3857 97.4631 47.3998C97.1159 47.4211 96.6529 47.3008 96.0886 47.0532C95.5244 46.8056 94.9963 46.3387 94.5261 45.6666H94.4682L94.5044 51.6587L90.4823 51.68L90.3666 33.1304L94.121 33.1162ZM96.9061 38.2241C96.9061 38.0189 96.8988 37.7925 96.8916 37.5308C96.8844 37.2619 96.8337 37.0143 96.7614 36.7738C96.6891 36.5333 96.5588 36.3422 96.3997 36.1866C96.2406 36.0239 96.0163 35.9461 95.7342 35.9461C95.1916 35.9531 94.8372 36.1937 94.6708 36.6747C94.5116 37.1558 94.4248 37.7289 94.4321 38.408L94.4538 41.6765C94.461 41.9736 94.4682 42.2778 94.5116 42.575C94.5478 42.8862 94.6057 43.1551 94.707 43.4027C94.7938 43.6503 94.924 43.8484 95.0831 43.997C95.2423 44.1455 95.4593 44.2163 95.7052 44.2163C96.0235 44.2163 96.2695 44.1314 96.4431 43.9616C96.6095 43.7918 96.7325 43.5937 96.8048 43.339C96.8771 43.0914 96.9206 42.8367 96.9278 42.5608C96.935 42.2991 96.935 42.0444 96.935 41.8109L96.9061 38.2241Z" fill="#516228"/>
<path d="M109.819 45.6453C109.32 46.1971 108.813 46.6145 108.307 46.9046C107.793 47.2017 107.149 47.3503 106.361 47.3503C105.211 47.3573 104.307 47.0178 103.641 46.3386C102.983 45.6524 102.643 44.761 102.643 43.6573C102.635 42.865 102.737 42.207 102.932 41.6764C103.135 41.1458 103.395 40.6931 103.721 40.3323C104.046 39.9644 104.429 39.6814 104.849 39.4692C105.269 39.2569 105.703 39.0801 106.137 38.9315C106.571 38.7829 106.998 38.6485 107.41 38.5353C107.822 38.4221 108.191 38.2948 108.517 38.1462C108.849 37.9977 109.11 37.8066 109.312 37.5803C109.508 37.3609 109.609 37.0567 109.609 36.6747C109.602 36.2998 109.493 35.9672 109.269 35.6701C109.059 35.3871 108.734 35.2456 108.329 35.2456C107.96 35.2527 107.678 35.3093 107.482 35.4225C107.287 35.5428 107.142 35.6984 107.041 35.8965C106.94 36.1017 106.882 36.321 106.853 36.5757C106.831 36.8303 106.809 37.1133 106.795 37.4034L102.766 37.4246C102.715 36.5686 102.809 35.8328 103.077 35.2173C103.33 34.6018 103.706 34.1066 104.191 33.7246C104.683 33.3426 105.261 33.0596 105.941 32.8898C106.621 32.7129 107.366 32.621 108.177 32.6139C109.175 32.6068 110.014 32.6776 110.701 32.8332C111.381 32.9888 111.938 33.2294 112.38 33.569C112.814 33.9015 113.125 34.3401 113.32 34.8778C113.515 35.4084 113.624 36.0592 113.624 36.8162L113.674 45.3128C113.674 45.5745 113.703 45.8363 113.776 46.091C113.848 46.3457 113.928 46.6004 114.007 46.8409L110.086 46.8621L109.819 45.6453ZM109.631 40.1554C109.226 40.3676 108.849 40.5516 108.502 40.6931C108.155 40.8346 107.866 40.9973 107.612 41.1812C107.359 41.3652 107.142 41.5845 106.954 41.8533C106.766 42.1151 106.679 42.49 106.679 42.9711C106.679 43.4026 106.809 43.7564 107.07 44.0323C107.323 44.3153 107.699 44.4497 108.184 44.4497C108.488 44.4426 108.726 44.3789 108.915 44.2445C109.103 44.1101 109.247 43.9403 109.356 43.721C109.464 43.5088 109.537 43.2753 109.58 43.0348C109.616 42.7942 109.638 42.5608 109.638 42.3273L109.631 40.1554Z" fill="#516228"/>
<path d="M116.228 46.8551L116.112 28.2843L120.142 28.263L120.25 46.8338L116.228 46.8551Z" fill="#516228"/>
<path d="M126.377 32.9323L126.392 34.5382H126.435C126.768 33.9156 127.216 33.4204 127.788 33.0808C128.352 32.7412 128.902 32.5502 129.437 32.5149C130.081 32.4724 130.681 32.6281 131.238 32.9606C131.803 33.3001 132.2 33.76 132.439 34.326H132.49C132.859 33.6963 133.286 33.2294 133.799 32.9323C134.298 32.6351 134.841 32.4795 135.412 32.4724C135.89 32.4724 136.353 32.529 136.78 32.6493C137.221 32.7766 137.611 32.9535 137.937 33.2011C138.27 33.4487 138.53 33.7529 138.725 34.1137C138.921 34.4745 139.022 34.8919 139.029 35.3518L139.094 46.7136L135.065 46.7348L135.007 36.8304C134.978 36.4979 134.884 36.2219 134.74 35.9885C134.595 35.755 134.334 35.6631 133.944 35.6914C133.22 35.7338 132.851 36.1158 132.859 36.8374L132.924 46.7419L128.894 46.7702L128.829 36.8657C128.764 36.5686 128.67 36.3068 128.555 36.0734C128.439 35.8399 128.207 35.7267 127.867 35.7338C127.462 35.7338 127.173 35.8328 126.999 36.0239C126.818 36.2149 126.717 36.4979 126.681 36.8799L126.746 46.7772L122.717 46.8055L122.63 32.9323H126.377Z" fill="#516228"/>
<path d="M147.783 45.426C147.284 45.9778 146.784 46.3952 146.278 46.6853C145.772 46.9895 145.121 47.131 144.332 47.1381C143.196 47.1452 142.278 46.8056 141.619 46.1264C140.961 45.4472 140.628 44.5488 140.621 43.4451C140.621 42.6528 140.708 41.9948 140.91 41.4643C141.113 40.9407 141.373 40.488 141.699 40.1272C142.024 39.7593 142.401 39.4692 142.82 39.2641C143.247 39.0518 143.667 38.8749 144.108 38.7193C144.549 38.5707 144.969 38.4363 145.381 38.3302C145.793 38.217 146.162 38.0967 146.495 37.9411C146.828 37.7925 147.088 37.6086 147.298 37.3822C147.493 37.1558 147.595 36.8587 147.587 36.4837C147.587 36.1017 147.479 35.7692 147.255 35.4791C147.03 35.1962 146.719 35.0476 146.314 35.0547C145.938 35.0547 145.656 35.1113 145.461 35.2315C145.273 35.3518 145.121 35.5074 145.027 35.7055C144.918 35.9036 144.867 36.13 144.838 36.3847C144.817 36.6394 144.795 36.9153 144.781 37.2124L140.751 37.2336C140.701 36.3776 140.802 35.6419 141.062 35.0334C141.323 34.418 141.692 33.9227 142.176 33.5407C142.668 33.1587 143.254 32.8757 143.934 32.6988C144.614 32.522 145.359 32.4371 146.17 32.43C147.161 32.43 148 32.5007 148.687 32.6493C149.374 32.8049 149.931 33.0455 150.365 33.378C150.799 33.7176 151.118 34.1562 151.313 34.6868C151.508 35.2245 151.609 35.8682 151.609 36.6252L151.667 45.1218C151.675 45.3907 151.704 45.6453 151.769 45.9C151.841 46.1547 151.921 46.4094 152 46.6499L148.079 46.6782L147.783 45.426ZM147.609 39.9361C147.204 40.1555 146.828 40.3323 146.488 40.4738C146.141 40.6153 145.844 40.7851 145.591 40.962C145.338 41.1459 145.113 41.3652 144.933 41.634C144.744 41.8958 144.658 42.2708 144.658 42.7448C144.658 43.1763 144.795 43.5371 145.048 43.813C145.301 44.0889 145.678 44.2304 146.162 44.2304C146.466 44.2233 146.705 44.1597 146.893 44.0253C147.074 43.8908 147.226 43.721 147.334 43.5017C147.443 43.2824 147.515 43.056 147.551 42.8155C147.595 42.575 147.616 42.3344 147.616 42.108L147.609 39.9361Z" fill="#516228"/>
<path d="M26.6138 20.5163C28.5091 14.6586 29.1385 9.35262 33.1172 7.25854C34.3542 6.61475 35.895 5.51111 41.9281 6.77747C41.9281 6.77747 31.6559 -0.877249 27.1636 11.6448C26.2666 14.1421 26.6138 20.5163 26.6138 20.5163Z" fill="#516228"/>
<path d="M27.8941 24.1668C27.8941 24.1668 30.2089 6.14783 41.5952 10.0459C42.8901 10.4846 44.7781 12.3523 45.2628 14.0289C45.2628 14.0289 38.5352 8.82911 32.22 16.979C29.9413 19.9292 30.5055 23.8414 30.5055 23.8414C30.5055 23.8414 36.5386 12.8333 44.4526 19.0519C47.7513 21.6412 47.6355 25.9143 47.6355 25.9143C47.6355 25.9143 40.5318 14.2695 30.2596 26.4732C30.2596 26.4732 41.682 19.2995 41.4288 29.5082C41.313 34.5311 38.0867 35.7267 38.0867 35.7267C38.0867 35.7267 40.6186 22.4831 30.2596 28.7865C30.2596 28.7865 29.5217 29.4233 32.1332 34.1349C34.7446 38.8396 39.2297 45.617 28.4583 46.0132C28.4583 46.0132 34.4914 42.9004 30.9106 37.4812C27.3298 32.0621 23.655 29.0342 27.8941 24.1668Z" fill="#516228"/>
<path d="M8.29011 0C3.71825 0 0 3.62927 0 8.10749V40.3464C0 44.8247 3.71825 48.4539 8.29011 48.4539H25.0801V0H8.29011ZM23.4669 11.6448C24.364 14.1421 24.0167 20.5163 24.0167 20.5163C22.1214 14.6586 21.4921 9.35262 17.5134 7.25854C16.2909 6.61475 14.7428 5.50404 8.70968 6.77747C8.70245 6.77747 18.9819 -0.877251 23.4669 11.6448ZM22.1576 46.0203C11.3862 45.6241 15.8785 38.8395 18.49 34.142C21.0942 29.4303 20.3636 28.7936 20.3636 28.7936C10.0118 22.4902 12.5292 35.7338 12.5292 35.7338C12.5292 35.7338 9.3101 34.5382 9.18712 29.5152C8.93393 19.3066 20.3563 26.4802 20.3563 26.4802C10.0841 14.2765 2.99486 25.9213 2.99486 25.9213C2.99486 25.9213 2.87911 21.6553 6.1778 19.059C14.0845 12.8404 20.1249 23.8485 20.1249 23.8485C20.1249 23.8485 20.6963 19.9362 18.4104 16.9861C12.1024 8.83617 5.36759 14.036 5.36759 14.036C5.8595 12.3593 9.03521 10.053 9.03521 10.053C21.7597 6.38129 22.7363 24.1739 22.7363 24.1739C26.9826 29.0412 23.3078 32.0692 19.7198 37.4954C16.1245 42.9074 22.1576 46.0203 22.1576 46.0203Z" fill="#516228"/>
</svg>
