<svg width="22" height="28" viewBox="0 0 22 28" fill="none" xmlns="http://www.w3.org/2000/svg">
<path d="M7.27988 23.2818H9.42401C9.65152 23.2818 9.83588 23.0974 9.83588 22.8699C9.83588 22.6426 9.65152 22.4582 9.42401 22.4582H7.27988C6.59885 22.4582 6.04492 23.0124 6.04492 23.6934V24.8852C6.04492 25.5662 6.59885 26.1202 7.27988 26.1202H14.6702C15.3512 26.1202 15.9053 25.5662 15.9053 24.8852V23.6934C15.9053 23.0124 15.3512 22.4582 14.6702 22.4582H11.0708C10.8435 22.4582 10.6592 22.6426 10.6592 22.8699C10.6592 23.0974 10.8435 23.2818 11.0708 23.2818H14.6702C14.8972 23.2818 15.0818 23.4663 15.0818 23.6934V24.8852C15.0818 25.1123 14.8972 25.2969 14.6702 25.2969H7.27988C7.0528 25.2969 6.86822 25.1123 6.86822 24.8852V23.6934C6.86822 23.4663 7.0528 23.2818 7.27988 23.2818Z" fill="#303B27"/>
<path d="M6.28355 16.0663C5.53117 14.5209 3.73204 13.8903 3.65577 13.8643C3.44151 13.791 3.20802 13.9044 3.13346 14.1185C3.10719 14.1945 2.49388 15.9996 3.24647 17.5452C3.92707 18.9429 4.92683 19.8284 5.74244 19.8284C5.81422 19.8284 5.88472 19.8211 5.95329 19.8073C5.88877 20.1728 5.83302 20.5406 5.78901 20.911C5.7621 21.1368 5.92317 21.3417 6.14897 21.3686C6.16563 21.3705 6.18208 21.3716 6.19831 21.3716C6.40382 21.3716 6.58155 21.2178 6.60655 21.0085C6.63945 20.7329 6.67939 20.4588 6.72404 20.186C6.95518 20.3157 7.2472 20.403 7.59306 20.4415C7.72871 20.4565 7.87034 20.4639 8.0171 20.4639C8.56376 20.4639 9.17836 20.3608 9.78996 20.1631C11.4257 19.6346 12.3024 17.9417 12.3389 17.8699C12.4414 17.668 12.3618 17.4211 12.1603 17.3173C12.0888 17.2803 10.3877 16.42 8.75154 16.9485C8.21128 17.1231 7.7332 17.3495 7.33778 17.6057C7.61015 16.739 7.94575 15.8913 8.34458 15.0663C8.50267 15.2075 8.70198 15.3348 8.94102 15.4444C9.50071 15.701 10.2371 15.8452 11.0147 15.8505C11.0221 15.8507 11.0292 15.8507 11.0364 15.8507C12.6681 15.8505 13.9588 14.5899 14.0133 14.5361C14.1741 14.3765 14.1761 14.1172 14.0173 13.9553C13.9635 13.9004 12.6792 12.6107 11.0371 12.5994C11.0221 12.5992 11.007 12.5992 10.9918 12.5992C10.5274 12.5992 10.0781 12.6494 9.67268 12.7436C10.1074 12.0899 10.5848 11.4535 11.1031 10.8372C11.2059 11.0573 11.4056 11.3038 11.7767 11.5445C12.2417 11.8462 12.8777 12.0707 13.5679 12.1769C13.7206 12.2004 13.8719 12.2108 14.0203 12.2108C15.2935 12.2108 16.3616 11.4354 16.4116 11.3986C16.5941 11.2643 16.6334 11.0077 16.4999 10.8246C16.4591 10.7686 15.4843 9.45273 14.0216 9.22757C13.5348 9.1528 13.0563 9.14255 12.629 9.19446C12.7217 9.1041 12.8151 9.01416 12.9095 8.92487C13.4647 8.40021 14.0146 7.93131 14.5386 7.51688C14.6144 7.7414 14.7862 8.00309 15.1406 8.27033C15.5544 8.58286 16.1326 8.83472 16.7686 8.97934C16.9837 9.02826 17.1973 9.04877 17.4048 9.04877C18.5024 9.04877 19.4297 8.47135 19.4758 8.44229C19.6672 8.32117 19.7247 8.06824 19.6047 7.87598C19.5703 7.82129 18.7478 6.52823 17.3964 6.22083C17.1008 6.15354 16.807 6.11359 16.5255 6.09928C17.5596 5.43683 18.2479 5.11063 18.2612 5.10443C18.4671 5.00809 18.556 4.76306 18.4599 4.55713C18.3637 4.3512 18.1187 4.26212 17.9125 4.35846C17.8553 4.38517 17.1211 4.7323 16.0331 5.43256C16.1117 5.14588 16.1664 4.83548 16.1931 4.51462C16.308 3.13333 15.3236 1.95905 15.2818 1.9097C15.135 1.73709 14.8763 1.71552 14.7031 1.86142C14.6535 1.90329 13.4886 2.89878 13.3735 4.28006C13.3194 4.9299 13.3848 5.55731 13.5576 6.04608C13.7005 6.45005 13.8894 6.69059 14.0742 6.83264C13.5745 7.22657 13.0507 7.66962 12.5179 8.16373C12.55 7.93515 12.5681 7.69739 12.5711 7.45493C12.5888 5.97516 11.4504 4.79767 11.402 4.74832C11.2432 4.58661 10.9837 4.58341 10.8211 4.74127C10.7716 4.78955 9.60517 5.93927 9.58744 7.41925C9.57911 8.11737 9.69639 8.78153 9.9177 9.28952C10.1277 9.77146 10.3851 10.0161 10.6163 10.1372C10.0869 10.7545 9.59727 11.3922 9.14866 12.0474C9.15592 11.7374 9.13798 11.4129 9.09376 11.0846C8.8748 9.45722 7.43305 8.34638 7.37175 8.29981C7.19123 8.16288 6.93403 8.19748 6.79624 8.37735C6.74946 8.43845 5.65251 9.89066 5.87147 11.5183C5.97529 12.2888 6.21156 13.001 6.53669 13.524C6.88661 14.086 7.3162 14.3889 7.75947 14.3917C7.32774 15.2458 6.96095 16.1238 6.66017 17.0225C6.56468 16.7065 6.43843 16.3842 6.28355 16.0663ZM5.82746 18.9876C5.56364 19.1166 4.67433 18.5967 3.98689 17.1848C3.58058 16.3504 3.68696 15.3722 3.79997 14.8221C4.3022 15.071 5.13511 15.5882 5.54335 16.4269C5.84584 17.0481 6.02848 17.7043 6.04429 18.2275C6.05882 18.7037 5.93663 18.9346 5.82746 18.9876ZM9.00447 17.7321C9.29628 17.6379 9.59577 17.6014 9.88481 17.6014C10.4712 17.6014 11.0159 17.752 11.3699 17.8785C11.0531 18.3407 10.4242 19.0929 9.53681 19.3796C8.87907 19.5919 8.20359 19.6808 7.68363 19.6231C7.21025 19.5708 6.99876 19.4174 6.96138 19.302C6.87101 19.0224 7.51039 18.2149 9.00447 17.7321ZM18.6273 7.95246C18.2259 8.12442 17.5827 8.3201 16.9512 8.17655C16.4341 8.05884 15.9547 7.85355 15.6366 7.61322C15.3751 7.41605 15.298 7.25327 15.3108 7.19687C15.3234 7.14069 15.4636 7.02726 15.7846 6.96253C15.9387 6.93155 16.113 6.91596 16.2995 6.91596C16.5855 6.91596 16.9002 6.95227 17.2136 7.02362C17.8412 7.16632 18.3383 7.62326 18.6273 7.95246ZM14.194 4.34821C14.2474 3.70755 14.6289 3.15192 14.9146 2.81931C15.1412 3.19464 15.4255 3.80582 15.3724 4.44648C15.2743 5.62247 14.8035 6.22296 14.6324 6.20801C14.5749 6.20331 14.4431 6.08048 14.3339 5.77179C14.2011 5.39582 14.15 4.87693 14.194 4.34821ZM11.0313 13.4229C11.8931 13.4287 12.6655 13.9134 13.0887 14.24C12.6651 14.559 11.8965 15.0272 11.0364 15.0272C11.0311 15.0272 11.0256 15.0272 11.0202 15.0272C10.3661 15.0227 9.73335 14.902 9.28389 14.6959C8.96537 14.5498 8.79661 14.3874 8.75218 14.2693C8.81434 14.155 8.87779 14.0414 8.9423 13.9279C9.2638 13.6812 9.9615 13.4227 10.9884 13.4227C11.0027 13.4227 11.017 13.4227 11.0313 13.4229ZM13.1825 9.98572C13.4124 9.98572 13.6542 10.0043 13.8962 10.0415C14.611 10.1515 15.2 10.6336 15.5345 10.9707C15.1156 11.1918 14.4115 11.4736 13.6929 11.3632C12.416 11.1666 11.7993 10.5916 11.8288 10.3999C11.8399 10.3279 11.986 10.1848 12.3428 10.0859C12.5831 10.0195 12.8721 9.98572 13.1825 9.98572ZM10.4105 7.42908C10.4193 6.70597 10.8143 6.05506 11.1012 5.67673C11.3787 6.0604 11.7564 6.71772 11.7476 7.4451C11.7408 8.02082 11.632 8.57666 11.4492 8.97016C11.2937 9.3049 11.1294 9.42581 11.0561 9.42581C11.0559 9.42581 11.0557 9.42581 11.0552 9.42581C10.9824 9.42496 10.8203 9.30042 10.6724 8.96076C10.4992 8.56299 10.4037 8.00479 10.4105 7.42908ZM6.6873 11.4085C6.57258 10.5542 6.94407 9.72147 7.20811 9.25662C7.58537 9.63367 8.16194 10.3356 8.27751 11.1944C8.47489 12.6603 8.05705 13.5306 7.78724 13.5669C7.51936 13.6032 6.88468 12.8743 6.6873 11.4085Z" fill="#303B27"/>
<path d="M20.3257 0H1.62579C0.944763 0 0.390625 0.554138 0.390625 1.23517V4.20496C0.390625 4.43225 0.574982 4.61661 0.802277 4.61661C1.02979 4.61661 1.21393 4.43225 1.21393 4.20496V1.23517C1.21393 1.00809 1.39871 0.823303 1.62579 0.823303H20.3257C20.5528 0.823303 20.7376 1.00809 20.7376 1.23517V26.7648C20.7376 26.9919 20.5528 27.1767 20.3257 27.1767H1.62579C1.39871 27.1767 1.21393 26.9919 1.21393 26.7648V5.85178C1.21393 5.62427 1.02979 5.43991 0.802277 5.43991C0.574982 5.43991 0.390625 5.62427 0.390625 5.85178V26.7648C0.390625 27.4459 0.944763 28 1.62579 28H20.3257C21.0067 28 21.5609 27.4459 21.5609 26.7648V1.23517C21.5609 0.554138 21.0067 0 20.3257 0Z" fill="#303B27"/>
</svg>
